<svg xmlns:xlink="http://www.w3.org/1999/xlink" width="24" height="24" viewBox="0 0 24 24" fill="none" xmlns="http://www.w3.org/2000/svg" class="fill-current"><path fill-rule="evenodd" clip-rule="evenodd" d="M0 21C0 20.4477 0.447715 20 1 20H23C23.5523 20 24 20.4477 24 21C24 21.5523 23.5523 22 23 22H1C0.447715 22 0 21.5523 0 21Z" fill="#20252A"></path><path fill-rule="evenodd" clip-rule="evenodd" d="M9 8C9 7.44772 9.44771 7 10 7H14C14.5523 7 15 7.44772 15 8V17C15 17.5523 14.5523 18 14 18H10C9.44771 18 9 17.5523 9 17V8ZM11 9V16H13V9H11Z" fill="#20252A"></path><path fill-rule="evenodd" clip-rule="evenodd" d="M17 3C17 2.44772 17.4477 2 18 2H22C22.5523 2 23 2.44772 23 3V17C23 17.5523 22.5523 18 22 18H18C17.4477 18 17 17.5523 17 17V3ZM19 4V16H21V4H19Z" fill="#20252A"></path><path fill-rule="evenodd" clip-rule="evenodd" d="M1 12C1 11.4477 1.44772 11 2 11H6C6.55228 11 7 11.4477 7 12V17C7 17.5523 6.55228 18 6 18H2C1.44772 18 1 17.5523 1 17V12ZM3 13V16H5V13H3Z" fill="#20252A"></path></svg>