<svg xmlns:xlink="http://www.w3.org/1999/xlink" width="24" height="24" viewBox="0 0 24 24" fill="none" xmlns="http://www.w3.org/2000/svg" class="mr-12 fill-current"><path fill-rule="evenodd" clip-rule="evenodd" d="M12.0942 0.0984882C12.3073 0.0215271 12.5338 -0.010907 12.7599 0.00322297C19.0344 0.396959 24.0001 5.61888 24.0001 12C24.0001 18.3815 19.035 23.6008 12.7606 23.9968L12.7583 23.9969C12.5324 24.0107 12.3062 23.978 12.0936 23.901C11.8809 23.8239 11.6864 23.7042 11.5218 23.5492C11.3572 23.3943 11.2261 23.2073 11.1365 23C11.0468 22.7926 11.0004 22.5692 11.0001 22.3433L11.0001 18.2043C11.0035 17.7744 11.1644 17.3605 11.4527 17.0413C11.7389 16.7243 12.1309 16.5226 12.5552 16.4742C13.6417 16.3376 14.6415 15.8086 15.3671 14.9858C16.0941 14.1615 16.4955 13.0991 16.4955 11.9985C16.4955 10.8979 16.0941 9.83546 15.3671 9.01113C14.6415 8.18836 13.6417 7.6594 12.5553 7.52278C12.1308 7.47447 11.7388 7.27277 11.4526 6.9558C11.1641 6.63637 11.0033 6.22215 11.0001 5.79207L11.0001 5.78479L11.0001 1.65841C11.0001 1.65853 11.0001 1.65829 11.0001 1.65841C11.0001 1.43235 11.0462 1.20827 11.1358 1.00066C11.2254 0.792929 11.3567 0.605662 11.5215 0.450468C11.6863 0.29527 11.8812 0.175447 12.0942 0.0984882ZM13.0001 2.02892C18.0509 2.53146 22.0001 6.80309 22.0001 12C22.0001 17.1966 18.0517 21.4666 13.0001 21.971V18.431C14.4947 18.1967 15.8632 17.4471 16.8671 16.3087C17.9166 15.1187 18.4955 13.5858 18.4955 11.9985C18.4955 10.4112 17.9166 8.87829 16.8671 7.68829C15.8632 6.54982 14.4947 5.80022 13.0001 5.56599V2.02892Z" fill="#20252A"></path><path fill-rule="evenodd" clip-rule="evenodd" d="M4.54663 5.5839C5.79534 4.28762 7.98703 5.17154 7.98703 6.97143V16.0285C7.98703 17.8284 5.79534 18.7124 4.54664 17.4161L0.852587 13.5813C-0.266615 12.4194 -0.266619 10.5805 0.852585 9.41868L4.54663 5.5839ZM5.98703 6.97143L2.29298 10.8062C1.91992 11.1935 1.91992 11.8065 2.29299 12.1938L5.98703 16.0285L5.98703 6.97143Z" fill="#20252A"></path></svg>