<svg xmlns:xlink="http://www.w3.org/1999/xlink" width="48" height="88" fill="none" xmlns="http://www.w3.org/2000/svg"><path fill="#FFFFFF" d="M0 0h48v88H0z"></path><path d="M34.021 21.33H3.685v51.129h30.336v-51.13Z" stroke="#006640" stroke-miterlimit="10" fill="none"></path><path d="M36.298 63.455V78.22a2.307 2.307 0 0 1-.669 1.62 2.275 2.275 0 0 1-1.608.673H3.596a2.267 2.267 0 0 1-1.614-.679 2.3 2.3 0 0 1-.663-1.63V18.03c.001-.285.114-.559.315-.76.2-.203.472-.316.755-.317h32.842c.283 0 .555.115.755.317.2.201.312.475.312.76v18.465" stroke="#006640" stroke-miterlimit="10" fill="none"></path><path d="M1.32 21.008V7.573A4.153 4.153 0 0 1 2.521 4.66a4.095 4.095 0 0 1 2.891-1.213h26.791a4.095 4.095 0 0 1 2.891 1.213c.767.773 1.2 1.82 1.203 2.913v12.792M36.298 63.992v16.66a4.054 4.054 0 0 1-1.177 2.846 3.997 3.997 0 0 1-2.827 1.18H5.317a3.996 3.996 0 0 1-2.823-1.182 4.053 4.053 0 0 1-1.175-2.844V23.944M36.298 25.163v33.562M36.087 58.406h2.481v4.338c0 .331-.13.648-.363.883a1.235 1.235 0 0 1-1.752 0 1.252 1.252 0 0 1-.363-.883v-4.338h-.003Z" stroke="#006640" stroke-miterlimit="10" fill="none"></path><path d="M27.865 58.406h2.48v4.338a1.255 1.255 0 0 1-.364.885 1.238 1.238 0 0 1-.88.363c-.33 0-.644-.132-.877-.365a1.252 1.252 0 0 1-.363-.883v-4.338h.004ZM27.373 36.017l1.777 1.79-1.396 1.404-1.777-1.79a.997.997 0 0 1 0-1.404.983.983 0 0 1 1.396 0ZM40.462 37.425l-1.777 1.79-1.395-1.406 1.777-1.79a.983.983 0 0 1 1.395 0 .997.997 0 0 1 0 1.406Z" stroke="#006640" stroke-miterlimit="10" fill="none"></path><path d="M25.888 43.518a7.46 7.46 0 0 1 2.215-5.157 7.356 7.356 0 0 1 5.166-2.123c1.932 0 3.786.762 5.166 2.123a7.46 7.46 0 0 1 2.215 5.157" fill="#FFFFFF"></path><path d="M26.249 43.518a7.1 7.1 0 0 1 2.057-5.003 7 7 0 0 1 4.968-2.072 7 7 0 0 1 4.967 2.072 7.1 7.1 0 0 1 2.058 5.003.365.365 0 0 0 .36.329.36.36 0 0 0 .358-.33 7.844 7.844 0 0 0-.543-3.03 7.8 7.8 0 0 0-1.667-2.583 7.736 7.736 0 0 0-2.53-1.73 7.693 7.693 0 0 0-8.527 1.73 7.8 7.8 0 0 0-1.667 2.582 7.844 7.844 0 0 0-.543 3.032.365.365 0 0 0 .36.329.36.36 0 0 0 .358-.33h-.01Z" fill="#006640"></path><path d="M25.997 46.473c0-.867-.698-1.57-1.559-1.57-.86 0-1.558.703-1.558 1.57v7.898c0 .866.698 1.569 1.558 1.569.86 0 1.559-.703 1.559-1.57v-7.897ZM43.68 46.473c0-.867-.697-1.57-1.558-1.57-.86 0-1.558.703-1.558 1.57v7.898c0 .866.698 1.569 1.558 1.569.86 0 1.559-.703 1.559-1.57v-7.897Z" stroke="#006640" stroke-miterlimit="10" fill="none"></path><path d="M39.2 58.387H27.339a1.437 1.437 0 0 1-1.025-.425 1.456 1.456 0 0 1-.425-1.032V43.518H40.65v13.406a1.467 1.467 0 0 1-.422 1.035 1.448 1.448 0 0 1-1.027.428Z" fill="#FFFFFF"></path><path d="M39.2 58.027H27.382a1.104 1.104 0 0 1-1.04-.67 1.125 1.125 0 0 1-.093-.427c-.02-.427 0-.858 0-1.286V43.518l-.361.36H40.65l-.373-.36v12.36c0 .863.14 2.097-1.09 2.142-.46 0-.462.74 0 .724a1.832 1.832 0 0 0 1.233-.505c.334-.317.538-.748.572-1.209V43.518a.368.368 0 0 0-.358-.364H25.888a.366.366 0 0 0-.358.364V56.9a1.886 1.886 0 0 0 .594 1.35 1.86 1.86 0 0 0 1.38.5h11.709a.36.36 0 0 0 .321-.368.364.364 0 0 0-.334-.356Z" fill="#006640"></path><path d="M32.3 3.322H5.158v8.36H32.3v-8.36Z" stroke="#006640" stroke-miterlimit="10" fill="none"></path></svg>