<svg xmlns:xlink="http://www.w3.org/1999/xlink" width="24" height="24" fill="none" xmlns="http://www.w3.org/2000/svg"><path d="M22.95 0H1.05C.45 0 0 .45 0 1.05V23.1c0 .45.45.9 1.05.9H23.1c.6 0 1.05-.45 1.05-1.05V1.05C24 .45 23.55 0 22.95 0ZM7.05 20.4H3.6V9h3.6v11.4h-.15ZM5.4 7.5c-1.2 0-2.1-1.05-2.1-2.1 0-1.2.9-2.1 2.1-2.1 1.2 0 2.1.9 2.1 2.1-.15 1.05-1.05 2.1-2.1 2.1Zm15 12.9h-3.6v-5.55c0-1.35 0-3-1.8-3s-2.1 1.5-2.1 3v5.7H9.3V9h3.45v1.5c.45-.9 1.65-1.8 3.3-1.8 3.6 0 4.2 2.4 4.2 5.4v6.3h.15Z" fill="#FFFFFF"></path></svg>