<svg xmlns:xlink="http://www.w3.org/1999/xlink" width="48" height="56" fill="none" xmlns="http://www.w3.org/2000/svg"><path fill="#FFFFFF" d="M0 0h48v56H0z"></path><path d="M15.486 3.175 40.605 3v50.01H2V16.27" stroke="#188178" stroke-linecap="round" stroke-linejoin="round" fill="none"></path><path d="M33.266 7.427H21.417v13.275h11.849V7.427Z" stroke="#006640" stroke-linecap="round" stroke-linejoin="round" fill="none"></path><path d="M38.737 45.487c4.533 0 8.208-3.567 8.208-7.968s-3.675-7.969-8.208-7.969c-4.532 0-8.207 3.568-8.207 7.969 0 4.4 3.675 7.968 8.207 7.968Z" fill="#006640" stroke="#006640" stroke-linecap="round" stroke-linejoin="round"></path><path d="m15.319 16.27.167-13.095L2 16.269h13.319ZM6.38 25.569h28.257M6.38 48.144h28.257M6.38 41.06h20.968M6.38 33.098h20.968" stroke="#006640" stroke-linecap="round" stroke-linejoin="round" fill="none"></path><path d="m35.096 38.404 2.277 2.216 5.471-5.312" stroke="#FFFFFF" stroke-linecap="round" stroke-linejoin="round" fill="none"></path></svg>