<svg xmlns:xlink="http://www.w3.org/1999/xlink" width="24" height="24" viewBox="0 0 24 24" fill="none" xmlns="http://www.w3.org/2000/svg" class="fill-current"><path fill-rule="evenodd" clip-rule="evenodd" d="M3.5 18.5H20.5V20.5H3.5V18.5Z" fill="#20252A"></path><path fill-rule="evenodd" clip-rule="evenodd" d="M6.5 2C6.23478 2 5.98043 2.10536 5.79289 2.29289C5.60536 2.48043 5.5 2.73478 5.5 3V21C5.5 21.2652 5.60536 21.5196 5.79289 21.7071C5.98043 21.8946 6.23478 22 6.5 22H17.5C17.7652 22 18.0196 21.8946 18.2071 21.7071C18.3946 21.5196 18.5 21.2652 18.5 21V3C18.5 2.73478 18.3946 2.48043 18.2071 2.29289C18.0196 2.10536 17.7652 2 17.5 2H6.5ZM4.37868 0.87868C4.94129 0.316071 5.70435 0 6.5 0H17.5C18.2956 0 19.0587 0.316071 19.6213 0.87868C20.1839 1.44129 20.5 2.20435 20.5 3V21C20.5 21.7957 20.1839 22.5587 19.6213 23.1213C19.0587 23.6839 18.2957 24 17.5 24H6.5C5.70435 24 4.94129 23.6839 4.37868 23.1213C3.81607 22.5587 3.5 21.7957 3.5 21V3C3.5 2.20435 3.81607 1.44129 4.37868 0.87868Z" fill="#20252A"></path><path fill-rule="evenodd" clip-rule="evenodd" d="M13 3.5V18H11V3.5H13Z" fill="#20252A"></path><path fill-rule="evenodd" clip-rule="evenodd" d="M11.3615 5.05247C12.8533 4.94587 14.5611 5.32281 15.4815 5.82857L16.358 6.31012L15.3949 8.06295L14.5185 7.58141C13.9829 7.28716 12.6694 6.96411 11.504 7.04738C10.9296 7.08843 10.5166 7.22094 10.2732 7.3926C10.0835 7.52639 9.9575 7.70285 9.9575 8.06449C9.9575 8.52234 10.1279 8.7867 10.4589 9.02943C10.8576 9.32181 11.4322 9.53386 12.1858 9.78506C12.2387 9.80271 12.2929 9.82064 12.348 9.83891C12.9982 10.0542 13.789 10.316 14.4132 10.7183C15.1611 11.2003 15.7815 11.9552 15.7815 13.112C15.7815 14.0771 15.4576 14.8856 14.836 15.4732C14.241 16.0358 13.4664 16.3078 12.7094 16.4213C11.2105 16.646 9.43165 16.3035 8.03519 15.799L7.09469 15.4592L7.77432 13.5782L8.71481 13.918C9.93935 14.3604 11.3637 14.6007 12.4129 14.4434C12.9299 14.3659 13.2655 14.2057 13.4621 14.0199C13.6322 13.8591 13.7815 13.6029 13.7815 13.112C13.7815 12.8127 13.6739 12.6212 13.3298 12.3994C12.9279 12.1404 12.3686 11.9541 11.6258 11.7066C11.6018 11.6986 11.5776 11.6905 11.5532 11.6824C10.8508 11.4482 9.96945 11.1507 9.27615 10.6423C8.51515 10.0842 7.9575 9.25664 7.9575 8.06449C7.9575 7.04637 8.40476 6.26302 9.12054 5.7582C9.78261 5.29126 10.6073 5.10636 11.3615 5.05247Z" fill="#20252A"></path></svg>