<svg xmlns:xlink="http://www.w3.org/1999/xlink" width="65" height="57" fill="none" xmlns="http://www.w3.org/2000/svg"><path d="M27 4.47h33.539c.6 0 1.175.236 1.6.656.424.42.662.989.662 1.583v36.88a2.226 2.226 0 0 1-.664 1.58 2.274 2.274 0 0 1-1.598.654H4.458a2.27 2.27 0 0 1-1.597-.654 2.222 2.222 0 0 1-.662-1.58V6.709c0-.593.238-1.162.661-1.582.424-.42.998-.656 1.598-.657h24.85M19.19 54.765h26.053M32.217 45.824v8.94" stroke="#006640" stroke-linecap="round" stroke-linejoin="round" fill="none"></path><path fill-rule="evenodd" clip-rule="evenodd" d="M29.715 34.9 20 26.77a1.586 1.586 0 0 1 0-2.265l9.715-8.13c.45-.444.285-.13.285.498V34.4c0 .628.166.943-.285.499ZM33.574 16.169a.722.722 0 0 0-.784.704v3.796c0 .344.257.649.612.695 2.202.285 3.899 2.09 3.899 4.273s-1.697 3.988-3.9 4.273a.704.704 0 0 0-.611.695v3.796c0 .408.36.736.784.705 5.12-.382 9.15-4.476 9.15-9.469 0-4.993-4.03-9.086-9.15-9.468Z" fill="#FFFFFF"></path><path clip-rule="evenodd" d="M29.715 34.9 20 26.77a1.586 1.586 0 0 1 0-2.265l9.715-8.13c.45-.444.285-.13.285.498V34.4c0 .628.166.943-.285.499ZM33.574 16.169a.722.722 0 0 0-.784.704v3.796c0 .344.257.649.612.695 2.202.285 3.899 2.09 3.899 4.273s-1.697 3.988-3.9 4.273a.704.704 0 0 0-.611.695v3.796c0 .408.36.736.784.705 5.12-.382 9.15-4.476 9.15-9.469 0-4.993-4.03-9.086-9.15-9.468Z" stroke="#006640" fill="none"></path></svg>