<svg xmlns:xlink="http://www.w3.org/1999/xlink" width="24" height="24" viewBox="0 0 24 24" fill="none" xmlns="http://www.w3.org/2000/svg" class="mr-12 fill-current"><path fill-rule="evenodd" clip-rule="evenodd" d="M13 12V24H11V12H13Z" fill="#20252A"></path><path fill-rule="evenodd" clip-rule="evenodd" d="M13.1 22H14C16.4192 22 18.4368 20.2824 18.9 18H18C15.5808 18 13.5632 19.7176 13.1 22ZM11 23C11 19.1337 14.1337 16 18 16H21V17C21 20.8663 17.8663 24 14 24H11V23Z" fill="#20252A"></path><path fill-rule="evenodd" clip-rule="evenodd" d="M0 1C0 0.447715 0.447715 0 1 0H23C23.5523 0 24 0.447715 24 1V13C24 13.5523 23.5523 14 23 14H1C0.447715 14 0 13.5523 0 13V1ZM2 2V12H22V2H2Z" fill="#20252A"></path><path fill-rule="evenodd" clip-rule="evenodd" d="M12 6C11.4477 6 11 6.44772 11 7C11 7.55228 11.4477 8 12 8C12.5523 8 13 7.55228 13 7C13 6.44772 12.5523 6 12 6ZM9 7C9 5.34315 10.3431 4 12 4C13.6569 4 15 5.34315 15 7C15 8.65685 13.6569 10 12 10C10.3431 10 9 8.65685 9 7Z" fill="#20252A"></path></svg>