<svg xmlns:xlink="http://www.w3.org/1999/xlink" width="24" height="24" fill="none" xmlns="http://www.w3.org/2000/svg"><path d="M5.78 6.22a.75.75 0 0 0-1.06 0L.4 10.983a1.494 1.494 0 0 0 0 2.032v.003l4.321 4.763A.75.75 0 0 0 6 17.249v-10.5a.75.75 0 0 0-.22-.53ZM12 23.282a.72.72 0 0 0 .761.717c6.273-.396 11.24-5.616 11.24-11.999C24 5.617 19.032.395 12.76.001a.715.715 0 0 0-.76.717V5.22a.824.824 0 0 0 .733.812 5.997 5.997 0 0 1 3.757 1.986 6.018 6.018 0 0 1 0 7.96 5.997 5.997 0 0 1-3.757 1.986.822.822 0 0 0-.734.813v4.505Z" fill="#FFFFFF"></path></svg>