<svg xmlns:xlink="http://www.w3.org/1999/xlink" width="24" height="24" viewBox="0 0 24 24" fill="none" xmlns="http://www.w3.org/2000/svg" class="mr-12 fill-current"><path fill-rule="evenodd" clip-rule="evenodd" d="M12 2C6.47715 2 2 6.47715 2 12C2 17.5228 6.47715 22 12 22C17.5228 22 22 17.5228 22 12C22 6.47715 17.5228 2 12 2ZM0 12C0 5.37258 5.37258 0 12 0C18.6274 0 24 5.37258 24 12C24 18.6274 18.6274 24 12 24C5.37258 24 0 18.6274 0 12Z" fill="#20252A"></path><path d="M12 19C12.5523 19 13 18.5523 13 18C13 17.4477 12.5523 17 12 17C11.4477 17 11 17.4477 11 18C11 18.5523 11.4477 19 12 19Z" fill="#20252A"></path><path fill-rule="evenodd" clip-rule="evenodd" d="M13 18C13 18.5523 12.5523 19 12 19C11.4477 19 11 18.5523 11 18C11 17.4477 11.4477 17 12 17C12.5523 17 13 17.4477 13 18Z" fill="#20252A"></path><path fill-rule="evenodd" clip-rule="evenodd" d="M12.8824 7.019C12.0664 6.9424 11.1017 7.10148 10.2572 7.47467L9.34254 7.87888L8.53412 6.04954L9.44879 5.64533C10.5843 5.14352 11.8906 4.9171 13.0693 5.02775C14.2236 5.13611 15.4508 5.5953 16.1207 6.67933C17.3745 8.70831 16.3621 10.883 14.6875 12.3019C13.1694 13.5882 13 14.0072 13 14.5V15.5H11V14.5C11 12.9928 11.9126 12.0318 13.3945 10.7761C14.7199 9.65302 14.9155 8.53368 14.4193 7.73067C14.2142 7.3987 13.7229 7.09789 12.8824 7.019Z" fill="#20252A"></path></svg>