<svg xmlns:xlink="http://www.w3.org/1999/xlink" width="48" height="88" fill="none" xmlns="http://www.w3.org/2000/svg"><g clip-path="url(#sdkMamba_svg__a)" fill="none"><path fill="#FFFFFF" d="M0 0h48v88H0z"></path><path d="M36.94 28.53H8.447v.092h28.495v-.091Z" stroke="#006640" stroke-miterlimit="10" fill="none"></path><path d="M40.498 82.623c0 2.716-2.35 4.918-5.258 4.918H10.152c-2.904 0-5.245-2.211-5.245-4.918L4 21.644a.704.704 0 0 1 .218-.49.689.689 0 0 1 .499-.189h35.962a.683.683 0 0 1 .657.412.704.704 0 0 1 .06.267l-.898 60.98Z" stroke="#006640" stroke-miterlimit="10" fill="none"></path><path d="m40.57 77.673 2.087 1.188a.296.296 0 0 0 .42-.117.305.305 0 0 0 .034-.158V33.297l-.926-11.735-.354-5.014s0-1.253-.907-1.253H39.84" stroke="#006640" stroke-miterlimit="10" fill="none"></path><path d="m5.062 20.814 1.66-19.318c.024-.28.149-.54.352-.732.203-.192.468-.3.746-.305h29.715c.281-.001.552.105.759.297.207.192.334.456.357.74l1.642 19.318" stroke="#006640" stroke-miterlimit="10" fill="none"></path><path d="M13.028 8.5h19.317a6.01 6.01 0 0 1 4.273 1.79 6.146 6.146 0 0 1 1.77 4.322v6.353H6.985v-6.353c0-1.621.637-3.175 1.77-4.321a6.01 6.01 0 0 1 4.273-1.79ZM8.573 80.678h4.632c.265 0 .52.106.707.295.188.19.294.446.295.714v1.092a1.018 1.018 0 0 1-.293.716.997.997 0 0 1-.71.293h-2.721a1.658 1.658 0 0 1-1.125-.568 5.79 5.79 0 0 1-1.193-1.803c-.132-.353.031-.739.408-.739ZM28.335 66.709h-3.489c-.824 0-1.492.675-1.492 1.51 0 .833.668 1.508 1.492 1.508h3.489c.824 0 1.492-.675 1.492-1.509 0-.834-.668-1.51-1.492-1.51ZM28.335 71.397h-3.489c-.824 0-1.492.676-1.492 1.51 0 .833.668 1.509 1.492 1.509h3.489c.824 0 1.492-.676 1.492-1.51 0-.833-.668-1.509-1.492-1.509ZM36.17 66.709H32.68c-.824 0-1.493.675-1.493 1.51 0 .833.669 1.508 1.493 1.508h3.489c.824 0 1.492-.675 1.492-1.509 0-.834-.668-1.51-1.492-1.51ZM36.17 71.397H32.68c-.824 0-1.493.676-1.493 1.51 0 .833.669 1.509 1.493 1.509h3.489c.824 0 1.492-.676 1.492-1.51 0-.833-.668-1.509-1.492-1.509ZM34.31 83.789h-2.15a1.012 1.012 0 0 1-.703-.33 1.035 1.035 0 0 1-.269-.735V77.15a1.032 1.032 0 0 1 .268-.736 1.013 1.013 0 0 1 .703-.328h4.537a.997.997 0 0 1 .702.329 1.02 1.02 0 0 1 .264.735v2.092c0 .523.068 2.234-1.011 3.418-.283.352-.64.636-1.045.832a2.989 2.989 0 0 1-1.296.297ZM28.335 76.086h-3.489c-.824 0-1.492.676-1.492 1.51 0 .833.668 1.509 1.492 1.509h3.489c.824 0 1.492-.676 1.492-1.51 0-.833-.668-1.51-1.492-1.51ZM28.335 80.77h-3.489c-.824 0-1.492.676-1.492 1.51 0 .833.668 1.509 1.492 1.509h3.489c.824 0 1.492-.676 1.492-1.51 0-.833-.668-1.51-1.492-1.51ZM20.59 66.709h-3.488c-.824 0-1.493.675-1.493 1.51a1.5 1.5 0 0 0 1.493 1.508h3.489a1.5 1.5 0 0 0 1.492-1.509c0-.834-.668-1.51-1.492-1.51ZM20.59 71.397h-3.488c-.824 0-1.493.676-1.493 1.51a1.5 1.5 0 0 0 1.493 1.509h3.489a1.5 1.5 0 0 0 1.492-1.51c0-.833-.668-1.509-1.492-1.509ZM20.59 76.086h-3.488c-.824 0-1.493.676-1.493 1.51 0 .833.669 1.509 1.493 1.509h3.489c.824 0 1.492-.676 1.492-1.51 0-.833-.668-1.51-1.492-1.51ZM12.715 66.709H9.226c-.824 0-1.492.675-1.492 1.51 0 .833.668 1.508 1.492 1.508h3.489c.824 0 1.493-.675 1.493-1.509 0-.834-.669-1.51-1.493-1.51ZM12.715 71.397H9.226c-.824 0-1.492.676-1.492 1.51 0 .833.668 1.509 1.492 1.509h3.489c.824 0 1.493-.676 1.493-1.51 0-.833-.669-1.509-1.493-1.509ZM12.715 76.086H9.226c-.824 0-1.492.676-1.492 1.51 0 .833.668 1.509 1.492 1.509h3.489c.824 0 1.493-.676 1.493-1.51 0-.833-.669-1.51-1.493-1.51ZM20.59 80.77h-3.488c-.824 0-1.493.676-1.493 1.51 0 .833.669 1.509 1.493 1.509h3.489c.824 0 1.492-.676 1.492-1.51 0-.833-.668-1.51-1.492-1.51Z" stroke="#006640" stroke-miterlimit="10" fill="none"></path><path d="M24.27 17.538h.907a.068.068 0 0 0 .068-.064v-2.55c0-.725.354-1.106.962-1.106s.948.38.948 1.106v2.55a.07.07 0 0 0 .046.061.067.067 0 0 0 .027.003h.907a.067.067 0 0 0 .066-.038.07.07 0 0 0 .007-.026v-2.546a1.904 1.904 0 0 0-.524-1.482 1.863 1.863 0 0 0-1.454-.564 1.85 1.85 0 0 0-1.477.55 1.893 1.893 0 0 0-.538 1.496v2.546a.07.07 0 0 0 .055.064ZM17.987 17.594c.217.009.434-.016.644-.074a.082.082 0 0 0 .05-.073v-.762c0-.046 0-.069-.077-.069-.078 0-.173.023-.273.023-.399 0-.571-.146-.571-.495v-2.152h.844a.073.073 0 0 0 .073-.069v-.835a.073.073 0 0 0-.073-.068h-.876v-.725c0-.078-.032-.11-.086-.11h-.862c-.073 0-.105.032-.105.11v3.959a1.202 1.202 0 0 0 .33.996 1.173 1.173 0 0 0 .982.344ZM14.321 17.649c1.025 0 1.76-.643 1.76-1.473 0-.917-.612-1.206-1.447-1.376l-.417-.092c-.313-.069-.486-.216-.486-.459 0-.325.322-.5.762-.5.383.017.758.114 1.103.285a.1.1 0 0 0 .086-.056l.163-.628c.032-.082.027-.1-.032-.133a2.656 2.656 0 0 0-1.329-.307c-1.039 0-1.76.61-1.76 1.417 0 .808.58 1.18 1.411 1.377l.422.087c.336.073.53.206.53.5 0 .293-.23.555-.775.555a3.847 3.847 0 0 1-1.361-.312c-.05 0-.073.027-.09.11l-.11.523c-.031.11 0 .183.073.216.478.184.986.274 1.497.266ZM21.285 16.75a1.302 1.302 0 0 1-.963-.45 1.334 1.334 0 0 1-.321-1.023 1.332 1.332 0 0 1 .322-1.018 1.304 1.304 0 0 1 .962-.441c.68 0 1.28.495 1.28 1.459 0 .963-.6 1.472-1.28 1.472Zm0 .917a2.247 2.247 0 0 0 1.676-.692 2.297 2.297 0 0 0 .642-1.712 2.367 2.367 0 0 0-.646-1.722 2.318 2.318 0 0 0-1.677-.719 2.296 2.296 0 0 0-1.673.729 2.35 2.35 0 0 0-.636 1.726 2.318 2.318 0 0 0 .64 1.71 2.267 2.267 0 0 0 1.674.694v-.014ZM33.184 15.226c0-1.426-.812-2.344-2.1-2.344a2.246 2.246 0 0 0-1.633.7 2.296 2.296 0 0 0-.635 1.676 2.288 2.288 0 0 0 .593 1.698 2.241 2.241 0 0 0 1.63.725 2.139 2.139 0 0 0 1.864-.854c.064-.091.077-.128.077-.155 0-.028 0-.046-.072-.097l-.404-.353c-.095-.087-.127-.11-.159-.11s-.05 0-.077.05a1.365 1.365 0 0 1-1.175.588 1.205 1.205 0 0 1-.817-.34 1.23 1.23 0 0 1-.372-.812h2.95c.203 0 .33-.087.33-.372Zm-2.136-1.463a.998.998 0 0 1 .76.271 1.02 1.02 0 0 1 .32.747h-2.205c.03-.28.163-.538.37-.726.208-.188.476-.292.755-.292Z" fill="#006640"></path><path d="M19.86 32.05h-6.147a.766.766 0 0 0-.762.77v6.216c0 .426.341.77.762.77h6.147a.766.766 0 0 0 .762-.77V32.82a.766.766 0 0 0-.762-.77ZM19.86 42.289h-6.147a.766.766 0 0 0-.762.77v6.217c0 .425.341.77.762.77h6.147a.766.766 0 0 0 .762-.77v-6.217a.766.766 0 0 0-.762-.77ZM31.347 42.266H25.2a.766.766 0 0 0-.762.77v6.217c0 .425.341.77.762.77h6.147c.421 0 .762-.345.762-.77v-6.216a.766.766 0 0 0-.762-.771ZM19.86 52.533h-6.147a.766.766 0 0 0-.762.77v6.217c0 .426.341.77.762.77h6.147a.766.766 0 0 0 .762-.77v-6.216a.766.766 0 0 0-.762-.771ZM31.347 52.51H25.2a.766.766 0 0 0-.762.77v6.217c0 .426.341.77.762.77h6.147c.421 0 .762-.344.762-.77v-6.216a.767.767 0 0 0-.762-.771ZM28.276 32.05v7.757M32.114 35.926h-7.676" stroke="#006640" stroke-miterlimit="10" fill="none"></path><path d="M35.417 25.47H9.97c-.842 0-1.524.69-1.524 1.542v35.026c0 .852.682 1.542 1.524 1.542h25.447c.841 0 1.524-.69 1.524-1.541V27.011c0-.851-.683-1.541-1.524-1.541Z" stroke="#006640" stroke-miterlimit="10" fill="none"></path></g><defs><clipPath id="sdkMamba_svg__a"><path fill="#fff" d="M0 0h48v88H0z"></path></clipPath></defs></svg>