<svg xmlns:xlink="http://www.w3.org/1999/xlink" height="160" width="160" xmlns="http://www.w3.org/2000/svg"><path d="M 0 0 L 6 0 L 6 6 L 0 6 Z" fill="#000000" transform="matrix(1,0,0,1,0,0)"></path><path d="M 0 0 L 7 0 L 7 6 L 0 6 Z" fill="#000000" transform="matrix(1,0,0,1,6,0)"></path><path d="M 0 0 L 6 0 L 6 6 L 0 6 Z" fill="#000000" transform="matrix(1,0,0,1,13,0)"></path><path d="M 0 0 L 7 0 L 7 6 L 0 6 Z" fill="#000000" transform="matrix(1,0,0,1,19,0)"></path><path d="M 0 0 L 6 0 L 6 6 L 0 6 Z" fill="#000000" transform="matrix(1,0,0,1,26,0)"></path><path d="M 0 0 L 6 0 L 6 6 L 0 6 Z" fill="#000000" transform="matrix(1,0,0,1,32,0)"></path><path d="M 0 0 L 7 0 L 7 6 L 0 6 Z" fill="#000000" transform="matrix(1,0,0,1,38,0)"></path><path d="M 0 0 L 6 0 L 6 6 L 0 6 Z" fill="#FFFFFF" transform="matrix(1,0,0,1,45,0)"></path><path d="M 0 0 L 7 0 L 7 6 L 0 6 Z" fill="#000000" transform="matrix(1,0,0,1,51,0)"></path><path d="M 0 0 L 6 0 L 6 6 L 0 6 Z" fill="#FFFFFF" transform="matrix(1,0,0,1,58,0)"></path><path d="M 0 0 L 6 0 L 6 6 L 0 6 Z" fill="#FFFFFF" transform="matrix(1,0,0,1,64,0)"></path><path d="M 0 0 L 7 0 L 7 6 L 0 6 Z" fill="#000000" transform="matrix(1,0,0,1,70,0)"></path><path d="M 0 0 L 6 0 L 6 6 L 0 6 Z" fill="#FFFFFF" transform="matrix(1,0,0,1,77,0)"></path><path d="M 0 0 L 7 0 L 7 6 L 0 6 Z" fill="#FFFFFF" transform="matrix(1,0,0,1,83,0)"></path><path d="M 0 0 L 6 0 L 6 6 L 0 6 Z" fill="#000000" transform="matrix(1,0,0,1,90,0)"></path><path d="M 0 0 L 6 0 L 6 6 L 0 6 Z" fill="#FFFFFF" transform="matrix(1,0,0,1,96,0)"></path><path d="M 0 0 L 7 0 L 7 6 L 0 6 Z" fill="#000000" transform="matrix(1,0,0,1,102,0)"></path><path d="M 0 0 L 6 0 L 6 6 L 0 6 Z" fill="#FFFFFF" transform="matrix(1,0,0,1,109,0)"></path><path d="M 0 0 L 7 0 L 7 6 L 0 6 Z" fill="#000000" transform="matrix(1,0,0,1,115,0)"></path><path d="M 0 0 L 6 0 L 6 6 L 0 6 Z" fill="#000000" transform="matrix(1,0,0,1,122,0)"></path><path d="M 0 0 L 6 0 L 6 6 L 0 6 Z" fill="#000000" transform="matrix(1,0,0,1,128,0)"></path><path d="M 0 0 L 7 0 L 7 6 L 0 6 Z" fill="#000000" transform="matrix(1,0,0,1,134,0)"></path><path d="M 0 0 L 6 0 L 6 6 L 0 6 Z" fill="#000000" transform="matrix(1,0,0,1,141,0)"></path><path d="M 0 0 L 7 0 L 7 6 L 0 6 Z" fill="#000000" transform="matrix(1,0,0,1,147,0)"></path><path d="M 0 0 L 6 0 L 6 6 L 0 6 Z" fill="#000000" transform="matrix(1,0,0,1,154,0)"></path><path d="M 0 0 L 6 0 L 6 7 L 0 7 Z" fill="#000000" transform="matrix(1,0,0,1,0,6)"></path><path d="M 0 0 L 7 0 L 7 7 L 0 7 Z" fill="#FFFFFF" transform="matrix(1,0,0,1,6,6)"></path><path d="M 0 0 L 6 0 L 6 7 L 0 7 Z" fill="#FFFFFF" transform="matrix(1,0,0,1,13,6)"></path><path d="M 0 0 L 7 0 L 7 7 L 0 7 Z" fill="#FFFFFF" transform="matrix(1,0,0,1,19,6)"></path><path d="M 0 0 L 6 0 L 6 7 L 0 7 Z" fill="#FFFFFF" transform="matrix(1,0,0,1,26,6)"></path><path d="M 0 0 L 6 0 L 6 7 L 0 7 Z" fill="#FFFFFF" transform="matrix(1,0,0,1,32,6)"></path><path d="M 0 0 L 7 0 L 7 7 L 0 7 Z" fill="#000000" transform="matrix(1,0,0,1,38,6)"></path><path d="M 0 0 L 6 0 L 6 7 L 0 7 Z" fill="#FFFFFF" transform="matrix(1,0,0,1,45,6)"></path><path d="M 0 0 L 7 0 L 7 7 L 0 7 Z" fill="#FFFFFF" transform="matrix(1,0,0,1,51,6)"></path><path d="M 0 0 L 6 0 L 6 7 L 0 7 Z" fill="#FFFFFF" transform="matrix(1,0,0,1,58,6)"></path><path d="M 0 0 L 6 0 L 6 7 L 0 7 Z" fill="#000000" transform="matrix(1,0,0,1,64,6)"></path><path d="M 0 0 L 7 0 L 7 7 L 0 7 Z" fill="#000000" transform="matrix(1,0,0,1,70,6)"></path><path d="M 0 0 L 6 0 L 6 7 L 0 7 Z" fill="#FFFFFF" transform="matrix(1,0,0,1,77,6)"></path><path d="M 0 0 L 7 0 L 7 7 L 0 7 Z" fill="#FFFFFF" transform="matrix(1,0,0,1,83,6)"></path><path d="M 0 0 L 6 0 L 6 7 L 0 7 Z" fill="#FFFFFF" transform="matrix(1,0,0,1,90,6)"></path><path d="M 0 0 L 6 0 L 6 7 L 0 7 Z" fill="#FFFFFF" transform="matrix(1,0,0,1,96,6)"></path><path d="M 0 0 L 7 0 L 7 7 L 0 7 Z" fill="#000000" transform="matrix(1,0,0,1,102,6)"></path><path d="M 0 0 L 6 0 L 6 7 L 0 7 Z" fill="#FFFFFF" transform="matrix(1,0,0,1,109,6)"></path><path d="M 0 0 L 7 0 L 7 7 L 0 7 Z" fill="#000000" transform="matrix(1,0,0,1,115,6)"></path><path d="M 0 0 L 6 0 L 6 7 L 0 7 Z" fill="#FFFFFF" transform="matrix(1,0,0,1,122,6)"></path><path d="M 0 0 L 6 0 L 6 7 L 0 7 Z" fill="#FFFFFF" transform="matrix(1,0,0,1,128,6)"></path><path d="M 0 0 L 7 0 L 7 7 L 0 7 Z" fill="#FFFFFF" transform="matrix(1,0,0,1,134,6)"></path><path d="M 0 0 L 6 0 L 6 7 L 0 7 Z" fill="#FFFFFF" transform="matrix(1,0,0,1,141,6)"></path><path d="M 0 0 L 7 0 L 7 7 L 0 7 Z" fill="#FFFFFF" transform="matrix(1,0,0,1,147,6)"></path><path d="M 0 0 L 6 0 L 6 7 L 0 7 Z" fill="#000000" transform="matrix(1,0,0,1,154,6)"></path><path d="M 0 0 L 6 0 L 6 6 L 0 6 Z" fill="#000000" transform="matrix(1,0,0,1,0,13)"></path><path d="M 0 0 L 7 0 L 7 6 L 0 6 Z" fill="#FFFFFF" transform="matrix(1,0,0,1,6,13)"></path><path d="M 0 0 L 6 0 L 6 6 L 0 6 Z" fill="#000000" transform="matrix(1,0,0,1,13,13)"></path><path d="M 0 0 L 7 0 L 7 6 L 0 6 Z" fill="#000000" transform="matrix(1,0,0,1,19,13)"></path><path d="M 0 0 L 6 0 L 6 6 L 0 6 Z" fill="#000000" transform="matrix(1,0,0,1,26,13)"></path><path d="M 0 0 L 6 0 L 6 6 L 0 6 Z" fill="#FFFFFF" transform="matrix(1,0,0,1,32,13)"></path><path d="M 0 0 L 7 0 L 7 6 L 0 6 Z" fill="#000000" transform="matrix(1,0,0,1,38,13)"></path><path d="M 0 0 L 6 0 L 6 6 L 0 6 Z" fill="#FFFFFF" transform="matrix(1,0,0,1,45,13)"></path><path d="M 0 0 L 7 0 L 7 6 L 0 6 Z" fill="#000000" transform="matrix(1,0,0,1,51,13)"></path><path d="M 0 0 L 6 0 L 6 6 L 0 6 Z" fill="#FFFFFF" transform="matrix(1,0,0,1,58,13)"></path><path d="M 0 0 L 6 0 L 6 6 L 0 6 Z" fill="#FFFFFF" transform="matrix(1,0,0,1,64,13)"></path><path d="M 0 0 L 7 0 L 7 6 L 0 6 Z" fill="#000000" transform="matrix(1,0,0,1,70,13)"></path><path d="M 0 0 L 6 0 L 6 6 L 0 6 Z" fill="#FFFFFF" transform="matrix(1,0,0,1,77,13)"></path><path d="M 0 0 L 7 0 L 7 6 L 0 6 Z" fill="#000000" transform="matrix(1,0,0,1,83,13)"></path><path d="M 0 0 L 6 0 L 6 6 L 0 6 Z" fill="#FFFFFF" transform="matrix(1,0,0,1,90,13)"></path><path d="M 0 0 L 6 0 L 6 6 L 0 6 Z" fill="#000000" transform="matrix(1,0,0,1,96,13)"></path><path d="M 0 0 L 7 0 L 7 6 L 0 6 Z" fill="#000000" transform="matrix(1,0,0,1,102,13)"></path><path d="M 0 0 L 6 0 L 6 6 L 0 6 Z" fill="#FFFFFF" transform="matrix(1,0,0,1,109,13)"></path><path d="M 0 0 L 7 0 L 7 6 L 0 6 Z" fill="#000000" transform="matrix(1,0,0,1,115,13)"></path><path d="M 0 0 L 6 0 L 6 6 L 0 6 Z" fill="#FFFFFF" transform="matrix(1,0,0,1,122,13)"></path><path d="M 0 0 L 6 0 L 6 6 L 0 6 Z" fill="#000000" transform="matrix(1,0,0,1,128,13)"></path><path d="M 0 0 L 7 0 L 7 6 L 0 6 Z" fill="#000000" transform="matrix(1,0,0,1,134,13)"></path><path d="M 0 0 L 6 0 L 6 6 L 0 6 Z" fill="#000000" transform="matrix(1,0,0,1,141,13)"></path><path d="M 0 0 L 7 0 L 7 6 L 0 6 Z" fill="#FFFFFF" transform="matrix(1,0,0,1,147,13)"></path><path d="M 0 0 L 6 0 L 6 6 L 0 6 Z" fill="#000000" transform="matrix(1,0,0,1,154,13)"></path><path d="M 0 0 L 6 0 L 6 7 L 0 7 Z" fill="#000000" transform="matrix(1,0,0,1,0,19)"></path><path d="M 0 0 L 7 0 L 7 7 L 0 7 Z" fill="#FFFFFF" transform="matrix(1,0,0,1,6,19)"></path><path d="M 0 0 L 6 0 L 6 7 L 0 7 Z" fill="#000000" transform="matrix(1,0,0,1,13,19)"></path><path d="M 0 0 L 7 0 L 7 7 L 0 7 Z" fill="#000000" transform="matrix(1,0,0,1,19,19)"></path><path d="M 0 0 L 6 0 L 6 7 L 0 7 Z" fill="#000000" transform="matrix(1,0,0,1,26,19)"></path><path d="M 0 0 L 6 0 L 6 7 L 0 7 Z" fill="#FFFFFF" transform="matrix(1,0,0,1,32,19)"></path><path d="M 0 0 L 7 0 L 7 7 L 0 7 Z" fill="#000000" transform="matrix(1,0,0,1,38,19)"></path><path d="M 0 0 L 6 0 L 6 7 L 0 7 Z" fill="#FFFFFF" transform="matrix(1,0,0,1,45,19)"></path><path d="M 0 0 L 7 0 L 7 7 L 0 7 Z" fill="#000000" transform="matrix(1,0,0,1,51,19)"></path><path d="M 0 0 L 6 0 L 6 7 L 0 7 Z" fill="#000000" transform="matrix(1,0,0,1,58,19)"></path><path d="M 0 0 L 6 0 L 6 7 L 0 7 Z" fill="#FFFFFF" transform="matrix(1,0,0,1,64,19)"></path><path d="M 0 0 L 7 0 L 7 7 L 0 7 Z" fill="#FFFFFF" transform="matrix(1,0,0,1,70,19)"></path><path d="M 0 0 L 6 0 L 6 7 L 0 7 Z" fill="#FFFFFF" transform="matrix(1,0,0,1,77,19)"></path><path d="M 0 0 L 7 0 L 7 7 L 0 7 Z" fill="#000000" transform="matrix(1,0,0,1,83,19)"></path><path d="M 0 0 L 6 0 L 6 7 L 0 7 Z" fill="#FFFFFF" transform="matrix(1,0,0,1,90,19)"></path><path d="M 0 0 L 6 0 L 6 7 L 0 7 Z" fill="#000000" transform="matrix(1,0,0,1,96,19)"></path><path d="M 0 0 L 7 0 L 7 7 L 0 7 Z" fill="#000000" transform="matrix(1,0,0,1,102,19)"></path><path d="M 0 0 L 6 0 L 6 7 L 0 7 Z" fill="#FFFFFF" transform="matrix(1,0,0,1,109,19)"></path><path d="M 0 0 L 7 0 L 7 7 L 0 7 Z" fill="#000000" transform="matrix(1,0,0,1,115,19)"></path><path d="M 0 0 L 6 0 L 6 7 L 0 7 Z" fill="#FFFFFF" transform="matrix(1,0,0,1,122,19)"></path><path d="M 0 0 L 6 0 L 6 7 L 0 7 Z" fill="#000000" transform="matrix(1,0,0,1,128,19)"></path><path d="M 0 0 L 7 0 L 7 7 L 0 7 Z" fill="#000000" transform="matrix(1,0,0,1,134,19)"></path><path d="M 0 0 L 6 0 L 6 7 L 0 7 Z" fill="#000000" transform="matrix(1,0,0,1,141,19)"></path><path d="M 0 0 L 7 0 L 7 7 L 0 7 Z" fill="#FFFFFF" transform="matrix(1,0,0,1,147,19)"></path><path d="M 0 0 L 6 0 L 6 7 L 0 7 Z" fill="#000000" transform="matrix(1,0,0,1,154,19)"></path><path d="M 0 0 L 6 0 L 6 6 L 0 6 Z" fill="#000000" transform="matrix(1,0,0,1,0,26)"></path><path d="M 0 0 L 7 0 L 7 6 L 0 6 Z" fill="#FFFFFF" transform="matrix(1,0,0,1,6,26)"></path><path d="M 0 0 L 6 0 L 6 6 L 0 6 Z" fill="#000000" transform="matrix(1,0,0,1,13,26)"></path><path d="M 0 0 L 7 0 L 7 6 L 0 6 Z" fill="#000000" transform="matrix(1,0,0,1,19,26)"></path><path d="M 0 0 L 6 0 L 6 6 L 0 6 Z" fill="#000000" transform="matrix(1,0,0,1,26,26)"></path><path d="M 0 0 L 6 0 L 6 6 L 0 6 Z" fill="#FFFFFF" transform="matrix(1,0,0,1,32,26)"></path><path d="M 0 0 L 7 0 L 7 6 L 0 6 Z" fill="#000000" transform="matrix(1,0,0,1,38,26)"></path><path d="M 0 0 L 6 0 L 6 6 L 0 6 Z" fill="#FFFFFF" transform="matrix(1,0,0,1,45,26)"></path><path d="M 0 0 L 7 0 L 7 6 L 0 6 Z" fill="#000000" transform="matrix(1,0,0,1,51,26)"></path><path d="M 0 0 L 6 0 L 6 6 L 0 6 Z" fill="#000000" transform="matrix(1,0,0,1,58,26)"></path><path d="M 0 0 L 6 0 L 6 6 L 0 6 Z" fill="#FFFFFF" transform="matrix(1,0,0,1,64,26)"></path><path d="M 0 0 L 7 0 L 7 6 L 0 6 Z" fill="#FFFFFF" transform="matrix(1,0,0,1,70,26)"></path><path d="M 0 0 L 6 0 L 6 6 L 0 6 Z" fill="#FFFFFF" transform="matrix(1,0,0,1,77,26)"></path><path d="M 0 0 L 7 0 L 7 6 L 0 6 Z" fill="#000000" transform="matrix(1,0,0,1,83,26)"></path><path d="M 0 0 L 6 0 L 6 6 L 0 6 Z" fill="#000000" transform="matrix(1,0,0,1,90,26)"></path><path d="M 0 0 L 6 0 L 6 6 L 0 6 Z" fill="#000000" transform="matrix(1,0,0,1,96,26)"></path><path d="M 0 0 L 7 0 L 7 6 L 0 6 Z" fill="#000000" transform="matrix(1,0,0,1,102,26)"></path><path d="M 0 0 L 6 0 L 6 6 L 0 6 Z" fill="#FFFFFF" transform="matrix(1,0,0,1,109,26)"></path><path d="M 0 0 L 7 0 L 7 6 L 0 6 Z" fill="#000000" transform="matrix(1,0,0,1,115,26)"></path><path d="M 0 0 L 6 0 L 6 6 L 0 6 Z" fill="#FFFFFF" transform="matrix(1,0,0,1,122,26)"></path><path d="M 0 0 L 6 0 L 6 6 L 0 6 Z" fill="#000000" transform="matrix(1,0,0,1,128,26)"></path><path d="M 0 0 L 7 0 L 7 6 L 0 6 Z" fill="#000000" transform="matrix(1,0,0,1,134,26)"></path><path d="M 0 0 L 6 0 L 6 6 L 0 6 Z" fill="#000000" transform="matrix(1,0,0,1,141,26)"></path><path d="M 0 0 L 7 0 L 7 6 L 0 6 Z" fill="#FFFFFF" transform="matrix(1,0,0,1,147,26)"></path><path d="M 0 0 L 6 0 L 6 6 L 0 6 Z" fill="#000000" transform="matrix(1,0,0,1,154,26)"></path><path d="M 0 0 L 6 0 L 6 6 L 0 6 Z" fill="#000000" transform="matrix(1,0,0,1,0,32)"></path><path d="M 0 0 L 7 0 L 7 6 L 0 6 Z" fill="#FFFFFF" transform="matrix(1,0,0,1,6,32)"></path><path d="M 0 0 L 6 0 L 6 6 L 0 6 Z" fill="#FFFFFF" transform="matrix(1,0,0,1,13,32)"></path><path d="M 0 0 L 7 0 L 7 6 L 0 6 Z" fill="#FFFFFF" transform="matrix(1,0,0,1,19,32)"></path><path d="M 0 0 L 6 0 L 6 6 L 0 6 Z" fill="#FFFFFF" transform="matrix(1,0,0,1,26,32)"></path><path d="M 0 0 L 6 0 L 6 6 L 0 6 Z" fill="#FFFFFF" transform="matrix(1,0,0,1,32,32)"></path><path d="M 0 0 L 7 0 L 7 6 L 0 6 Z" fill="#000000" transform="matrix(1,0,0,1,38,32)"></path><path d="M 0 0 L 6 0 L 6 6 L 0 6 Z" fill="#FFFFFF" transform="matrix(1,0,0,1,45,32)"></path><path d="M 0 0 L 7 0 L 7 6 L 0 6 Z" fill="#FFFFFF" transform="matrix(1,0,0,1,51,32)"></path><path d="M 0 0 L 6 0 L 6 6 L 0 6 Z" fill="#000000" transform="matrix(1,0,0,1,58,32)"></path><path d="M 0 0 L 6 0 L 6 6 L 0 6 Z" fill="#FFFFFF" transform="matrix(1,0,0,1,64,32)"></path><path d="M 0 0 L 7 0 L 7 6 L 0 6 Z" fill="#FFFFFF" transform="matrix(1,0,0,1,70,32)"></path><path d="M 0 0 L 6 0 L 6 6 L 0 6 Z" fill="#FFFFFF" transform="matrix(1,0,0,1,77,32)"></path><path d="M 0 0 L 7 0 L 7 6 L 0 6 Z" fill="#FFFFFF" transform="matrix(1,0,0,1,83,32)"></path><path d="M 0 0 L 6 0 L 6 6 L 0 6 Z" fill="#000000" transform="matrix(1,0,0,1,90,32)"></path><path d="M 0 0 L 6 0 L 6 6 L 0 6 Z" fill="#FFFFFF" transform="matrix(1,0,0,1,96,32)"></path><path d="M 0 0 L 7 0 L 7 6 L 0 6 Z" fill="#FFFFFF" transform="matrix(1,0,0,1,102,32)"></path><path d="M 0 0 L 6 0 L 6 6 L 0 6 Z" fill="#FFFFFF" transform="matrix(1,0,0,1,109,32)"></path><path d="M 0 0 L 7 0 L 7 6 L 0 6 Z" fill="#000000" transform="matrix(1,0,0,1,115,32)"></path><path d="M 0 0 L 6 0 L 6 6 L 0 6 Z" fill="#FFFFFF" transform="matrix(1,0,0,1,122,32)"></path><path d="M 0 0 L 6 0 L 6 6 L 0 6 Z" fill="#FFFFFF" transform="matrix(1,0,0,1,128,32)"></path><path d="M 0 0 L 7 0 L 7 6 L 0 6 Z" fill="#FFFFFF" transform="matrix(1,0,0,1,134,32)"></path><path d="M 0 0 L 6 0 L 6 6 L 0 6 Z" fill="#FFFFFF" transform="matrix(1,0,0,1,141,32)"></path><path d="M 0 0 L 7 0 L 7 6 L 0 6 Z" fill="#FFFFFF" transform="matrix(1,0,0,1,147,32)"></path><path d="M 0 0 L 6 0 L 6 6 L 0 6 Z" fill="#000000" transform="matrix(1,0,0,1,154,32)"></path><path d="M 0 0 L 6 0 L 6 7 L 0 7 Z" fill="#000000" transform="matrix(1,0,0,1,0,38)"></path><path d="M 0 0 L 7 0 L 7 7 L 0 7 Z" fill="#000000" transform="matrix(1,0,0,1,6,38)"></path><path d="M 0 0 L 6 0 L 6 7 L 0 7 Z" fill="#000000" transform="matrix(1,0,0,1,13,38)"></path><path d="M 0 0 L 7 0 L 7 7 L 0 7 Z" fill="#000000" transform="matrix(1,0,0,1,19,38)"></path><path d="M 0 0 L 6 0 L 6 7 L 0 7 Z" fill="#000000" transform="matrix(1,0,0,1,26,38)"></path><path d="M 0 0 L 6 0 L 6 7 L 0 7 Z" fill="#000000" transform="matrix(1,0,0,1,32,38)"></path><path d="M 0 0 L 7 0 L 7 7 L 0 7 Z" fill="#000000" transform="matrix(1,0,0,1,38,38)"></path><path d="M 0 0 L 6 0 L 6 7 L 0 7 Z" fill="#FFFFFF" transform="matrix(1,0,0,1,45,38)"></path><path d="M 0 0 L 7 0 L 7 7 L 0 7 Z" fill="#000000" transform="matrix(1,0,0,1,51,38)"></path><path d="M 0 0 L 6 0 L 6 7 L 0 7 Z" fill="#FFFFFF" transform="matrix(1,0,0,1,58,38)"></path><path d="M 0 0 L 6 0 L 6 7 L 0 7 Z" fill="#000000" transform="matrix(1,0,0,1,64,38)"></path><path d="M 0 0 L 7 0 L 7 7 L 0 7 Z" fill="#FFFFFF" transform="matrix(1,0,0,1,70,38)"></path><path d="M 0 0 L 6 0 L 6 7 L 0 7 Z" fill="#000000" transform="matrix(1,0,0,1,77,38)"></path><path d="M 0 0 L 7 0 L 7 7 L 0 7 Z" fill="#FFFFFF" transform="matrix(1,0,0,1,83,38)"></path><path d="M 0 0 L 6 0 L 6 7 L 0 7 Z" fill="#000000" transform="matrix(1,0,0,1,90,38)"></path><path d="M 0 0 L 6 0 L 6 7 L 0 7 Z" fill="#FFFFFF" transform="matrix(1,0,0,1,96,38)"></path><path d="M 0 0 L 7 0 L 7 7 L 0 7 Z" fill="#000000" transform="matrix(1,0,0,1,102,38)"></path><path d="M 0 0 L 6 0 L 6 7 L 0 7 Z" fill="#FFFFFF" transform="matrix(1,0,0,1,109,38)"></path><path d="M 0 0 L 7 0 L 7 7 L 0 7 Z" fill="#000000" transform="matrix(1,0,0,1,115,38)"></path><path d="M 0 0 L 6 0 L 6 7 L 0 7 Z" fill="#000000" transform="matrix(1,0,0,1,122,38)"></path><path d="M 0 0 L 6 0 L 6 7 L 0 7 Z" fill="#000000" transform="matrix(1,0,0,1,128,38)"></path><path d="M 0 0 L 7 0 L 7 7 L 0 7 Z" fill="#000000" transform="matrix(1,0,0,1,134,38)"></path><path d="M 0 0 L 6 0 L 6 7 L 0 7 Z" fill="#000000" transform="matrix(1,0,0,1,141,38)"></path><path d="M 0 0 L 7 0 L 7 7 L 0 7 Z" fill="#000000" transform="matrix(1,0,0,1,147,38)"></path><path d="M 0 0 L 6 0 L 6 7 L 0 7 Z" fill="#000000" transform="matrix(1,0,0,1,154,38)"></path><path d="M 0 0 L 6 0 L 6 6 L 0 6 Z" fill="#FFFFFF" transform="matrix(1,0,0,1,0,45)"></path><path d="M 0 0 L 7 0 L 7 6 L 0 6 Z" fill="#FFFFFF" transform="matrix(1,0,0,1,6,45)"></path><path d="M 0 0 L 6 0 L 6 6 L 0 6 Z" fill="#FFFFFF" transform="matrix(1,0,0,1,13,45)"></path><path d="M 0 0 L 7 0 L 7 6 L 0 6 Z" fill="#FFFFFF" transform="matrix(1,0,0,1,19,45)"></path><path d="M 0 0 L 6 0 L 6 6 L 0 6 Z" fill="#FFFFFF" transform="matrix(1,0,0,1,26,45)"></path><path d="M 0 0 L 6 0 L 6 6 L 0 6 Z" fill="#FFFFFF" transform="matrix(1,0,0,1,32,45)"></path><path d="M 0 0 L 7 0 L 7 6 L 0 6 Z" fill="#FFFFFF" transform="matrix(1,0,0,1,38,45)"></path><path d="M 0 0 L 6 0 L 6 6 L 0 6 Z" fill="#FFFFFF" transform="matrix(1,0,0,1,45,45)"></path><path d="M 0 0 L 7 0 L 7 6 L 0 6 Z" fill="#FFFFFF" transform="matrix(1,0,0,1,51,45)"></path><path d="M 0 0 L 6 0 L 6 6 L 0 6 Z" fill="#000000" transform="matrix(1,0,0,1,58,45)"></path><path d="M 0 0 L 6 0 L 6 6 L 0 6 Z" fill="#FFFFFF" transform="matrix(1,0,0,1,64,45)"></path><path d="M 0 0 L 7 0 L 7 6 L 0 6 Z" fill="#000000" transform="matrix(1,0,0,1,70,45)"></path><path d="M 0 0 L 6 0 L 6 6 L 0 6 Z" fill="#FFFFFF" transform="matrix(1,0,0,1,77,45)"></path><path d="M 0 0 L 7 0 L 7 6 L 0 6 Z" fill="#FFFFFF" transform="matrix(1,0,0,1,83,45)"></path><path d="M 0 0 L 6 0 L 6 6 L 0 6 Z" fill="#000000" transform="matrix(1,0,0,1,90,45)"></path><path d="M 0 0 L 6 0 L 6 6 L 0 6 Z" fill="#FFFFFF" transform="matrix(1,0,0,1,96,45)"></path><path d="M 0 0 L 7 0 L 7 6 L 0 6 Z" fill="#000000" transform="matrix(1,0,0,1,102,45)"></path><path d="M 0 0 L 6 0 L 6 6 L 0 6 Z" fill="#FFFFFF" transform="matrix(1,0,0,1,109,45)"></path><path d="M 0 0 L 7 0 L 7 6 L 0 6 Z" fill="#FFFFFF" transform="matrix(1,0,0,1,115,45)"></path><path d="M 0 0 L 6 0 L 6 6 L 0 6 Z" fill="#FFFFFF" transform="matrix(1,0,0,1,122,45)"></path><path d="M 0 0 L 6 0 L 6 6 L 0 6 Z" fill="#FFFFFF" transform="matrix(1,0,0,1,128,45)"></path><path d="M 0 0 L 7 0 L 7 6 L 0 6 Z" fill="#FFFFFF" transform="matrix(1,0,0,1,134,45)"></path><path d="M 0 0 L 6 0 L 6 6 L 0 6 Z" fill="#FFFFFF" transform="matrix(1,0,0,1,141,45)"></path><path d="M 0 0 L 7 0 L 7 6 L 0 6 Z" fill="#FFFFFF" transform="matrix(1,0,0,1,147,45)"></path><path d="M 0 0 L 6 0 L 6 6 L 0 6 Z" fill="#FFFFFF" transform="matrix(1,0,0,1,154,45)"></path><path d="M 0 0 L 6 0 L 6 7 L 0 7 Z" fill="#000000" transform="matrix(1,0,0,1,0,51)"></path><path d="M 0 0 L 7 0 L 7 7 L 0 7 Z" fill="#000000" transform="matrix(1,0,0,1,6,51)"></path><path d="M 0 0 L 6 0 L 6 7 L 0 7 Z" fill="#000000" transform="matrix(1,0,0,1,13,51)"></path><path d="M 0 0 L 7 0 L 7 7 L 0 7 Z" fill="#000000" transform="matrix(1,0,0,1,19,51)"></path><path d="M 0 0 L 6 0 L 6 7 L 0 7 Z" fill="#FFFFFF" transform="matrix(1,0,0,1,26,51)"></path><path d="M 0 0 L 6 0 L 6 7 L 0 7 Z" fill="#FFFFFF" transform="matrix(1,0,0,1,32,51)"></path><path d="M 0 0 L 7 0 L 7 7 L 0 7 Z" fill="#000000" transform="matrix(1,0,0,1,38,51)"></path><path d="M 0 0 L 6 0 L 6 7 L 0 7 Z" fill="#FFFFFF" transform="matrix(1,0,0,1,45,51)"></path><path d="M 0 0 L 7 0 L 7 7 L 0 7 Z" fill="#000000" transform="matrix(1,0,0,1,51,51)"></path><path d="M 0 0 L 6 0 L 6 7 L 0 7 Z" fill="#FFFFFF" transform="matrix(1,0,0,1,58,51)"></path><path d="M 0 0 L 6 0 L 6 7 L 0 7 Z" fill="#FFFFFF" transform="matrix(1,0,0,1,64,51)"></path><path d="M 0 0 L 7 0 L 7 7 L 0 7 Z" fill="#000000" transform="matrix(1,0,0,1,70,51)"></path><path d="M 0 0 L 6 0 L 6 7 L 0 7 Z" fill="#000000" transform="matrix(1,0,0,1,77,51)"></path><path d="M 0 0 L 7 0 L 7 7 L 0 7 Z" fill="#FFFFFF" transform="matrix(1,0,0,1,83,51)"></path><path d="M 0 0 L 6 0 L 6 7 L 0 7 Z" fill="#000000" transform="matrix(1,0,0,1,90,51)"></path><path d="M 0 0 L 6 0 L 6 7 L 0 7 Z" fill="#FFFFFF" transform="matrix(1,0,0,1,96,51)"></path><path d="M 0 0 L 7 0 L 7 7 L 0 7 Z" fill="#FFFFFF" transform="matrix(1,0,0,1,102,51)"></path><path d="M 0 0 L 6 0 L 6 7 L 0 7 Z" fill="#000000" transform="matrix(1,0,0,1,109,51)"></path><path d="M 0 0 L 7 0 L 7 7 L 0 7 Z" fill="#FFFFFF" transform="matrix(1,0,0,1,115,51)"></path><path d="M 0 0 L 6 0 L 6 7 L 0 7 Z" fill="#FFFFFF" transform="matrix(1,0,0,1,122,51)"></path><path d="M 0 0 L 6 0 L 6 7 L 0 7 Z" fill="#000000" transform="matrix(1,0,0,1,128,51)"></path><path d="M 0 0 L 7 0 L 7 7 L 0 7 Z" fill="#000000" transform="matrix(1,0,0,1,134,51)"></path><path d="M 0 0 L 6 0 L 6 7 L 0 7 Z" fill="#000000" transform="matrix(1,0,0,1,141,51)"></path><path d="M 0 0 L 7 0 L 7 7 L 0 7 Z" fill="#FFFFFF" transform="matrix(1,0,0,1,147,51)"></path><path d="M 0 0 L 6 0 L 6 7 L 0 7 Z" fill="#000000" transform="matrix(1,0,0,1,154,51)"></path><path d="M 0 0 L 6 0 L 6 6 L 0 6 Z" fill="#FFFFFF" transform="matrix(1,0,0,1,0,58)"></path><path d="M 0 0 L 7 0 L 7 6 L 0 6 Z" fill="#000000" transform="matrix(1,0,0,1,6,58)"></path><path d="M 0 0 L 6 0 L 6 6 L 0 6 Z" fill="#000000" transform="matrix(1,0,0,1,13,58)"></path><path d="M 0 0 L 7 0 L 7 6 L 0 6 Z" fill="#FFFFFF" transform="matrix(1,0,0,1,19,58)"></path><path d="M 0 0 L 6 0 L 6 6 L 0 6 Z" fill="#000000" transform="matrix(1,0,0,1,26,58)"></path><path d="M 0 0 L 6 0 L 6 6 L 0 6 Z" fill="#FFFFFF" transform="matrix(1,0,0,1,32,58)"></path><path d="M 0 0 L 7 0 L 7 6 L 0 6 Z" fill="#FFFFFF" transform="matrix(1,0,0,1,38,58)"></path><path d="M 0 0 L 6 0 L 6 6 L 0 6 Z" fill="#FFFFFF" transform="matrix(1,0,0,1,45,58)"></path><path d="M 0 0 L 7 0 L 7 6 L 0 6 Z" fill="#FFFFFF" transform="matrix(1,0,0,1,51,58)"></path><path d="M 0 0 L 6 0 L 6 6 L 0 6 Z" fill="#000000" transform="matrix(1,0,0,1,58,58)"></path><path d="M 0 0 L 6 0 L 6 6 L 0 6 Z" fill="#FFFFFF" transform="matrix(1,0,0,1,64,58)"></path><path d="M 0 0 L 7 0 L 7 6 L 0 6 Z" fill="#000000" transform="matrix(1,0,0,1,70,58)"></path><path d="M 0 0 L 6 0 L 6 6 L 0 6 Z" fill="#FFFFFF" transform="matrix(1,0,0,1,77,58)"></path><path d="M 0 0 L 7 0 L 7 6 L 0 6 Z" fill="#FFFFFF" transform="matrix(1,0,0,1,83,58)"></path><path d="M 0 0 L 6 0 L 6 6 L 0 6 Z" fill="#FFFFFF" transform="matrix(1,0,0,1,90,58)"></path><path d="M 0 0 L 6 0 L 6 6 L 0 6 Z" fill="#FFFFFF" transform="matrix(1,0,0,1,96,58)"></path><path d="M 0 0 L 7 0 L 7 6 L 0 6 Z" fill="#000000" transform="matrix(1,0,0,1,102,58)"></path><path d="M 0 0 L 6 0 L 6 6 L 0 6 Z" fill="#000000" transform="matrix(1,0,0,1,109,58)"></path><path d="M 0 0 L 7 0 L 7 6 L 0 6 Z" fill="#FFFFFF" transform="matrix(1,0,0,1,115,58)"></path><path d="M 0 0 L 6 0 L 6 6 L 0 6 Z" fill="#000000" transform="matrix(1,0,0,1,122,58)"></path><path d="M 0 0 L 6 0 L 6 6 L 0 6 Z" fill="#FFFFFF" transform="matrix(1,0,0,1,128,58)"></path><path d="M 0 0 L 7 0 L 7 6 L 0 6 Z" fill="#FFFFFF" transform="matrix(1,0,0,1,134,58)"></path><path d="M 0 0 L 6 0 L 6 6 L 0 6 Z" fill="#FFFFFF" transform="matrix(1,0,0,1,141,58)"></path><path d="M 0 0 L 7 0 L 7 6 L 0 6 Z" fill="#000000" transform="matrix(1,0,0,1,147,58)"></path><path d="M 0 0 L 6 0 L 6 6 L 0 6 Z" fill="#FFFFFF" transform="matrix(1,0,0,1,154,58)"></path><path d="M 0 0 L 6 0 L 6 6 L 0 6 Z" fill="#FFFFFF" transform="matrix(1,0,0,1,0,64)"></path><path d="M 0 0 L 7 0 L 7 6 L 0 6 Z" fill="#000000" transform="matrix(1,0,0,1,6,64)"></path><path d="M 0 0 L 6 0 L 6 6 L 0 6 Z" fill="#FFFFFF" transform="matrix(1,0,0,1,13,64)"></path><path d="M 0 0 L 7 0 L 7 6 L 0 6 Z" fill="#000000" transform="matrix(1,0,0,1,19,64)"></path><path d="M 0 0 L 6 0 L 6 6 L 0 6 Z" fill="#000000" transform="matrix(1,0,0,1,26,64)"></path><path d="M 0 0 L 6 0 L 6 6 L 0 6 Z" fill="#FFFFFF" transform="matrix(1,0,0,1,32,64)"></path><path d="M 0 0 L 7 0 L 7 6 L 0 6 Z" fill="#000000" transform="matrix(1,0,0,1,38,64)"></path><path d="M 0 0 L 6 0 L 6 6 L 0 6 Z" fill="#000000" transform="matrix(1,0,0,1,45,64)"></path><path d="M 0 0 L 7 0 L 7 6 L 0 6 Z" fill="#FFFFFF" transform="matrix(1,0,0,1,51,64)"></path><path d="M 0 0 L 6 0 L 6 6 L 0 6 Z" fill="#FFFFFF" transform="matrix(1,0,0,1,58,64)"></path><path d="M 0 0 L 6 0 L 6 6 L 0 6 Z" fill="#FFFFFF" transform="matrix(1,0,0,1,64,64)"></path><path d="M 0 0 L 7 0 L 7 6 L 0 6 Z" fill="#000000" transform="matrix(1,0,0,1,70,64)"></path><path d="M 0 0 L 6 0 L 6 6 L 0 6 Z" fill="#FFFFFF" transform="matrix(1,0,0,1,77,64)"></path><path d="M 0 0 L 7 0 L 7 6 L 0 6 Z" fill="#000000" transform="matrix(1,0,0,1,83,64)"></path><path d="M 0 0 L 6 0 L 6 6 L 0 6 Z" fill="#000000" transform="matrix(1,0,0,1,90,64)"></path><path d="M 0 0 L 6 0 L 6 6 L 0 6 Z" fill="#FFFFFF" transform="matrix(1,0,0,1,96,64)"></path><path d="M 0 0 L 7 0 L 7 6 L 0 6 Z" fill="#FFFFFF" transform="matrix(1,0,0,1,102,64)"></path><path d="M 0 0 L 6 0 L 6 6 L 0 6 Z" fill="#000000" transform="matrix(1,0,0,1,109,64)"></path><path d="M 0 0 L 7 0 L 7 6 L 0 6 Z" fill="#FFFFFF" transform="matrix(1,0,0,1,115,64)"></path><path d="M 0 0 L 6 0 L 6 6 L 0 6 Z" fill="#000000" transform="matrix(1,0,0,1,122,64)"></path><path d="M 0 0 L 6 0 L 6 6 L 0 6 Z" fill="#000000" transform="matrix(1,0,0,1,128,64)"></path><path d="M 0 0 L 7 0 L 7 6 L 0 6 Z" fill="#FFFFFF" transform="matrix(1,0,0,1,134,64)"></path><path d="M 0 0 L 6 0 L 6 6 L 0 6 Z" fill="#FFFFFF" transform="matrix(1,0,0,1,141,64)"></path><path d="M 0 0 L 7 0 L 7 6 L 0 6 Z" fill="#FFFFFF" transform="matrix(1,0,0,1,147,64)"></path><path d="M 0 0 L 6 0 L 6 6 L 0 6 Z" fill="#FFFFFF" transform="matrix(1,0,0,1,154,64)"></path><path d="M 0 0 L 6 0 L 6 7 L 0 7 Z" fill="#000000" transform="matrix(1,0,0,1,0,70)"></path><path d="M 0 0 L 7 0 L 7 7 L 0 7 Z" fill="#FFFFFF" transform="matrix(1,0,0,1,6,70)"></path><path d="M 0 0 L 6 0 L 6 7 L 0 7 Z" fill="#FFFFFF" transform="matrix(1,0,0,1,13,70)"></path><path d="M 0 0 L 7 0 L 7 7 L 0 7 Z" fill="#FFFFFF" transform="matrix(1,0,0,1,19,70)"></path><path d="M 0 0 L 6 0 L 6 7 L 0 7 Z" fill="#FFFFFF" transform="matrix(1,0,0,1,26,70)"></path><path d="M 0 0 L 6 0 L 6 7 L 0 7 Z" fill="#000000" transform="matrix(1,0,0,1,32,70)"></path><path d="M 0 0 L 7 0 L 7 7 L 0 7 Z" fill="#FFFFFF" transform="matrix(1,0,0,1,38,70)"></path><path d="M 0 0 L 6 0 L 6 7 L 0 7 Z" fill="#000000" transform="matrix(1,0,0,1,45,70)"></path><path d="M 0 0 L 7 0 L 7 7 L 0 7 Z" fill="#000000" transform="matrix(1,0,0,1,51,70)"></path><path d="M 0 0 L 6 0 L 6 7 L 0 7 Z" fill="#FFFFFF" transform="matrix(1,0,0,1,58,70)"></path><path d="M 0 0 L 6 0 L 6 7 L 0 7 Z" fill="#FFFFFF" transform="matrix(1,0,0,1,64,70)"></path><path d="M 0 0 L 7 0 L 7 7 L 0 7 Z" fill="#FFFFFF" transform="matrix(1,0,0,1,70,70)"></path><path d="M 0 0 L 6 0 L 6 7 L 0 7 Z" fill="#FFFFFF" transform="matrix(1,0,0,1,77,70)"></path><path d="M 0 0 L 7 0 L 7 7 L 0 7 Z" fill="#000000" transform="matrix(1,0,0,1,83,70)"></path><path d="M 0 0 L 6 0 L 6 7 L 0 7 Z" fill="#000000" transform="matrix(1,0,0,1,90,70)"></path><path d="M 0 0 L 6 0 L 6 7 L 0 7 Z" fill="#000000" transform="matrix(1,0,0,1,96,70)"></path><path d="M 0 0 L 7 0 L 7 7 L 0 7 Z" fill="#000000" transform="matrix(1,0,0,1,102,70)"></path><path d="M 0 0 L 6 0 L 6 7 L 0 7 Z" fill="#FFFFFF" transform="matrix(1,0,0,1,109,70)"></path><path d="M 0 0 L 7 0 L 7 7 L 0 7 Z" fill="#FFFFFF" transform="matrix(1,0,0,1,115,70)"></path><path d="M 0 0 L 6 0 L 6 7 L 0 7 Z" fill="#000000" transform="matrix(1,0,0,1,122,70)"></path><path d="M 0 0 L 6 0 L 6 7 L 0 7 Z" fill="#FFFFFF" transform="matrix(1,0,0,1,128,70)"></path><path d="M 0 0 L 7 0 L 7 7 L 0 7 Z" fill="#000000" transform="matrix(1,0,0,1,134,70)"></path><path d="M 0 0 L 6 0 L 6 7 L 0 7 Z" fill="#000000" transform="matrix(1,0,0,1,141,70)"></path><path d="M 0 0 L 7 0 L 7 7 L 0 7 Z" fill="#FFFFFF" transform="matrix(1,0,0,1,147,70)"></path><path d="M 0 0 L 6 0 L 6 7 L 0 7 Z" fill="#FFFFFF" transform="matrix(1,0,0,1,154,70)"></path><path d="M 0 0 L 6 0 L 6 6 L 0 6 Z" fill="#FFFFFF" transform="matrix(1,0,0,1,0,77)"></path><path d="M 0 0 L 7 0 L 7 6 L 0 6 Z" fill="#FFFFFF" transform="matrix(1,0,0,1,6,77)"></path><path d="M 0 0 L 6 0 L 6 6 L 0 6 Z" fill="#000000" transform="matrix(1,0,0,1,13,77)"></path><path d="M 0 0 L 7 0 L 7 6 L 0 6 Z" fill="#FFFFFF" transform="matrix(1,0,0,1,19,77)"></path><path d="M 0 0 L 6 0 L 6 6 L 0 6 Z" fill="#000000" transform="matrix(1,0,0,1,26,77)"></path><path d="M 0 0 L 6 0 L 6 6 L 0 6 Z" fill="#FFFFFF" transform="matrix(1,0,0,1,32,77)"></path><path d="M 0 0 L 7 0 L 7 6 L 0 6 Z" fill="#000000" transform="matrix(1,0,0,1,38,77)"></path><path d="M 0 0 L 6 0 L 6 6 L 0 6 Z" fill="#000000" transform="matrix(1,0,0,1,45,77)"></path><path d="M 0 0 L 7 0 L 7 6 L 0 6 Z" fill="#FFFFFF" transform="matrix(1,0,0,1,51,77)"></path><path d="M 0 0 L 6 0 L 6 6 L 0 6 Z" fill="#000000" transform="matrix(1,0,0,1,58,77)"></path><path d="M 0 0 L 6 0 L 6 6 L 0 6 Z" fill="#FFFFFF" transform="matrix(1,0,0,1,64,77)"></path><path d="M 0 0 L 7 0 L 7 6 L 0 6 Z" fill="#000000" transform="matrix(1,0,0,1,70,77)"></path><path d="M 0 0 L 6 0 L 6 6 L 0 6 Z" fill="#000000" transform="matrix(1,0,0,1,77,77)"></path><path d="M 0 0 L 7 0 L 7 6 L 0 6 Z" fill="#000000" transform="matrix(1,0,0,1,83,77)"></path><path d="M 0 0 L 6 0 L 6 6 L 0 6 Z" fill="#000000" transform="matrix(1,0,0,1,90,77)"></path><path d="M 0 0 L 6 0 L 6 6 L 0 6 Z" fill="#FFFFFF" transform="matrix(1,0,0,1,96,77)"></path><path d="M 0 0 L 7 0 L 7 6 L 0 6 Z" fill="#FFFFFF" transform="matrix(1,0,0,1,102,77)"></path><path d="M 0 0 L 6 0 L 6 6 L 0 6 Z" fill="#000000" transform="matrix(1,0,0,1,109,77)"></path><path d="M 0 0 L 7 0 L 7 6 L 0 6 Z" fill="#000000" transform="matrix(1,0,0,1,115,77)"></path><path d="M 0 0 L 6 0 L 6 6 L 0 6 Z" fill="#FFFFFF" transform="matrix(1,0,0,1,122,77)"></path><path d="M 0 0 L 6 0 L 6 6 L 0 6 Z" fill="#000000" transform="matrix(1,0,0,1,128,77)"></path><path d="M 0 0 L 7 0 L 7 6 L 0 6 Z" fill="#FFFFFF" transform="matrix(1,0,0,1,134,77)"></path><path d="M 0 0 L 6 0 L 6 6 L 0 6 Z" fill="#000000" transform="matrix(1,0,0,1,141,77)"></path><path d="M 0 0 L 7 0 L 7 6 L 0 6 Z" fill="#000000" transform="matrix(1,0,0,1,147,77)"></path><path d="M 0 0 L 6 0 L 6 6 L 0 6 Z" fill="#000000" transform="matrix(1,0,0,1,154,77)"></path><path d="M 0 0 L 6 0 L 6 7 L 0 7 Z" fill="#FFFFFF" transform="matrix(1,0,0,1,0,83)"></path><path d="M 0 0 L 7 0 L 7 7 L 0 7 Z" fill="#FFFFFF" transform="matrix(1,0,0,1,6,83)"></path><path d="M 0 0 L 6 0 L 6 7 L 0 7 Z" fill="#FFFFFF" transform="matrix(1,0,0,1,13,83)"></path><path d="M 0 0 L 7 0 L 7 7 L 0 7 Z" fill="#000000" transform="matrix(1,0,0,1,19,83)"></path><path d="M 0 0 L 6 0 L 6 7 L 0 7 Z" fill="#FFFFFF" transform="matrix(1,0,0,1,26,83)"></path><path d="M 0 0 L 6 0 L 6 7 L 0 7 Z" fill="#FFFFFF" transform="matrix(1,0,0,1,32,83)"></path><path d="M 0 0 L 7 0 L 7 7 L 0 7 Z" fill="#FFFFFF" transform="matrix(1,0,0,1,38,83)"></path><path d="M 0 0 L 6 0 L 6 7 L 0 7 Z" fill="#FFFFFF" transform="matrix(1,0,0,1,45,83)"></path><path d="M 0 0 L 7 0 L 7 7 L 0 7 Z" fill="#000000" transform="matrix(1,0,0,1,51,83)"></path><path d="M 0 0 L 6 0 L 6 7 L 0 7 Z" fill="#000000" transform="matrix(1,0,0,1,58,83)"></path><path d="M 0 0 L 6 0 L 6 7 L 0 7 Z" fill="#000000" transform="matrix(1,0,0,1,64,83)"></path><path d="M 0 0 L 7 0 L 7 7 L 0 7 Z" fill="#FFFFFF" transform="matrix(1,0,0,1,70,83)"></path><path d="M 0 0 L 6 0 L 6 7 L 0 7 Z" fill="#000000" transform="matrix(1,0,0,1,77,83)"></path><path d="M 0 0 L 7 0 L 7 7 L 0 7 Z" fill="#000000" transform="matrix(1,0,0,1,83,83)"></path><path d="M 0 0 L 6 0 L 6 7 L 0 7 Z" fill="#000000" transform="matrix(1,0,0,1,90,83)"></path><path d="M 0 0 L 6 0 L 6 7 L 0 7 Z" fill="#000000" transform="matrix(1,0,0,1,96,83)"></path><path d="M 0 0 L 7 0 L 7 7 L 0 7 Z" fill="#000000" transform="matrix(1,0,0,1,102,83)"></path><path d="M 0 0 L 6 0 L 6 7 L 0 7 Z" fill="#FFFFFF" transform="matrix(1,0,0,1,109,83)"></path><path d="M 0 0 L 7 0 L 7 7 L 0 7 Z" fill="#000000" transform="matrix(1,0,0,1,115,83)"></path><path d="M 0 0 L 6 0 L 6 7 L 0 7 Z" fill="#000000" transform="matrix(1,0,0,1,122,83)"></path><path d="M 0 0 L 6 0 L 6 7 L 0 7 Z" fill="#000000" transform="matrix(1,0,0,1,128,83)"></path><path d="M 0 0 L 7 0 L 7 7 L 0 7 Z" fill="#FFFFFF" transform="matrix(1,0,0,1,134,83)"></path><path d="M 0 0 L 6 0 L 6 7 L 0 7 Z" fill="#FFFFFF" transform="matrix(1,0,0,1,141,83)"></path><path d="M 0 0 L 7 0 L 7 7 L 0 7 Z" fill="#FFFFFF" transform="matrix(1,0,0,1,147,83)"></path><path d="M 0 0 L 6 0 L 6 7 L 0 7 Z" fill="#000000" transform="matrix(1,0,0,1,154,83)"></path><path d="M 0 0 L 6 0 L 6 6 L 0 6 Z" fill="#FFFFFF" transform="matrix(1,0,0,1,0,90)"></path><path d="M 0 0 L 7 0 L 7 6 L 0 6 Z" fill="#000000" transform="matrix(1,0,0,1,6,90)"></path><path d="M 0 0 L 6 0 L 6 6 L 0 6 Z" fill="#000000" transform="matrix(1,0,0,1,13,90)"></path><path d="M 0 0 L 7 0 L 7 6 L 0 6 Z" fill="#FFFFFF" transform="matrix(1,0,0,1,19,90)"></path><path d="M 0 0 L 6 0 L 6 6 L 0 6 Z" fill="#FFFFFF" transform="matrix(1,0,0,1,26,90)"></path><path d="M 0 0 L 6 0 L 6 6 L 0 6 Z" fill="#000000" transform="matrix(1,0,0,1,32,90)"></path><path d="M 0 0 L 7 0 L 7 6 L 0 6 Z" fill="#000000" transform="matrix(1,0,0,1,38,90)"></path><path d="M 0 0 L 6 0 L 6 6 L 0 6 Z" fill="#FFFFFF" transform="matrix(1,0,0,1,45,90)"></path><path d="M 0 0 L 7 0 L 7 6 L 0 6 Z" fill="#FFFFFF" transform="matrix(1,0,0,1,51,90)"></path><path d="M 0 0 L 6 0 L 6 6 L 0 6 Z" fill="#000000" transform="matrix(1,0,0,1,58,90)"></path><path d="M 0 0 L 6 0 L 6 6 L 0 6 Z" fill="#000000" transform="matrix(1,0,0,1,64,90)"></path><path d="M 0 0 L 7 0 L 7 6 L 0 6 Z" fill="#FFFFFF" transform="matrix(1,0,0,1,70,90)"></path><path d="M 0 0 L 6 0 L 6 6 L 0 6 Z" fill="#FFFFFF" transform="matrix(1,0,0,1,77,90)"></path><path d="M 0 0 L 7 0 L 7 6 L 0 6 Z" fill="#FFFFFF" transform="matrix(1,0,0,1,83,90)"></path><path d="M 0 0 L 6 0 L 6 6 L 0 6 Z" fill="#000000" transform="matrix(1,0,0,1,90,90)"></path><path d="M 0 0 L 6 0 L 6 6 L 0 6 Z" fill="#FFFFFF" transform="matrix(1,0,0,1,96,90)"></path><path d="M 0 0 L 7 0 L 7 6 L 0 6 Z" fill="#000000" transform="matrix(1,0,0,1,102,90)"></path><path d="M 0 0 L 6 0 L 6 6 L 0 6 Z" fill="#FFFFFF" transform="matrix(1,0,0,1,109,90)"></path><path d="M 0 0 L 7 0 L 7 6 L 0 6 Z" fill="#FFFFFF" transform="matrix(1,0,0,1,115,90)"></path><path d="M 0 0 L 6 0 L 6 6 L 0 6 Z" fill="#FFFFFF" transform="matrix(1,0,0,1,122,90)"></path><path d="M 0 0 L 6 0 L 6 6 L 0 6 Z" fill="#000000" transform="matrix(1,0,0,1,128,90)"></path><path d="M 0 0 L 7 0 L 7 6 L 0 6 Z" fill="#FFFFFF" transform="matrix(1,0,0,1,134,90)"></path><path d="M 0 0 L 6 0 L 6 6 L 0 6 Z" fill="#000000" transform="matrix(1,0,0,1,141,90)"></path><path d="M 0 0 L 7 0 L 7 6 L 0 6 Z" fill="#000000" transform="matrix(1,0,0,1,147,90)"></path><path d="M 0 0 L 6 0 L 6 6 L 0 6 Z" fill="#FFFFFF" transform="matrix(1,0,0,1,154,90)"></path><path d="M 0 0 L 6 0 L 6 6 L 0 6 Z" fill="#000000" transform="matrix(1,0,0,1,0,96)"></path><path d="M 0 0 L 7 0 L 7 6 L 0 6 Z" fill="#FFFFFF" transform="matrix(1,0,0,1,6,96)"></path><path d="M 0 0 L 6 0 L 6 6 L 0 6 Z" fill="#000000" transform="matrix(1,0,0,1,13,96)"></path><path d="M 0 0 L 7 0 L 7 6 L 0 6 Z" fill="#FFFFFF" transform="matrix(1,0,0,1,19,96)"></path><path d="M 0 0 L 6 0 L 6 6 L 0 6 Z" fill="#FFFFFF" transform="matrix(1,0,0,1,26,96)"></path><path d="M 0 0 L 6 0 L 6 6 L 0 6 Z" fill="#000000" transform="matrix(1,0,0,1,32,96)"></path><path d="M 0 0 L 7 0 L 7 6 L 0 6 Z" fill="#FFFFFF" transform="matrix(1,0,0,1,38,96)"></path><path d="M 0 0 L 6 0 L 6 6 L 0 6 Z" fill="#FFFFFF" transform="matrix(1,0,0,1,45,96)"></path><path d="M 0 0 L 7 0 L 7 6 L 0 6 Z" fill="#FFFFFF" transform="matrix(1,0,0,1,51,96)"></path><path d="M 0 0 L 6 0 L 6 6 L 0 6 Z" fill="#FFFFFF" transform="matrix(1,0,0,1,58,96)"></path><path d="M 0 0 L 6 0 L 6 6 L 0 6 Z" fill="#FFFFFF" transform="matrix(1,0,0,1,64,96)"></path><path d="M 0 0 L 7 0 L 7 6 L 0 6 Z" fill="#FFFFFF" transform="matrix(1,0,0,1,70,96)"></path><path d="M 0 0 L 6 0 L 6 6 L 0 6 Z" fill="#000000" transform="matrix(1,0,0,1,77,96)"></path><path d="M 0 0 L 7 0 L 7 6 L 0 6 Z" fill="#FFFFFF" transform="matrix(1,0,0,1,83,96)"></path><path d="M 0 0 L 6 0 L 6 6 L 0 6 Z" fill="#000000" transform="matrix(1,0,0,1,90,96)"></path><path d="M 0 0 L 6 0 L 6 6 L 0 6 Z" fill="#000000" transform="matrix(1,0,0,1,96,96)"></path><path d="M 0 0 L 7 0 L 7 6 L 0 6 Z" fill="#000000" transform="matrix(1,0,0,1,102,96)"></path><path d="M 0 0 L 6 0 L 6 6 L 0 6 Z" fill="#FFFFFF" transform="matrix(1,0,0,1,109,96)"></path><path d="M 0 0 L 7 0 L 7 6 L 0 6 Z" fill="#000000" transform="matrix(1,0,0,1,115,96)"></path><path d="M 0 0 L 6 0 L 6 6 L 0 6 Z" fill="#000000" transform="matrix(1,0,0,1,122,96)"></path><path d="M 0 0 L 6 0 L 6 6 L 0 6 Z" fill="#000000" transform="matrix(1,0,0,1,128,96)"></path><path d="M 0 0 L 7 0 L 7 6 L 0 6 Z" fill="#FFFFFF" transform="matrix(1,0,0,1,134,96)"></path><path d="M 0 0 L 6 0 L 6 6 L 0 6 Z" fill="#FFFFFF" transform="matrix(1,0,0,1,141,96)"></path><path d="M 0 0 L 7 0 L 7 6 L 0 6 Z" fill="#FFFFFF" transform="matrix(1,0,0,1,147,96)"></path><path d="M 0 0 L 6 0 L 6 6 L 0 6 Z" fill="#000000" transform="matrix(1,0,0,1,154,96)"></path><path d="M 0 0 L 6 0 L 6 7 L 0 7 Z" fill="#FFFFFF" transform="matrix(1,0,0,1,0,102)"></path><path d="M 0 0 L 7 0 L 7 7 L 0 7 Z" fill="#FFFFFF" transform="matrix(1,0,0,1,6,102)"></path><path d="M 0 0 L 6 0 L 6 7 L 0 7 Z" fill="#FFFFFF" transform="matrix(1,0,0,1,13,102)"></path><path d="M 0 0 L 7 0 L 7 7 L 0 7 Z" fill="#FFFFFF" transform="matrix(1,0,0,1,19,102)"></path><path d="M 0 0 L 6 0 L 6 7 L 0 7 Z" fill="#000000" transform="matrix(1,0,0,1,26,102)"></path><path d="M 0 0 L 6 0 L 6 7 L 0 7 Z" fill="#000000" transform="matrix(1,0,0,1,32,102)"></path><path d="M 0 0 L 7 0 L 7 7 L 0 7 Z" fill="#000000" transform="matrix(1,0,0,1,38,102)"></path><path d="M 0 0 L 6 0 L 6 7 L 0 7 Z" fill="#000000" transform="matrix(1,0,0,1,45,102)"></path><path d="M 0 0 L 7 0 L 7 7 L 0 7 Z" fill="#FFFFFF" transform="matrix(1,0,0,1,51,102)"></path><path d="M 0 0 L 6 0 L 6 7 L 0 7 Z" fill="#000000" transform="matrix(1,0,0,1,58,102)"></path><path d="M 0 0 L 6 0 L 6 7 L 0 7 Z" fill="#000000" transform="matrix(1,0,0,1,64,102)"></path><path d="M 0 0 L 7 0 L 7 7 L 0 7 Z" fill="#FFFFFF" transform="matrix(1,0,0,1,70,102)"></path><path d="M 0 0 L 6 0 L 6 7 L 0 7 Z" fill="#000000" transform="matrix(1,0,0,1,77,102)"></path><path d="M 0 0 L 7 0 L 7 7 L 0 7 Z" fill="#000000" transform="matrix(1,0,0,1,83,102)"></path><path d="M 0 0 L 6 0 L 6 7 L 0 7 Z" fill="#FFFFFF" transform="matrix(1,0,0,1,90,102)"></path><path d="M 0 0 L 6 0 L 6 7 L 0 7 Z" fill="#FFFFFF" transform="matrix(1,0,0,1,96,102)"></path><path d="M 0 0 L 7 0 L 7 7 L 0 7 Z" fill="#000000" transform="matrix(1,0,0,1,102,102)"></path><path d="M 0 0 L 6 0 L 6 7 L 0 7 Z" fill="#000000" transform="matrix(1,0,0,1,109,102)"></path><path d="M 0 0 L 7 0 L 7 7 L 0 7 Z" fill="#000000" transform="matrix(1,0,0,1,115,102)"></path><path d="M 0 0 L 6 0 L 6 7 L 0 7 Z" fill="#000000" transform="matrix(1,0,0,1,122,102)"></path><path d="M 0 0 L 6 0 L 6 7 L 0 7 Z" fill="#000000" transform="matrix(1,0,0,1,128,102)"></path><path d="M 0 0 L 7 0 L 7 7 L 0 7 Z" fill="#000000" transform="matrix(1,0,0,1,134,102)"></path><path d="M 0 0 L 6 0 L 6 7 L 0 7 Z" fill="#000000" transform="matrix(1,0,0,1,141,102)"></path><path d="M 0 0 L 7 0 L 7 7 L 0 7 Z" fill="#000000" transform="matrix(1,0,0,1,147,102)"></path><path d="M 0 0 L 6 0 L 6 7 L 0 7 Z" fill="#000000" transform="matrix(1,0,0,1,154,102)"></path><path d="M 0 0 L 6 0 L 6 6 L 0 6 Z" fill="#FFFFFF" transform="matrix(1,0,0,1,0,109)"></path><path d="M 0 0 L 7 0 L 7 6 L 0 6 Z" fill="#FFFFFF" transform="matrix(1,0,0,1,6,109)"></path><path d="M 0 0 L 6 0 L 6 6 L 0 6 Z" fill="#FFFFFF" transform="matrix(1,0,0,1,13,109)"></path><path d="M 0 0 L 7 0 L 7 6 L 0 6 Z" fill="#FFFFFF" transform="matrix(1,0,0,1,19,109)"></path><path d="M 0 0 L 6 0 L 6 6 L 0 6 Z" fill="#FFFFFF" transform="matrix(1,0,0,1,26,109)"></path><path d="M 0 0 L 6 0 L 6 6 L 0 6 Z" fill="#FFFFFF" transform="matrix(1,0,0,1,32,109)"></path><path d="M 0 0 L 7 0 L 7 6 L 0 6 Z" fill="#FFFFFF" transform="matrix(1,0,0,1,38,109)"></path><path d="M 0 0 L 6 0 L 6 6 L 0 6 Z" fill="#FFFFFF" transform="matrix(1,0,0,1,45,109)"></path><path d="M 0 0 L 7 0 L 7 6 L 0 6 Z" fill="#000000" transform="matrix(1,0,0,1,51,109)"></path><path d="M 0 0 L 6 0 L 6 6 L 0 6 Z" fill="#000000" transform="matrix(1,0,0,1,58,109)"></path><path d="M 0 0 L 6 0 L 6 6 L 0 6 Z" fill="#000000" transform="matrix(1,0,0,1,64,109)"></path><path d="M 0 0 L 7 0 L 7 6 L 0 6 Z" fill="#000000" transform="matrix(1,0,0,1,70,109)"></path><path d="M 0 0 L 6 0 L 6 6 L 0 6 Z" fill="#FFFFFF" transform="matrix(1,0,0,1,77,109)"></path><path d="M 0 0 L 7 0 L 7 6 L 0 6 Z" fill="#FFFFFF" transform="matrix(1,0,0,1,83,109)"></path><path d="M 0 0 L 6 0 L 6 6 L 0 6 Z" fill="#FFFFFF" transform="matrix(1,0,0,1,90,109)"></path><path d="M 0 0 L 6 0 L 6 6 L 0 6 Z" fill="#FFFFFF" transform="matrix(1,0,0,1,96,109)"></path><path d="M 0 0 L 7 0 L 7 6 L 0 6 Z" fill="#000000" transform="matrix(1,0,0,1,102,109)"></path><path d="M 0 0 L 6 0 L 6 6 L 0 6 Z" fill="#FFFFFF" transform="matrix(1,0,0,1,109,109)"></path><path d="M 0 0 L 7 0 L 7 6 L 0 6 Z" fill="#FFFFFF" transform="matrix(1,0,0,1,115,109)"></path><path d="M 0 0 L 6 0 L 6 6 L 0 6 Z" fill="#FFFFFF" transform="matrix(1,0,0,1,122,109)"></path><path d="M 0 0 L 6 0 L 6 6 L 0 6 Z" fill="#000000" transform="matrix(1,0,0,1,128,109)"></path><path d="M 0 0 L 7 0 L 7 6 L 0 6 Z" fill="#FFFFFF" transform="matrix(1,0,0,1,134,109)"></path><path d="M 0 0 L 6 0 L 6 6 L 0 6 Z" fill="#000000" transform="matrix(1,0,0,1,141,109)"></path><path d="M 0 0 L 7 0 L 7 6 L 0 6 Z" fill="#FFFFFF" transform="matrix(1,0,0,1,147,109)"></path><path d="M 0 0 L 6 0 L 6 6 L 0 6 Z" fill="#000000" transform="matrix(1,0,0,1,154,109)"></path><path d="M 0 0 L 6 0 L 6 7 L 0 7 Z" fill="#000000" transform="matrix(1,0,0,1,0,115)"></path><path d="M 0 0 L 7 0 L 7 7 L 0 7 Z" fill="#000000" transform="matrix(1,0,0,1,6,115)"></path><path d="M 0 0 L 6 0 L 6 7 L 0 7 Z" fill="#000000" transform="matrix(1,0,0,1,13,115)"></path><path d="M 0 0 L 7 0 L 7 7 L 0 7 Z" fill="#000000" transform="matrix(1,0,0,1,19,115)"></path><path d="M 0 0 L 6 0 L 6 7 L 0 7 Z" fill="#000000" transform="matrix(1,0,0,1,26,115)"></path><path d="M 0 0 L 6 0 L 6 7 L 0 7 Z" fill="#000000" transform="matrix(1,0,0,1,32,115)"></path><path d="M 0 0 L 7 0 L 7 7 L 0 7 Z" fill="#000000" transform="matrix(1,0,0,1,38,115)"></path><path d="M 0 0 L 6 0 L 6 7 L 0 7 Z" fill="#FFFFFF" transform="matrix(1,0,0,1,45,115)"></path><path d="M 0 0 L 7 0 L 7 7 L 0 7 Z" fill="#FFFFFF" transform="matrix(1,0,0,1,51,115)"></path><path d="M 0 0 L 6 0 L 6 7 L 0 7 Z" fill="#000000" transform="matrix(1,0,0,1,58,115)"></path><path d="M 0 0 L 6 0 L 6 7 L 0 7 Z" fill="#FFFFFF" transform="matrix(1,0,0,1,64,115)"></path><path d="M 0 0 L 7 0 L 7 7 L 0 7 Z" fill="#FFFFFF" transform="matrix(1,0,0,1,70,115)"></path><path d="M 0 0 L 6 0 L 6 7 L 0 7 Z" fill="#000000" transform="matrix(1,0,0,1,77,115)"></path><path d="M 0 0 L 7 0 L 7 7 L 0 7 Z" fill="#FFFFFF" transform="matrix(1,0,0,1,83,115)"></path><path d="M 0 0 L 6 0 L 6 7 L 0 7 Z" fill="#000000" transform="matrix(1,0,0,1,90,115)"></path><path d="M 0 0 L 6 0 L 6 7 L 0 7 Z" fill="#FFFFFF" transform="matrix(1,0,0,1,96,115)"></path><path d="M 0 0 L 7 0 L 7 7 L 0 7 Z" fill="#000000" transform="matrix(1,0,0,1,102,115)"></path><path d="M 0 0 L 6 0 L 6 7 L 0 7 Z" fill="#FFFFFF" transform="matrix(1,0,0,1,109,115)"></path><path d="M 0 0 L 7 0 L 7 7 L 0 7 Z" fill="#000000" transform="matrix(1,0,0,1,115,115)"></path><path d="M 0 0 L 6 0 L 6 7 L 0 7 Z" fill="#FFFFFF" transform="matrix(1,0,0,1,122,115)"></path><path d="M 0 0 L 6 0 L 6 7 L 0 7 Z" fill="#000000" transform="matrix(1,0,0,1,128,115)"></path><path d="M 0 0 L 7 0 L 7 7 L 0 7 Z" fill="#FFFFFF" transform="matrix(1,0,0,1,134,115)"></path><path d="M 0 0 L 6 0 L 6 7 L 0 7 Z" fill="#000000" transform="matrix(1,0,0,1,141,115)"></path><path d="M 0 0 L 7 0 L 7 7 L 0 7 Z" fill="#000000" transform="matrix(1,0,0,1,147,115)"></path><path d="M 0 0 L 6 0 L 6 7 L 0 7 Z" fill="#000000" transform="matrix(1,0,0,1,154,115)"></path><path d="M 0 0 L 6 0 L 6 6 L 0 6 Z" fill="#000000" transform="matrix(1,0,0,1,0,122)"></path><path d="M 0 0 L 7 0 L 7 6 L 0 6 Z" fill="#FFFFFF" transform="matrix(1,0,0,1,6,122)"></path><path d="M 0 0 L 6 0 L 6 6 L 0 6 Z" fill="#FFFFFF" transform="matrix(1,0,0,1,13,122)"></path><path d="M 0 0 L 7 0 L 7 6 L 0 6 Z" fill="#FFFFFF" transform="matrix(1,0,0,1,19,122)"></path><path d="M 0 0 L 6 0 L 6 6 L 0 6 Z" fill="#FFFFFF" transform="matrix(1,0,0,1,26,122)"></path><path d="M 0 0 L 6 0 L 6 6 L 0 6 Z" fill="#FFFFFF" transform="matrix(1,0,0,1,32,122)"></path><path d="M 0 0 L 7 0 L 7 6 L 0 6 Z" fill="#000000" transform="matrix(1,0,0,1,38,122)"></path><path d="M 0 0 L 6 0 L 6 6 L 0 6 Z" fill="#FFFFFF" transform="matrix(1,0,0,1,45,122)"></path><path d="M 0 0 L 7 0 L 7 6 L 0 6 Z" fill="#FFFFFF" transform="matrix(1,0,0,1,51,122)"></path><path d="M 0 0 L 6 0 L 6 6 L 0 6 Z" fill="#000000" transform="matrix(1,0,0,1,58,122)"></path><path d="M 0 0 L 6 0 L 6 6 L 0 6 Z" fill="#FFFFFF" transform="matrix(1,0,0,1,64,122)"></path><path d="M 0 0 L 7 0 L 7 6 L 0 6 Z" fill="#FFFFFF" transform="matrix(1,0,0,1,70,122)"></path><path d="M 0 0 L 6 0 L 6 6 L 0 6 Z" fill="#000000" transform="matrix(1,0,0,1,77,122)"></path><path d="M 0 0 L 7 0 L 7 6 L 0 6 Z" fill="#FFFFFF" transform="matrix(1,0,0,1,83,122)"></path><path d="M 0 0 L 6 0 L 6 6 L 0 6 Z" fill="#FFFFFF" transform="matrix(1,0,0,1,90,122)"></path><path d="M 0 0 L 6 0 L 6 6 L 0 6 Z" fill="#000000" transform="matrix(1,0,0,1,96,122)"></path><path d="M 0 0 L 7 0 L 7 6 L 0 6 Z" fill="#000000" transform="matrix(1,0,0,1,102,122)"></path><path d="M 0 0 L 6 0 L 6 6 L 0 6 Z" fill="#FFFFFF" transform="matrix(1,0,0,1,109,122)"></path><path d="M 0 0 L 7 0 L 7 6 L 0 6 Z" fill="#FFFFFF" transform="matrix(1,0,0,1,115,122)"></path><path d="M 0 0 L 6 0 L 6 6 L 0 6 Z" fill="#FFFFFF" transform="matrix(1,0,0,1,122,122)"></path><path d="M 0 0 L 6 0 L 6 6 L 0 6 Z" fill="#000000" transform="matrix(1,0,0,1,128,122)"></path><path d="M 0 0 L 7 0 L 7 6 L 0 6 Z" fill="#FFFFFF" transform="matrix(1,0,0,1,134,122)"></path><path d="M 0 0 L 6 0 L 6 6 L 0 6 Z" fill="#FFFFFF" transform="matrix(1,0,0,1,141,122)"></path><path d="M 0 0 L 7 0 L 7 6 L 0 6 Z" fill="#000000" transform="matrix(1,0,0,1,147,122)"></path><path d="M 0 0 L 6 0 L 6 6 L 0 6 Z" fill="#000000" transform="matrix(1,0,0,1,154,122)"></path><path d="M 0 0 L 6 0 L 6 6 L 0 6 Z" fill="#000000" transform="matrix(1,0,0,1,0,128)"></path><path d="M 0 0 L 7 0 L 7 6 L 0 6 Z" fill="#FFFFFF" transform="matrix(1,0,0,1,6,128)"></path><path d="M 0 0 L 6 0 L 6 6 L 0 6 Z" fill="#000000" transform="matrix(1,0,0,1,13,128)"></path><path d="M 0 0 L 7 0 L 7 6 L 0 6 Z" fill="#000000" transform="matrix(1,0,0,1,19,128)"></path><path d="M 0 0 L 6 0 L 6 6 L 0 6 Z" fill="#000000" transform="matrix(1,0,0,1,26,128)"></path><path d="M 0 0 L 6 0 L 6 6 L 0 6 Z" fill="#FFFFFF" transform="matrix(1,0,0,1,32,128)"></path><path d="M 0 0 L 7 0 L 7 6 L 0 6 Z" fill="#000000" transform="matrix(1,0,0,1,38,128)"></path><path d="M 0 0 L 6 0 L 6 6 L 0 6 Z" fill="#FFFFFF" transform="matrix(1,0,0,1,45,128)"></path><path d="M 0 0 L 7 0 L 7 6 L 0 6 Z" fill="#FFFFFF" transform="matrix(1,0,0,1,51,128)"></path><path d="M 0 0 L 6 0 L 6 6 L 0 6 Z" fill="#FFFFFF" transform="matrix(1,0,0,1,58,128)"></path><path d="M 0 0 L 6 0 L 6 6 L 0 6 Z" fill="#FFFFFF" transform="matrix(1,0,0,1,64,128)"></path><path d="M 0 0 L 7 0 L 7 6 L 0 6 Z" fill="#000000" transform="matrix(1,0,0,1,70,128)"></path><path d="M 0 0 L 6 0 L 6 6 L 0 6 Z" fill="#FFFFFF" transform="matrix(1,0,0,1,77,128)"></path><path d="M 0 0 L 7 0 L 7 6 L 0 6 Z" fill="#FFFFFF" transform="matrix(1,0,0,1,83,128)"></path><path d="M 0 0 L 6 0 L 6 6 L 0 6 Z" fill="#FFFFFF" transform="matrix(1,0,0,1,90,128)"></path><path d="M 0 0 L 6 0 L 6 6 L 0 6 Z" fill="#FFFFFF" transform="matrix(1,0,0,1,96,128)"></path><path d="M 0 0 L 7 0 L 7 6 L 0 6 Z" fill="#000000" transform="matrix(1,0,0,1,102,128)"></path><path d="M 0 0 L 6 0 L 6 6 L 0 6 Z" fill="#000000" transform="matrix(1,0,0,1,109,128)"></path><path d="M 0 0 L 7 0 L 7 6 L 0 6 Z" fill="#000000" transform="matrix(1,0,0,1,115,128)"></path><path d="M 0 0 L 6 0 L 6 6 L 0 6 Z" fill="#000000" transform="matrix(1,0,0,1,122,128)"></path><path d="M 0 0 L 6 0 L 6 6 L 0 6 Z" fill="#000000" transform="matrix(1,0,0,1,128,128)"></path><path d="M 0 0 L 7 0 L 7 6 L 0 6 Z" fill="#000000" transform="matrix(1,0,0,1,134,128)"></path><path d="M 0 0 L 6 0 L 6 6 L 0 6 Z" fill="#FFFFFF" transform="matrix(1,0,0,1,141,128)"></path><path d="M 0 0 L 7 0 L 7 6 L 0 6 Z" fill="#000000" transform="matrix(1,0,0,1,147,128)"></path><path d="M 0 0 L 6 0 L 6 6 L 0 6 Z" fill="#000000" transform="matrix(1,0,0,1,154,128)"></path><path d="M 0 0 L 6 0 L 6 7 L 0 7 Z" fill="#000000" transform="matrix(1,0,0,1,0,134)"></path><path d="M 0 0 L 7 0 L 7 7 L 0 7 Z" fill="#FFFFFF" transform="matrix(1,0,0,1,6,134)"></path><path d="M 0 0 L 6 0 L 6 7 L 0 7 Z" fill="#000000" transform="matrix(1,0,0,1,13,134)"></path><path d="M 0 0 L 7 0 L 7 7 L 0 7 Z" fill="#000000" transform="matrix(1,0,0,1,19,134)"></path><path d="M 0 0 L 6 0 L 6 7 L 0 7 Z" fill="#000000" transform="matrix(1,0,0,1,26,134)"></path><path d="M 0 0 L 6 0 L 6 7 L 0 7 Z" fill="#FFFFFF" transform="matrix(1,0,0,1,32,134)"></path><path d="M 0 0 L 7 0 L 7 7 L 0 7 Z" fill="#000000" transform="matrix(1,0,0,1,38,134)"></path><path d="M 0 0 L 6 0 L 6 7 L 0 7 Z" fill="#FFFFFF" transform="matrix(1,0,0,1,45,134)"></path><path d="M 0 0 L 7 0 L 7 7 L 0 7 Z" fill="#000000" transform="matrix(1,0,0,1,51,134)"></path><path d="M 0 0 L 6 0 L 6 7 L 0 7 Z" fill="#FFFFFF" transform="matrix(1,0,0,1,58,134)"></path><path d="M 0 0 L 6 0 L 6 7 L 0 7 Z" fill="#000000" transform="matrix(1,0,0,1,64,134)"></path><path d="M 0 0 L 7 0 L 7 7 L 0 7 Z" fill="#000000" transform="matrix(1,0,0,1,70,134)"></path><path d="M 0 0 L 6 0 L 6 7 L 0 7 Z" fill="#FFFFFF" transform="matrix(1,0,0,1,77,134)"></path><path d="M 0 0 L 7 0 L 7 7 L 0 7 Z" fill="#000000" transform="matrix(1,0,0,1,83,134)"></path><path d="M 0 0 L 6 0 L 6 7 L 0 7 Z" fill="#FFFFFF" transform="matrix(1,0,0,1,90,134)"></path><path d="M 0 0 L 6 0 L 6 7 L 0 7 Z" fill="#FFFFFF" transform="matrix(1,0,0,1,96,134)"></path><path d="M 0 0 L 7 0 L 7 7 L 0 7 Z" fill="#FFFFFF" transform="matrix(1,0,0,1,102,134)"></path><path d="M 0 0 L 6 0 L 6 7 L 0 7 Z" fill="#FFFFFF" transform="matrix(1,0,0,1,109,134)"></path><path d="M 0 0 L 7 0 L 7 7 L 0 7 Z" fill="#000000" transform="matrix(1,0,0,1,115,134)"></path><path d="M 0 0 L 6 0 L 6 7 L 0 7 Z" fill="#FFFFFF" transform="matrix(1,0,0,1,122,134)"></path><path d="M 0 0 L 6 0 L 6 7 L 0 7 Z" fill="#000000" transform="matrix(1,0,0,1,128,134)"></path><path d="M 0 0 L 7 0 L 7 7 L 0 7 Z" fill="#000000" transform="matrix(1,0,0,1,134,134)"></path><path d="M 0 0 L 6 0 L 6 7 L 0 7 Z" fill="#000000" transform="matrix(1,0,0,1,141,134)"></path><path d="M 0 0 L 7 0 L 7 7 L 0 7 Z" fill="#000000" transform="matrix(1,0,0,1,147,134)"></path><path d="M 0 0 L 6 0 L 6 7 L 0 7 Z" fill="#000000" transform="matrix(1,0,0,1,154,134)"></path><path d="M 0 0 L 6 0 L 6 6 L 0 6 Z" fill="#000000" transform="matrix(1,0,0,1,0,141)"></path><path d="M 0 0 L 7 0 L 7 6 L 0 6 Z" fill="#FFFFFF" transform="matrix(1,0,0,1,6,141)"></path><path d="M 0 0 L 6 0 L 6 6 L 0 6 Z" fill="#000000" transform="matrix(1,0,0,1,13,141)"></path><path d="M 0 0 L 7 0 L 7 6 L 0 6 Z" fill="#000000" transform="matrix(1,0,0,1,19,141)"></path><path d="M 0 0 L 6 0 L 6 6 L 0 6 Z" fill="#000000" transform="matrix(1,0,0,1,26,141)"></path><path d="M 0 0 L 6 0 L 6 6 L 0 6 Z" fill="#FFFFFF" transform="matrix(1,0,0,1,32,141)"></path><path d="M 0 0 L 7 0 L 7 6 L 0 6 Z" fill="#000000" transform="matrix(1,0,0,1,38,141)"></path><path d="M 0 0 L 6 0 L 6 6 L 0 6 Z" fill="#FFFFFF" transform="matrix(1,0,0,1,45,141)"></path><path d="M 0 0 L 7 0 L 7 6 L 0 6 Z" fill="#000000" transform="matrix(1,0,0,1,51,141)"></path><path d="M 0 0 L 6 0 L 6 6 L 0 6 Z" fill="#FFFFFF" transform="matrix(1,0,0,1,58,141)"></path><path d="M 0 0 L 6 0 L 6 6 L 0 6 Z" fill="#000000" transform="matrix(1,0,0,1,64,141)"></path><path d="M 0 0 L 7 0 L 7 6 L 0 6 Z" fill="#000000" transform="matrix(1,0,0,1,70,141)"></path><path d="M 0 0 L 6 0 L 6 6 L 0 6 Z" fill="#FFFFFF" transform="matrix(1,0,0,1,77,141)"></path><path d="M 0 0 L 7 0 L 7 6 L 0 6 Z" fill="#000000" transform="matrix(1,0,0,1,83,141)"></path><path d="M 0 0 L 6 0 L 6 6 L 0 6 Z" fill="#FFFFFF" transform="matrix(1,0,0,1,90,141)"></path><path d="M 0 0 L 6 0 L 6 6 L 0 6 Z" fill="#FFFFFF" transform="matrix(1,0,0,1,96,141)"></path><path d="M 0 0 L 7 0 L 7 6 L 0 6 Z" fill="#FFFFFF" transform="matrix(1,0,0,1,102,141)"></path><path d="M 0 0 L 6 0 L 6 6 L 0 6 Z" fill="#000000" transform="matrix(1,0,0,1,109,141)"></path><path d="M 0 0 L 7 0 L 7 6 L 0 6 Z" fill="#000000" transform="matrix(1,0,0,1,115,141)"></path><path d="M 0 0 L 6 0 L 6 6 L 0 6 Z" fill="#FFFFFF" transform="matrix(1,0,0,1,122,141)"></path><path d="M 0 0 L 6 0 L 6 6 L 0 6 Z" fill="#000000" transform="matrix(1,0,0,1,128,141)"></path><path d="M 0 0 L 7 0 L 7 6 L 0 6 Z" fill="#FFFFFF" transform="matrix(1,0,0,1,134,141)"></path><path d="M 0 0 L 6 0 L 6 6 L 0 6 Z" fill="#000000" transform="matrix(1,0,0,1,141,141)"></path><path d="M 0 0 L 7 0 L 7 6 L 0 6 Z" fill="#000000" transform="matrix(1,0,0,1,147,141)"></path><path d="M 0 0 L 6 0 L 6 6 L 0 6 Z" fill="#FFFFFF" transform="matrix(1,0,0,1,154,141)"></path><path d="M 0 0 L 6 0 L 6 7 L 0 7 Z" fill="#000000" transform="matrix(1,0,0,1,0,147)"></path><path d="M 0 0 L 7 0 L 7 7 L 0 7 Z" fill="#FFFFFF" transform="matrix(1,0,0,1,6,147)"></path><path d="M 0 0 L 6 0 L 6 7 L 0 7 Z" fill="#FFFFFF" transform="matrix(1,0,0,1,13,147)"></path><path d="M 0 0 L 7 0 L 7 7 L 0 7 Z" fill="#FFFFFF" transform="matrix(1,0,0,1,19,147)"></path><path d="M 0 0 L 6 0 L 6 7 L 0 7 Z" fill="#FFFFFF" transform="matrix(1,0,0,1,26,147)"></path><path d="M 0 0 L 6 0 L 6 7 L 0 7 Z" fill="#FFFFFF" transform="matrix(1,0,0,1,32,147)"></path><path d="M 0 0 L 7 0 L 7 7 L 0 7 Z" fill="#000000" transform="matrix(1,0,0,1,38,147)"></path><path d="M 0 0 L 6 0 L 6 7 L 0 7 Z" fill="#FFFFFF" transform="matrix(1,0,0,1,45,147)"></path><path d="M 0 0 L 7 0 L 7 7 L 0 7 Z" fill="#000000" transform="matrix(1,0,0,1,51,147)"></path><path d="M 0 0 L 6 0 L 6 7 L 0 7 Z" fill="#000000" transform="matrix(1,0,0,1,58,147)"></path><path d="M 0 0 L 6 0 L 6 7 L 0 7 Z" fill="#000000" transform="matrix(1,0,0,1,64,147)"></path><path d="M 0 0 L 7 0 L 7 7 L 0 7 Z" fill="#000000" transform="matrix(1,0,0,1,70,147)"></path><path d="M 0 0 L 6 0 L 6 7 L 0 7 Z" fill="#000000" transform="matrix(1,0,0,1,77,147)"></path><path d="M 0 0 L 7 0 L 7 7 L 0 7 Z" fill="#000000" transform="matrix(1,0,0,1,83,147)"></path><path d="M 0 0 L 6 0 L 6 7 L 0 7 Z" fill="#000000" transform="matrix(1,0,0,1,90,147)"></path><path d="M 0 0 L 6 0 L 6 7 L 0 7 Z" fill="#FFFFFF" transform="matrix(1,0,0,1,96,147)"></path><path d="M 0 0 L 7 0 L 7 7 L 0 7 Z" fill="#FFFFFF" transform="matrix(1,0,0,1,102,147)"></path><path d="M 0 0 L 6 0 L 6 7 L 0 7 Z" fill="#000000" transform="matrix(1,0,0,1,109,147)"></path><path d="M 0 0 L 7 0 L 7 7 L 0 7 Z" fill="#000000" transform="matrix(1,0,0,1,115,147)"></path><path d="M 0 0 L 6 0 L 6 7 L 0 7 Z" fill="#FFFFFF" transform="matrix(1,0,0,1,122,147)"></path><path d="M 0 0 L 6 0 L 6 7 L 0 7 Z" fill="#000000" transform="matrix(1,0,0,1,128,147)"></path><path d="M 0 0 L 7 0 L 7 7 L 0 7 Z" fill="#FFFFFF" transform="matrix(1,0,0,1,134,147)"></path><path d="M 0 0 L 6 0 L 6 7 L 0 7 Z" fill="#000000" transform="matrix(1,0,0,1,141,147)"></path><path d="M 0 0 L 7 0 L 7 7 L 0 7 Z" fill="#FFFFFF" transform="matrix(1,0,0,1,147,147)"></path><path d="M 0 0 L 6 0 L 6 7 L 0 7 Z" fill="#FFFFFF" transform="matrix(1,0,0,1,154,147)"></path><path d="M 0 0 L 6 0 L 6 6 L 0 6 Z" fill="#000000" transform="matrix(1,0,0,1,0,154)"></path><path d="M 0 0 L 7 0 L 7 6 L 0 6 Z" fill="#000000" transform="matrix(1,0,0,1,6,154)"></path><path d="M 0 0 L 6 0 L 6 6 L 0 6 Z" fill="#000000" transform="matrix(1,0,0,1,13,154)"></path><path d="M 0 0 L 7 0 L 7 6 L 0 6 Z" fill="#000000" transform="matrix(1,0,0,1,19,154)"></path><path d="M 0 0 L 6 0 L 6 6 L 0 6 Z" fill="#000000" transform="matrix(1,0,0,1,26,154)"></path><path d="M 0 0 L 6 0 L 6 6 L 0 6 Z" fill="#000000" transform="matrix(1,0,0,1,32,154)"></path><path d="M 0 0 L 7 0 L 7 6 L 0 6 Z" fill="#000000" transform="matrix(1,0,0,1,38,154)"></path><path d="M 0 0 L 6 0 L 6 6 L 0 6 Z" fill="#FFFFFF" transform="matrix(1,0,0,1,45,154)"></path><path d="M 0 0 L 7 0 L 7 6 L 0 6 Z" fill="#000000" transform="matrix(1,0,0,1,51,154)"></path><path d="M 0 0 L 6 0 L 6 6 L 0 6 Z" fill="#000000" transform="matrix(1,0,0,1,58,154)"></path><path d="M 0 0 L 6 0 L 6 6 L 0 6 Z" fill="#000000" transform="matrix(1,0,0,1,64,154)"></path><path d="M 0 0 L 7 0 L 7 6 L 0 6 Z" fill="#FFFFFF" transform="matrix(1,0,0,1,70,154)"></path><path d="M 0 0 L 6 0 L 6 6 L 0 6 Z" fill="#000000" transform="matrix(1,0,0,1,77,154)"></path><path d="M 0 0 L 7 0 L 7 6 L 0 6 Z" fill="#000000" transform="matrix(1,0,0,1,83,154)"></path><path d="M 0 0 L 6 0 L 6 6 L 0 6 Z" fill="#000000" transform="matrix(1,0,0,1,90,154)"></path><path d="M 0 0 L 6 0 L 6 6 L 0 6 Z" fill="#FFFFFF" transform="matrix(1,0,0,1,96,154)"></path><path d="M 0 0 L 7 0 L 7 6 L 0 6 Z" fill="#FFFFFF" transform="matrix(1,0,0,1,102,154)"></path><path d="M 0 0 L 6 0 L 6 6 L 0 6 Z" fill="#FFFFFF" transform="matrix(1,0,0,1,109,154)"></path><path d="M 0 0 L 7 0 L 7 6 L 0 6 Z" fill="#FFFFFF" transform="matrix(1,0,0,1,115,154)"></path><path d="M 0 0 L 6 0 L 6 6 L 0 6 Z" fill="#000000" transform="matrix(1,0,0,1,122,154)"></path><path d="M 0 0 L 6 0 L 6 6 L 0 6 Z" fill="#000000" transform="matrix(1,0,0,1,128,154)"></path><path d="M 0 0 L 7 0 L 7 6 L 0 6 Z" fill="#000000" transform="matrix(1,0,0,1,134,154)"></path><path d="M 0 0 L 6 0 L 6 6 L 0 6 Z" fill="#000000" transform="matrix(1,0,0,1,141,154)"></path><path d="M 0 0 L 7 0 L 7 6 L 0 6 Z" fill="#000000" transform="matrix(1,0,0,1,147,154)"></path><path d="M 0 0 L 6 0 L 6 6 L 0 6 Z" fill="#000000" transform="matrix(1,0,0,1,154,154)"></path></svg>