<svg xmlns:xlink="http://www.w3.org/1999/xlink" width="147" height="106" viewBox="0 0 147 106" fill="none" xmlns="http://www.w3.org/2000/svg"><path d="M57.1328 27.532C57.1328 26.412 57.1328 25.292 57.1608 24.172C58.9248 24.172 60.6888 24.2 62.4528 24.228L62.3688 21.148H57.2168C55.9288 21.148 54.6408 21.148 53.3528 21.148H48.2008L48.1168 24.228C49.8808 24.2 51.6448 24.172 53.4088 24.172V27.532V35.372C53.4088 37.248 53.3808 39.152 53.3528 41H57.2168L57.1328 35.372V27.532ZM76.9038 41C76.7918 39.6 76.7358 38.032 76.7358 36.632V32.32C76.7358 30.444 76.7918 28.568 76.8198 26.748H73.0678C73.1798 30.696 73.1798 34.952 73.1518 37.836C72.4798 38.144 71.6678 38.368 70.6598 38.368C68.8118 38.368 67.8598 37.584 67.8598 35.54V31.508C67.8598 29.912 67.8318 28.288 67.9158 26.748H64.1638C64.1918 27.504 64.1918 30.192 64.1918 31.564V36.268C64.1918 39.46 65.7038 41.336 68.7558 41.336C70.8278 41.336 72.3118 40.468 73.2918 39.46C73.3758 39.964 73.4318 40.496 73.4878 41H76.9038ZM94.0217 41C93.7417 39.6 93.7417 38.116 93.7417 36.688V27C93.7417 25.068 93.7697 23.024 93.7697 21.148H90.0737C90.1017 22.856 90.1297 24.844 90.1297 26.888C89.4017 26.608 88.5057 26.412 87.4137 26.412C83.5217 26.412 80.3577 29.268 80.3577 34.252C80.3577 38.76 82.7377 41.336 86.0697 41.336C87.6937 41.336 89.1497 40.692 90.3537 39.6C90.4377 40.104 90.5777 40.58 90.7737 41H94.0217ZM87.4137 38.564C84.9497 38.564 83.9137 36.772 83.9137 33.972C83.9137 30.92 85.4817 29.352 88.2257 29.352C88.8697 29.352 89.5977 29.436 90.1577 29.576V32.852C90.1857 35.484 90.1857 37.5 90.1577 37.92V37.976C89.2617 38.34 88.2817 38.564 87.4137 38.564ZM104.56 41.336C108.76 41.336 111.784 38.844 111.784 33.72C111.784 28.456 108.536 26.44 104.784 26.44C100.444 26.44 97.4475 29.128 97.4475 33.972C97.4475 38.592 100.164 41.336 104.56 41.336ZM104.588 38.424C102.46 38.424 101.172 36.828 101.172 33.944C101.172 30.836 102.656 29.38 104.756 29.38C106.884 29.38 108.032 30.92 108.032 33.804C108.032 37.052 106.604 38.424 104.588 38.424ZM39.6861 62.412C37.7541 62.412 36.3821 63.336 35.5421 64.344C35.5421 63.812 35.5701 63.28 35.5701 62.748H31.8461L31.9301 68.096V75.684C31.9301 78.092 31.9021 80.528 31.8461 82.964H35.5701L35.4861 76.804C36.2981 77.112 37.2781 77.308 38.4821 77.308C42.2901 77.308 45.4821 74.984 45.4821 69.636C45.4821 64.904 43.1581 62.412 39.6861 62.412ZM37.8381 74.62C36.9141 74.62 35.9901 74.368 35.4861 74.2V72.94C35.4861 70.588 35.4861 68.236 35.5141 65.912C36.2141 65.604 37.1381 65.408 38.0341 65.408C40.3021 65.408 41.7301 66.752 41.7301 69.944C41.7301 73.192 40.2741 74.62 37.8381 74.62ZM52.7147 77C52.6587 75.628 52.6307 74.172 52.6307 72.408C52.6307 68.404 52.6027 65.772 56.5227 65.772C57.1107 65.772 57.8387 65.8 58.2307 65.856L58.2587 62.692C57.8387 62.552 57.1667 62.468 56.5507 62.468C54.7867 62.468 53.2187 63.476 52.5187 65.968H52.4627V62.748H48.9907C49.0187 64.036 49.0747 65.324 49.0747 66.612V72.996C49.0747 74.34 49.0467 75.684 48.9907 77H52.7147ZM66.6884 77.336C70.8884 77.336 73.9124 74.844 73.9124 69.72C73.9124 64.456 70.6644 62.44 66.9124 62.44C62.5724 62.44 59.5764 65.128 59.5764 69.972C59.5764 74.592 62.2924 77.336 66.6884 77.336ZM66.7164 74.424C64.5884 74.424 63.3004 72.828 63.3004 69.944C63.3004 66.836 64.7844 65.38 66.8844 65.38C69.0124 65.38 70.1604 66.92 70.1604 69.804C70.1604 73.052 68.7324 74.424 66.7164 74.424ZM90.4202 77C90.3922 76.244 90.3922 73.556 90.3922 72.184V67.48C90.3922 64.288 88.8802 62.412 85.8282 62.412C83.5602 62.412 82.0202 63.448 81.0402 64.568L81.0682 62.748H77.4282C77.4562 64.036 77.5122 65.324 77.5122 66.612V72.996C77.5122 74.34 77.4842 75.684 77.4282 77H81.1522C81.0682 73.08 81.0402 69.132 81.0682 66.108C81.7962 65.688 82.7202 65.38 83.9242 65.38C85.7722 65.38 86.7242 66.164 86.7242 68.208V72.24C86.7242 73.836 86.7522 75.46 86.6682 77H90.4202ZM100.054 77.14C101.594 77.14 102.854 76.72 103.47 76.44L103.162 73.78C102.686 74.06 101.958 74.312 101.258 74.312C99.5501 74.312 99.4941 73.36 99.4941 71.988V65.576H103.358L103.442 62.748H99.5781V58.968H97.3381L95.9661 62.748L92.8301 63.812V65.576H95.9381C95.9661 66.556 95.9661 67.648 95.9661 68.6C95.9661 69.86 95.8541 72.38 95.8541 73.584C95.8541 76.216 97.4781 77.14 100.054 77.14ZM112.954 77.336C117.154 77.336 120.178 74.844 120.178 69.72C120.178 64.456 116.93 62.44 113.178 62.44C108.838 62.44 105.842 65.128 105.842 69.972C105.842 74.592 108.558 77.336 112.954 77.336ZM112.982 74.424C110.854 74.424 109.566 72.828 109.566 69.944C109.566 66.836 111.05 65.38 113.15 65.38C115.278 65.38 116.426 66.92 116.426 69.804C116.426 73.052 114.998 74.424 112.982 74.424ZM127.25 71.26C127.614 66.556 128.006 62.58 128.09 57.092L123.862 57.148C123.946 62.608 124.366 66.556 124.674 71.26H127.25ZM125.85 77.308C127.278 77.308 128.146 76.244 128.146 74.956C128.146 73.64 127.194 72.856 125.99 72.856C124.702 72.856 123.694 73.724 123.694 75.152C123.694 76.496 124.59 77.308 125.85 77.308Z" fill="#42EC9A"></path><path d="M26.0001 101.5C51.8136 97.2642 100.139 92.615 133.5 97.4999" stroke="#FFFFFF" stroke-width="2px" stroke-linecap="round" fill="none"></path><path d="M21.5 12L28 25" stroke="#FFFFFF" stroke-width="2px" stroke-linecap="round" fill="none"></path><path d="M2 21L23.5 33" stroke="#FFFFFF" stroke-width="2px" stroke-linecap="round" fill="none"></path><path d="M6.5 42H19.5" stroke="#FFFFFF" stroke-width="2px" stroke-linecap="round" fill="none"></path><path d="M117 14.5L120.5 2.5" stroke="#FFFFFF" stroke-width="2px" stroke-linecap="round" fill="none"></path><path d="M125 22L143.5 3" stroke="#FFFFFF" stroke-width="2px" stroke-linecap="round" fill="none"></path><path d="M132.5 29L146 24" stroke="#FFFFFF" stroke-width="2px" stroke-linecap="round" fill="none"></path></svg>