<svg xmlns:xlink="http://www.w3.org/1999/xlink" width="24" height="24" viewBox="0 0 24 24" fill="none" xmlns="http://www.w3.org/2000/svg" class="fill-current"><path fill-rule="evenodd" clip-rule="evenodd" d="M11 9V5H13V9H11Z" fill="#20252A"></path><path fill-rule="evenodd" clip-rule="evenodd" d="M20 15V11H22V15H20Z" fill="#20252A"></path><path fill-rule="evenodd" clip-rule="evenodd" d="M14 15V11H16V15H14Z" fill="#20252A"></path><path fill-rule="evenodd" clip-rule="evenodd" d="M20 22V17H22V22H20Z" fill="#20252A"></path><path fill-rule="evenodd" clip-rule="evenodd" d="M22 19H15V17H22V19Z" fill="#20252A"></path><path fill-rule="evenodd" clip-rule="evenodd" d="M11 22V17H13V22H11Z" fill="#20252A"></path><path fill-rule="evenodd" clip-rule="evenodd" d="M15 22V17H17V22H15Z" fill="#20252A"></path><path fill-rule="evenodd" clip-rule="evenodd" d="M16 13H11V11H16V13Z" fill="#20252A"></path><path fill-rule="evenodd" clip-rule="evenodd" d="M22 15H17.7144V13L22.0001 13L22 15Z" fill="#20252A"></path><path fill-rule="evenodd" clip-rule="evenodd" d="M9 13H2V11H9V13Z" fill="#20252A"></path><path fill-rule="evenodd" clip-rule="evenodd" d="M4 7.14286H7.14286V4H4V7.14286ZM9.14286 9.14286V2H2V9.14286H9.14286Z" fill="#20252A"></path><path fill-rule="evenodd" clip-rule="evenodd" d="M4 20H7.14286V16.8571H4V20ZM9.14286 22V14.8571H2V22H9.14286Z" fill="#20252A"></path><path fill-rule="evenodd" clip-rule="evenodd" d="M16.8571 7.14286H20V4H16.8571V7.14286ZM22 9.14286V2H14.8571V9.14286H22Z" fill="#20252A"></path></svg>