<svg xmlns:xlink="http://www.w3.org/1999/xlink" width="85" height="23" fill="none" xmlns="http://www.w3.org/2000/svg"><path d="M1.407 20.123c-.396-.207-.702-.652-.702-1.245 0-.8.641-1.452 1.495-1.452.306 0 .58.089.794.208 1.556 1.007 3.173 1.511 4.638 1.511 1.586 0 2.501-.652 2.501-1.69v-.059c0-1.215-1.708-1.63-3.6-2.193-2.38-.652-5.034-1.6-5.034-4.594v-.059c0-2.964 2.532-4.772 5.736-4.772 1.708 0 3.509.474 5.065 1.275.518.266.885.74.885 1.363 0 .83-.672 1.452-1.526 1.452-.305 0-.488-.059-.732-.178-1.312-.652-2.655-1.066-3.784-1.066-1.434 0-2.258.652-2.258 1.54v.06c0 1.156 1.74 1.63 3.631 2.223 2.35.711 5.004 1.748 5.004 4.564v.06c0 3.289-2.624 4.92-5.98 4.92-2.044 0-4.272-.623-6.133-1.868Z" fill="#FFFFFF"></path><path fill-rule="evenodd" clip-rule="evenodd" d="M22.466 13.9v.058c0 4.446 3.631 8.092 8.543 8.092 4.974 0 8.635-3.705 8.635-8.15v-.06c0-4.476-3.63-8.121-8.573-8.121-4.943 0-8.605 3.705-8.605 8.18Zm13.486 0v.058c0 2.697-1.891 4.95-4.881 4.95-2.869 0-4.913-2.282-4.913-5.009v-.06c0-2.726 1.892-4.978 4.851-4.978 2.9 0 4.943 2.282 4.943 5.038Z" fill="#FFFFFF"></path><path d="M44.006 20.049v-7.541c0-1.765 1.331-3.314 3.137-3.507 2.135-.229 3.942 1.389 3.942 3.416v7.632c0 .99.827 1.793 1.846 1.793 1.02 0 1.846-.803 1.846-1.793v-7.275c0-3.88-3.238-7.024-7.231-7.024-3.994 0-7.232 3.145-7.232 7.024v7.275c0 .99.827 1.793 1.846 1.793 1.02 0 1.846-.803 1.846-1.793ZM21.43 9.305c.927 0 1.678-.73 1.678-1.63 0-.9-.752-1.63-1.678-1.63h-2.838V3.392c0-.99-.826-1.793-1.846-1.793S14.9 2.402 14.9 3.392v13.203h.01c.093 2.881 2.376 5.234 5.51 5.434.082.012.166.02.252.02h.72c.948 0 1.716-.746 1.716-1.666 0-.92-.768-1.667-1.716-1.667h-.501c-1.315 0-2.257-1.024-2.299-2.264V9.305h2.838ZM61.651 13.609c0 .85.71 1.54 1.587 1.54H69.265c.877 0 1.587-.69 1.587-1.54 0-4.476-3.076-7.89-7.35-7.89-4.862 0-8.192 3.705-8.192 8.18v.06c0 4.445 3.571 8.09 8.402 8.09 2.078 0 3.923-.67 5.357-1.78a1.598 1.598 0 0 0 .075-2.495 1.714 1.714 0 0 0-2.23.017c-.803.696-1.871 1.117-3.142 1.117-2.82 0-4.831-2.282-4.831-5.009v-.06c0-2.726 1.59-4.978 4.5-4.978 1.923 0 3.274 1.34 3.802 3.207h-4.005c-.877 0-1.587.69-1.587 1.54Z" fill="#FFFFFF"></path><path fill-rule="evenodd" clip-rule="evenodd" d="M75.418 3.465v.025c0 1.882 1.537 3.426 3.618 3.426 2.106 0 3.657-1.569 3.657-3.451v-.026C82.693 1.544 81.155 0 79.062 0c-2.094 0-3.644 1.57-3.644 3.465Zm5.711 0v.025c0 1.142-.801 2.096-2.067 2.096-1.215 0-2.08-.967-2.08-2.121v-.026c0-1.154.8-2.108 2.054-2.108 1.227 0 2.093.966 2.093 2.134Z" fill="#FFFFFF"></path><path d="M69.18 3.477v-.019c0-1.9 1.472-3.458 3.582-3.458 1.03 0 1.727.267 2.296.678a.73.73 0 0 1 .294.583c0 .401-.334.717-.746.717a.808.808 0 0 1-.45-.144c-.423-.305-.864-.478-1.404-.478-1.158 0-1.992.937-1.992 2.083v.02c0 1.145.814 2.1 1.992 2.1.638 0 1.06-.19 1.492-.525a.717.717 0 0 1 .45-.162c.383 0 .707.306.707.678 0 .23-.117.411-.255.526-.618.525-1.344.84-2.443.84-2.022 0-3.523-1.519-3.523-3.439ZM84.037 6.021a.783.783 0 0 1-.794.773.783.783 0 0 1-.793-.773c0-.426.355-.772.793-.772.438 0 .794.346.794.772Z" fill="#FFFFFF"></path></svg>