<svg xmlns:xlink="http://www.w3.org/1999/xlink" height="136" width="136" xmlns="http://www.w3.org/2000/svg"><path d="M 0 0 L 5 0 L 5 5 L 0 5 Z" fill="#000000" transform="matrix(1,0,0,1,0,0)"></path><path d="M 0 0 L 6 0 L 6 5 L 0 5 Z" fill="#000000" transform="matrix(1,0,0,1,5,0)"></path><path d="M 0 0 L 5 0 L 5 5 L 0 5 Z" fill="#000000" transform="matrix(1,0,0,1,11,0)"></path><path d="M 0 0 L 6 0 L 6 5 L 0 5 Z" fill="#000000" transform="matrix(1,0,0,1,16,0)"></path><path d="M 0 0 L 5 0 L 5 5 L 0 5 Z" fill="#000000" transform="matrix(1,0,0,1,22,0)"></path><path d="M 0 0 L 6 0 L 6 5 L 0 5 Z" fill="#000000" transform="matrix(1,0,0,1,27,0)"></path><path d="M 0 0 L 5 0 L 5 5 L 0 5 Z" fill="#000000" transform="matrix(1,0,0,1,33,0)"></path><path d="M 0 0 L 6 0 L 6 5 L 0 5 Z" fill="#FFFFFF" transform="matrix(1,0,0,1,38,0)"></path><path d="M 0 0 L 5 0 L 5 5 L 0 5 Z" fill="#000000" transform="matrix(1,0,0,1,44,0)"></path><path d="M 0 0 L 5 0 L 5 5 L 0 5 Z" fill="#FFFFFF" transform="matrix(1,0,0,1,49,0)"></path><path d="M 0 0 L 6 0 L 6 5 L 0 5 Z" fill="#FFFFFF" transform="matrix(1,0,0,1,54,0)"></path><path d="M 0 0 L 5 0 L 5 5 L 0 5 Z" fill="#000000" transform="matrix(1,0,0,1,60,0)"></path><path d="M 0 0 L 6 0 L 6 5 L 0 5 Z" fill="#FFFFFF" transform="matrix(1,0,0,1,65,0)"></path><path d="M 0 0 L 5 0 L 5 5 L 0 5 Z" fill="#FFFFFF" transform="matrix(1,0,0,1,71,0)"></path><path d="M 0 0 L 6 0 L 6 5 L 0 5 Z" fill="#000000" transform="matrix(1,0,0,1,76,0)"></path><path d="M 0 0 L 5 0 L 5 5 L 0 5 Z" fill="#FFFFFF" transform="matrix(1,0,0,1,82,0)"></path><path d="M 0 0 L 5 0 L 5 5 L 0 5 Z" fill="#000000" transform="matrix(1,0,0,1,87,0)"></path><path d="M 0 0 L 6 0 L 6 5 L 0 5 Z" fill="#FFFFFF" transform="matrix(1,0,0,1,92,0)"></path><path d="M 0 0 L 5 0 L 5 5 L 0 5 Z" fill="#000000" transform="matrix(1,0,0,1,98,0)"></path><path d="M 0 0 L 6 0 L 6 5 L 0 5 Z" fill="#000000" transform="matrix(1,0,0,1,103,0)"></path><path d="M 0 0 L 5 0 L 5 5 L 0 5 Z" fill="#000000" transform="matrix(1,0,0,1,109,0)"></path><path d="M 0 0 L 6 0 L 6 5 L 0 5 Z" fill="#000000" transform="matrix(1,0,0,1,114,0)"></path><path d="M 0 0 L 5 0 L 5 5 L 0 5 Z" fill="#000000" transform="matrix(1,0,0,1,120,0)"></path><path d="M 0 0 L 6 0 L 6 5 L 0 5 Z" fill="#000000" transform="matrix(1,0,0,1,125,0)"></path><path d="M 0 0 L 5 0 L 5 5 L 0 5 Z" fill="#000000" transform="matrix(1,0,0,1,131,0)"></path><path d="M 0 0 L 5 0 L 5 6 L 0 6 Z" fill="#000000" transform="matrix(1,0,0,1,0,5)"></path><path d="M 0 0 L 6 0 L 6 6 L 0 6 Z" fill="#FFFFFF" transform="matrix(1,0,0,1,5,5)"></path><path d="M 0 0 L 5 0 L 5 6 L 0 6 Z" fill="#FFFFFF" transform="matrix(1,0,0,1,11,5)"></path><path d="M 0 0 L 6 0 L 6 6 L 0 6 Z" fill="#FFFFFF" transform="matrix(1,0,0,1,16,5)"></path><path d="M 0 0 L 5 0 L 5 6 L 0 6 Z" fill="#FFFFFF" transform="matrix(1,0,0,1,22,5)"></path><path d="M 0 0 L 6 0 L 6 6 L 0 6 Z" fill="#FFFFFF" transform="matrix(1,0,0,1,27,5)"></path><path d="M 0 0 L 5 0 L 5 6 L 0 6 Z" fill="#000000" transform="matrix(1,0,0,1,33,5)"></path><path d="M 0 0 L 6 0 L 6 6 L 0 6 Z" fill="#FFFFFF" transform="matrix(1,0,0,1,38,5)"></path><path d="M 0 0 L 5 0 L 5 6 L 0 6 Z" fill="#FFFFFF" transform="matrix(1,0,0,1,44,5)"></path><path d="M 0 0 L 5 0 L 5 6 L 0 6 Z" fill="#FFFFFF" transform="matrix(1,0,0,1,49,5)"></path><path d="M 0 0 L 6 0 L 6 6 L 0 6 Z" fill="#000000" transform="matrix(1,0,0,1,54,5)"></path><path d="M 0 0 L 5 0 L 5 6 L 0 6 Z" fill="#000000" transform="matrix(1,0,0,1,60,5)"></path><path d="M 0 0 L 6 0 L 6 6 L 0 6 Z" fill="#FFFFFF" transform="matrix(1,0,0,1,65,5)"></path><path d="M 0 0 L 5 0 L 5 6 L 0 6 Z" fill="#FFFFFF" transform="matrix(1,0,0,1,71,5)"></path><path d="M 0 0 L 6 0 L 6 6 L 0 6 Z" fill="#FFFFFF" transform="matrix(1,0,0,1,76,5)"></path><path d="M 0 0 L 5 0 L 5 6 L 0 6 Z" fill="#FFFFFF" transform="matrix(1,0,0,1,82,5)"></path><path d="M 0 0 L 5 0 L 5 6 L 0 6 Z" fill="#000000" transform="matrix(1,0,0,1,87,5)"></path><path d="M 0 0 L 6 0 L 6 6 L 0 6 Z" fill="#FFFFFF" transform="matrix(1,0,0,1,92,5)"></path><path d="M 0 0 L 5 0 L 5 6 L 0 6 Z" fill="#000000" transform="matrix(1,0,0,1,98,5)"></path><path d="M 0 0 L 6 0 L 6 6 L 0 6 Z" fill="#FFFFFF" transform="matrix(1,0,0,1,103,5)"></path><path d="M 0 0 L 5 0 L 5 6 L 0 6 Z" fill="#FFFFFF" transform="matrix(1,0,0,1,109,5)"></path><path d="M 0 0 L 6 0 L 6 6 L 0 6 Z" fill="#FFFFFF" transform="matrix(1,0,0,1,114,5)"></path><path d="M 0 0 L 5 0 L 5 6 L 0 6 Z" fill="#FFFFFF" transform="matrix(1,0,0,1,120,5)"></path><path d="M 0 0 L 6 0 L 6 6 L 0 6 Z" fill="#FFFFFF" transform="matrix(1,0,0,1,125,5)"></path><path d="M 0 0 L 5 0 L 5 6 L 0 6 Z" fill="#000000" transform="matrix(1,0,0,1,131,5)"></path><path d="M 0 0 L 5 0 L 5 5 L 0 5 Z" fill="#000000" transform="matrix(1,0,0,1,0,11)"></path><path d="M 0 0 L 6 0 L 6 5 L 0 5 Z" fill="#FFFFFF" transform="matrix(1,0,0,1,5,11)"></path><path d="M 0 0 L 5 0 L 5 5 L 0 5 Z" fill="#000000" transform="matrix(1,0,0,1,11,11)"></path><path d="M 0 0 L 6 0 L 6 5 L 0 5 Z" fill="#000000" transform="matrix(1,0,0,1,16,11)"></path><path d="M 0 0 L 5 0 L 5 5 L 0 5 Z" fill="#000000" transform="matrix(1,0,0,1,22,11)"></path><path d="M 0 0 L 6 0 L 6 5 L 0 5 Z" fill="#FFFFFF" transform="matrix(1,0,0,1,27,11)"></path><path d="M 0 0 L 5 0 L 5 5 L 0 5 Z" fill="#000000" transform="matrix(1,0,0,1,33,11)"></path><path d="M 0 0 L 6 0 L 6 5 L 0 5 Z" fill="#FFFFFF" transform="matrix(1,0,0,1,38,11)"></path><path d="M 0 0 L 5 0 L 5 5 L 0 5 Z" fill="#000000" transform="matrix(1,0,0,1,44,11)"></path><path d="M 0 0 L 5 0 L 5 5 L 0 5 Z" fill="#FFFFFF" transform="matrix(1,0,0,1,49,11)"></path><path d="M 0 0 L 6 0 L 6 5 L 0 5 Z" fill="#FFFFFF" transform="matrix(1,0,0,1,54,11)"></path><path d="M 0 0 L 5 0 L 5 5 L 0 5 Z" fill="#000000" transform="matrix(1,0,0,1,60,11)"></path><path d="M 0 0 L 6 0 L 6 5 L 0 5 Z" fill="#FFFFFF" transform="matrix(1,0,0,1,65,11)"></path><path d="M 0 0 L 5 0 L 5 5 L 0 5 Z" fill="#000000" transform="matrix(1,0,0,1,71,11)"></path><path d="M 0 0 L 6 0 L 6 5 L 0 5 Z" fill="#FFFFFF" transform="matrix(1,0,0,1,76,11)"></path><path d="M 0 0 L 5 0 L 5 5 L 0 5 Z" fill="#000000" transform="matrix(1,0,0,1,82,11)"></path><path d="M 0 0 L 5 0 L 5 5 L 0 5 Z" fill="#000000" transform="matrix(1,0,0,1,87,11)"></path><path d="M 0 0 L 6 0 L 6 5 L 0 5 Z" fill="#FFFFFF" transform="matrix(1,0,0,1,92,11)"></path><path d="M 0 0 L 5 0 L 5 5 L 0 5 Z" fill="#000000" transform="matrix(1,0,0,1,98,11)"></path><path d="M 0 0 L 6 0 L 6 5 L 0 5 Z" fill="#FFFFFF" transform="matrix(1,0,0,1,103,11)"></path><path d="M 0 0 L 5 0 L 5 5 L 0 5 Z" fill="#000000" transform="matrix(1,0,0,1,109,11)"></path><path d="M 0 0 L 6 0 L 6 5 L 0 5 Z" fill="#000000" transform="matrix(1,0,0,1,114,11)"></path><path d="M 0 0 L 5 0 L 5 5 L 0 5 Z" fill="#000000" transform="matrix(1,0,0,1,120,11)"></path><path d="M 0 0 L 6 0 L 6 5 L 0 5 Z" fill="#FFFFFF" transform="matrix(1,0,0,1,125,11)"></path><path d="M 0 0 L 5 0 L 5 5 L 0 5 Z" fill="#000000" transform="matrix(1,0,0,1,131,11)"></path><path d="M 0 0 L 5 0 L 5 6 L 0 6 Z" fill="#000000" transform="matrix(1,0,0,1,0,16)"></path><path d="M 0 0 L 6 0 L 6 6 L 0 6 Z" fill="#FFFFFF" transform="matrix(1,0,0,1,5,16)"></path><path d="M 0 0 L 5 0 L 5 6 L 0 6 Z" fill="#000000" transform="matrix(1,0,0,1,11,16)"></path><path d="M 0 0 L 6 0 L 6 6 L 0 6 Z" fill="#000000" transform="matrix(1,0,0,1,16,16)"></path><path d="M 0 0 L 5 0 L 5 6 L 0 6 Z" fill="#000000" transform="matrix(1,0,0,1,22,16)"></path><path d="M 0 0 L 6 0 L 6 6 L 0 6 Z" fill="#FFFFFF" transform="matrix(1,0,0,1,27,16)"></path><path d="M 0 0 L 5 0 L 5 6 L 0 6 Z" fill="#000000" transform="matrix(1,0,0,1,33,16)"></path><path d="M 0 0 L 6 0 L 6 6 L 0 6 Z" fill="#FFFFFF" transform="matrix(1,0,0,1,38,16)"></path><path d="M 0 0 L 5 0 L 5 6 L 0 6 Z" fill="#000000" transform="matrix(1,0,0,1,44,16)"></path><path d="M 0 0 L 5 0 L 5 6 L 0 6 Z" fill="#000000" transform="matrix(1,0,0,1,49,16)"></path><path d="M 0 0 L 6 0 L 6 6 L 0 6 Z" fill="#FFFFFF" transform="matrix(1,0,0,1,54,16)"></path><path d="M 0 0 L 5 0 L 5 6 L 0 6 Z" fill="#FFFFFF" transform="matrix(1,0,0,1,60,16)"></path><path d="M 0 0 L 6 0 L 6 6 L 0 6 Z" fill="#FFFFFF" transform="matrix(1,0,0,1,65,16)"></path><path d="M 0 0 L 5 0 L 5 6 L 0 6 Z" fill="#000000" transform="matrix(1,0,0,1,71,16)"></path><path d="M 0 0 L 6 0 L 6 6 L 0 6 Z" fill="#FFFFFF" transform="matrix(1,0,0,1,76,16)"></path><path d="M 0 0 L 5 0 L 5 6 L 0 6 Z" fill="#000000" transform="matrix(1,0,0,1,82,16)"></path><path d="M 0 0 L 5 0 L 5 6 L 0 6 Z" fill="#000000" transform="matrix(1,0,0,1,87,16)"></path><path d="M 0 0 L 6 0 L 6 6 L 0 6 Z" fill="#FFFFFF" transform="matrix(1,0,0,1,92,16)"></path><path d="M 0 0 L 5 0 L 5 6 L 0 6 Z" fill="#000000" transform="matrix(1,0,0,1,98,16)"></path><path d="M 0 0 L 6 0 L 6 6 L 0 6 Z" fill="#FFFFFF" transform="matrix(1,0,0,1,103,16)"></path><path d="M 0 0 L 5 0 L 5 6 L 0 6 Z" fill="#000000" transform="matrix(1,0,0,1,109,16)"></path><path d="M 0 0 L 6 0 L 6 6 L 0 6 Z" fill="#000000" transform="matrix(1,0,0,1,114,16)"></path><path d="M 0 0 L 5 0 L 5 6 L 0 6 Z" fill="#000000" transform="matrix(1,0,0,1,120,16)"></path><path d="M 0 0 L 6 0 L 6 6 L 0 6 Z" fill="#FFFFFF" transform="matrix(1,0,0,1,125,16)"></path><path d="M 0 0 L 5 0 L 5 6 L 0 6 Z" fill="#000000" transform="matrix(1,0,0,1,131,16)"></path><path d="M 0 0 L 5 0 L 5 5 L 0 5 Z" fill="#000000" transform="matrix(1,0,0,1,0,22)"></path><path d="M 0 0 L 6 0 L 6 5 L 0 5 Z" fill="#FFFFFF" transform="matrix(1,0,0,1,5,22)"></path><path d="M 0 0 L 5 0 L 5 5 L 0 5 Z" fill="#000000" transform="matrix(1,0,0,1,11,22)"></path><path d="M 0 0 L 6 0 L 6 5 L 0 5 Z" fill="#000000" transform="matrix(1,0,0,1,16,22)"></path><path d="M 0 0 L 5 0 L 5 5 L 0 5 Z" fill="#000000" transform="matrix(1,0,0,1,22,22)"></path><path d="M 0 0 L 6 0 L 6 5 L 0 5 Z" fill="#FFFFFF" transform="matrix(1,0,0,1,27,22)"></path><path d="M 0 0 L 5 0 L 5 5 L 0 5 Z" fill="#000000" transform="matrix(1,0,0,1,33,22)"></path><path d="M 0 0 L 6 0 L 6 5 L 0 5 Z" fill="#FFFFFF" transform="matrix(1,0,0,1,38,22)"></path><path d="M 0 0 L 5 0 L 5 5 L 0 5 Z" fill="#000000" transform="matrix(1,0,0,1,44,22)"></path><path d="M 0 0 L 5 0 L 5 5 L 0 5 Z" fill="#000000" transform="matrix(1,0,0,1,49,22)"></path><path d="M 0 0 L 6 0 L 6 5 L 0 5 Z" fill="#FFFFFF" transform="matrix(1,0,0,1,54,22)"></path><path d="M 0 0 L 5 0 L 5 5 L 0 5 Z" fill="#FFFFFF" transform="matrix(1,0,0,1,60,22)"></path><path d="M 0 0 L 6 0 L 6 5 L 0 5 Z" fill="#FFFFFF" transform="matrix(1,0,0,1,65,22)"></path><path d="M 0 0 L 5 0 L 5 5 L 0 5 Z" fill="#000000" transform="matrix(1,0,0,1,71,22)"></path><path d="M 0 0 L 6 0 L 6 5 L 0 5 Z" fill="#000000" transform="matrix(1,0,0,1,76,22)"></path><path d="M 0 0 L 5 0 L 5 5 L 0 5 Z" fill="#000000" transform="matrix(1,0,0,1,82,22)"></path><path d="M 0 0 L 5 0 L 5 5 L 0 5 Z" fill="#000000" transform="matrix(1,0,0,1,87,22)"></path><path d="M 0 0 L 6 0 L 6 5 L 0 5 Z" fill="#FFFFFF" transform="matrix(1,0,0,1,92,22)"></path><path d="M 0 0 L 5 0 L 5 5 L 0 5 Z" fill="#000000" transform="matrix(1,0,0,1,98,22)"></path><path d="M 0 0 L 6 0 L 6 5 L 0 5 Z" fill="#FFFFFF" transform="matrix(1,0,0,1,103,22)"></path><path d="M 0 0 L 5 0 L 5 5 L 0 5 Z" fill="#000000" transform="matrix(1,0,0,1,109,22)"></path><path d="M 0 0 L 6 0 L 6 5 L 0 5 Z" fill="#000000" transform="matrix(1,0,0,1,114,22)"></path><path d="M 0 0 L 5 0 L 5 5 L 0 5 Z" fill="#000000" transform="matrix(1,0,0,1,120,22)"></path><path d="M 0 0 L 6 0 L 6 5 L 0 5 Z" fill="#FFFFFF" transform="matrix(1,0,0,1,125,22)"></path><path d="M 0 0 L 5 0 L 5 5 L 0 5 Z" fill="#000000" transform="matrix(1,0,0,1,131,22)"></path><path d="M 0 0 L 5 0 L 5 6 L 0 6 Z" fill="#000000" transform="matrix(1,0,0,1,0,27)"></path><path d="M 0 0 L 6 0 L 6 6 L 0 6 Z" fill="#FFFFFF" transform="matrix(1,0,0,1,5,27)"></path><path d="M 0 0 L 5 0 L 5 6 L 0 6 Z" fill="#FFFFFF" transform="matrix(1,0,0,1,11,27)"></path><path d="M 0 0 L 6 0 L 6 6 L 0 6 Z" fill="#FFFFFF" transform="matrix(1,0,0,1,16,27)"></path><path d="M 0 0 L 5 0 L 5 6 L 0 6 Z" fill="#FFFFFF" transform="matrix(1,0,0,1,22,27)"></path><path d="M 0 0 L 6 0 L 6 6 L 0 6 Z" fill="#FFFFFF" transform="matrix(1,0,0,1,27,27)"></path><path d="M 0 0 L 5 0 L 5 6 L 0 6 Z" fill="#000000" transform="matrix(1,0,0,1,33,27)"></path><path d="M 0 0 L 6 0 L 6 6 L 0 6 Z" fill="#FFFFFF" transform="matrix(1,0,0,1,38,27)"></path><path d="M 0 0 L 5 0 L 5 6 L 0 6 Z" fill="#FFFFFF" transform="matrix(1,0,0,1,44,27)"></path><path d="M 0 0 L 5 0 L 5 6 L 0 6 Z" fill="#000000" transform="matrix(1,0,0,1,49,27)"></path><path d="M 0 0 L 6 0 L 6 6 L 0 6 Z" fill="#FFFFFF" transform="matrix(1,0,0,1,54,27)"></path><path d="M 0 0 L 5 0 L 5 6 L 0 6 Z" fill="#FFFFFF" transform="matrix(1,0,0,1,60,27)"></path><path d="M 0 0 L 6 0 L 6 6 L 0 6 Z" fill="#FFFFFF" transform="matrix(1,0,0,1,65,27)"></path><path d="M 0 0 L 5 0 L 5 6 L 0 6 Z" fill="#FFFFFF" transform="matrix(1,0,0,1,71,27)"></path><path d="M 0 0 L 6 0 L 6 6 L 0 6 Z" fill="#000000" transform="matrix(1,0,0,1,76,27)"></path><path d="M 0 0 L 5 0 L 5 6 L 0 6 Z" fill="#FFFFFF" transform="matrix(1,0,0,1,82,27)"></path><path d="M 0 0 L 5 0 L 5 6 L 0 6 Z" fill="#FFFFFF" transform="matrix(1,0,0,1,87,27)"></path><path d="M 0 0 L 6 0 L 6 6 L 0 6 Z" fill="#FFFFFF" transform="matrix(1,0,0,1,92,27)"></path><path d="M 0 0 L 5 0 L 5 6 L 0 6 Z" fill="#000000" transform="matrix(1,0,0,1,98,27)"></path><path d="M 0 0 L 6 0 L 6 6 L 0 6 Z" fill="#FFFFFF" transform="matrix(1,0,0,1,103,27)"></path><path d="M 0 0 L 5 0 L 5 6 L 0 6 Z" fill="#FFFFFF" transform="matrix(1,0,0,1,109,27)"></path><path d="M 0 0 L 6 0 L 6 6 L 0 6 Z" fill="#FFFFFF" transform="matrix(1,0,0,1,114,27)"></path><path d="M 0 0 L 5 0 L 5 6 L 0 6 Z" fill="#FFFFFF" transform="matrix(1,0,0,1,120,27)"></path><path d="M 0 0 L 6 0 L 6 6 L 0 6 Z" fill="#FFFFFF" transform="matrix(1,0,0,1,125,27)"></path><path d="M 0 0 L 5 0 L 5 6 L 0 6 Z" fill="#000000" transform="matrix(1,0,0,1,131,27)"></path><path d="M 0 0 L 5 0 L 5 5 L 0 5 Z" fill="#000000" transform="matrix(1,0,0,1,0,33)"></path><path d="M 0 0 L 6 0 L 6 5 L 0 5 Z" fill="#000000" transform="matrix(1,0,0,1,5,33)"></path><path d="M 0 0 L 5 0 L 5 5 L 0 5 Z" fill="#000000" transform="matrix(1,0,0,1,11,33)"></path><path d="M 0 0 L 6 0 L 6 5 L 0 5 Z" fill="#000000" transform="matrix(1,0,0,1,16,33)"></path><path d="M 0 0 L 5 0 L 5 5 L 0 5 Z" fill="#000000" transform="matrix(1,0,0,1,22,33)"></path><path d="M 0 0 L 6 0 L 6 5 L 0 5 Z" fill="#000000" transform="matrix(1,0,0,1,27,33)"></path><path d="M 0 0 L 5 0 L 5 5 L 0 5 Z" fill="#000000" transform="matrix(1,0,0,1,33,33)"></path><path d="M 0 0 L 6 0 L 6 5 L 0 5 Z" fill="#FFFFFF" transform="matrix(1,0,0,1,38,33)"></path><path d="M 0 0 L 5 0 L 5 5 L 0 5 Z" fill="#000000" transform="matrix(1,0,0,1,44,33)"></path><path d="M 0 0 L 5 0 L 5 5 L 0 5 Z" fill="#FFFFFF" transform="matrix(1,0,0,1,49,33)"></path><path d="M 0 0 L 6 0 L 6 5 L 0 5 Z" fill="#000000" transform="matrix(1,0,0,1,54,33)"></path><path d="M 0 0 L 5 0 L 5 5 L 0 5 Z" fill="#FFFFFF" transform="matrix(1,0,0,1,60,33)"></path><path d="M 0 0 L 6 0 L 6 5 L 0 5 Z" fill="#000000" transform="matrix(1,0,0,1,65,33)"></path><path d="M 0 0 L 5 0 L 5 5 L 0 5 Z" fill="#FFFFFF" transform="matrix(1,0,0,1,71,33)"></path><path d="M 0 0 L 6 0 L 6 5 L 0 5 Z" fill="#000000" transform="matrix(1,0,0,1,76,33)"></path><path d="M 0 0 L 5 0 L 5 5 L 0 5 Z" fill="#FFFFFF" transform="matrix(1,0,0,1,82,33)"></path><path d="M 0 0 L 5 0 L 5 5 L 0 5 Z" fill="#000000" transform="matrix(1,0,0,1,87,33)"></path><path d="M 0 0 L 6 0 L 6 5 L 0 5 Z" fill="#FFFFFF" transform="matrix(1,0,0,1,92,33)"></path><path d="M 0 0 L 5 0 L 5 5 L 0 5 Z" fill="#000000" transform="matrix(1,0,0,1,98,33)"></path><path d="M 0 0 L 6 0 L 6 5 L 0 5 Z" fill="#000000" transform="matrix(1,0,0,1,103,33)"></path><path d="M 0 0 L 5 0 L 5 5 L 0 5 Z" fill="#000000" transform="matrix(1,0,0,1,109,33)"></path><path d="M 0 0 L 6 0 L 6 5 L 0 5 Z" fill="#000000" transform="matrix(1,0,0,1,114,33)"></path><path d="M 0 0 L 5 0 L 5 5 L 0 5 Z" fill="#000000" transform="matrix(1,0,0,1,120,33)"></path><path d="M 0 0 L 6 0 L 6 5 L 0 5 Z" fill="#000000" transform="matrix(1,0,0,1,125,33)"></path><path d="M 0 0 L 5 0 L 5 5 L 0 5 Z" fill="#000000" transform="matrix(1,0,0,1,131,33)"></path><path d="M 0 0 L 5 0 L 5 6 L 0 6 Z" fill="#FFFFFF" transform="matrix(1,0,0,1,0,38)"></path><path d="M 0 0 L 6 0 L 6 6 L 0 6 Z" fill="#FFFFFF" transform="matrix(1,0,0,1,5,38)"></path><path d="M 0 0 L 5 0 L 5 6 L 0 6 Z" fill="#FFFFFF" transform="matrix(1,0,0,1,11,38)"></path><path d="M 0 0 L 6 0 L 6 6 L 0 6 Z" fill="#FFFFFF" transform="matrix(1,0,0,1,16,38)"></path><path d="M 0 0 L 5 0 L 5 6 L 0 6 Z" fill="#FFFFFF" transform="matrix(1,0,0,1,22,38)"></path><path d="M 0 0 L 6 0 L 6 6 L 0 6 Z" fill="#FFFFFF" transform="matrix(1,0,0,1,27,38)"></path><path d="M 0 0 L 5 0 L 5 6 L 0 6 Z" fill="#FFFFFF" transform="matrix(1,0,0,1,33,38)"></path><path d="M 0 0 L 6 0 L 6 6 L 0 6 Z" fill="#FFFFFF" transform="matrix(1,0,0,1,38,38)"></path><path d="M 0 0 L 5 0 L 5 6 L 0 6 Z" fill="#FFFFFF" transform="matrix(1,0,0,1,44,38)"></path><path d="M 0 0 L 5 0 L 5 6 L 0 6 Z" fill="#000000" transform="matrix(1,0,0,1,49,38)"></path><path d="M 0 0 L 6 0 L 6 6 L 0 6 Z" fill="#FFFFFF" transform="matrix(1,0,0,1,54,38)"></path><path d="M 0 0 L 5 0 L 5 6 L 0 6 Z" fill="#000000" transform="matrix(1,0,0,1,60,38)"></path><path d="M 0 0 L 6 0 L 6 6 L 0 6 Z" fill="#FFFFFF" transform="matrix(1,0,0,1,65,38)"></path><path d="M 0 0 L 5 0 L 5 6 L 0 6 Z" fill="#FFFFFF" transform="matrix(1,0,0,1,71,38)"></path><path d="M 0 0 L 6 0 L 6 6 L 0 6 Z" fill="#000000" transform="matrix(1,0,0,1,76,38)"></path><path d="M 0 0 L 5 0 L 5 6 L 0 6 Z" fill="#FFFFFF" transform="matrix(1,0,0,1,82,38)"></path><path d="M 0 0 L 5 0 L 5 6 L 0 6 Z" fill="#000000" transform="matrix(1,0,0,1,87,38)"></path><path d="M 0 0 L 6 0 L 6 6 L 0 6 Z" fill="#FFFFFF" transform="matrix(1,0,0,1,92,38)"></path><path d="M 0 0 L 5 0 L 5 6 L 0 6 Z" fill="#FFFFFF" transform="matrix(1,0,0,1,98,38)"></path><path d="M 0 0 L 6 0 L 6 6 L 0 6 Z" fill="#FFFFFF" transform="matrix(1,0,0,1,103,38)"></path><path d="M 0 0 L 5 0 L 5 6 L 0 6 Z" fill="#FFFFFF" transform="matrix(1,0,0,1,109,38)"></path><path d="M 0 0 L 6 0 L 6 6 L 0 6 Z" fill="#FFFFFF" transform="matrix(1,0,0,1,114,38)"></path><path d="M 0 0 L 5 0 L 5 6 L 0 6 Z" fill="#FFFFFF" transform="matrix(1,0,0,1,120,38)"></path><path d="M 0 0 L 6 0 L 6 6 L 0 6 Z" fill="#FFFFFF" transform="matrix(1,0,0,1,125,38)"></path><path d="M 0 0 L 5 0 L 5 6 L 0 6 Z" fill="#FFFFFF" transform="matrix(1,0,0,1,131,38)"></path><path d="M 0 0 L 5 0 L 5 5 L 0 5 Z" fill="#000000" transform="matrix(1,0,0,1,0,44)"></path><path d="M 0 0 L 6 0 L 6 5 L 0 5 Z" fill="#000000" transform="matrix(1,0,0,1,5,44)"></path><path d="M 0 0 L 5 0 L 5 5 L 0 5 Z" fill="#000000" transform="matrix(1,0,0,1,11,44)"></path><path d="M 0 0 L 6 0 L 6 5 L 0 5 Z" fill="#000000" transform="matrix(1,0,0,1,16,44)"></path><path d="M 0 0 L 5 0 L 5 5 L 0 5 Z" fill="#FFFFFF" transform="matrix(1,0,0,1,22,44)"></path><path d="M 0 0 L 6 0 L 6 5 L 0 5 Z" fill="#FFFFFF" transform="matrix(1,0,0,1,27,44)"></path><path d="M 0 0 L 5 0 L 5 5 L 0 5 Z" fill="#000000" transform="matrix(1,0,0,1,33,44)"></path><path d="M 0 0 L 6 0 L 6 5 L 0 5 Z" fill="#FFFFFF" transform="matrix(1,0,0,1,38,44)"></path><path d="M 0 0 L 5 0 L 5 5 L 0 5 Z" fill="#000000" transform="matrix(1,0,0,1,44,44)"></path><path d="M 0 0 L 5 0 L 5 5 L 0 5 Z" fill="#FFFFFF" transform="matrix(1,0,0,1,49,44)"></path><path d="M 0 0 L 6 0 L 6 5 L 0 5 Z" fill="#FFFFFF" transform="matrix(1,0,0,1,54,44)"></path><path d="M 0 0 L 5 0 L 5 5 L 0 5 Z" fill="#000000" transform="matrix(1,0,0,1,60,44)"></path><path d="M 0 0 L 6 0 L 6 5 L 0 5 Z" fill="#000000" transform="matrix(1,0,0,1,65,44)"></path><path d="M 0 0 L 5 0 L 5 5 L 0 5 Z" fill="#FFFFFF" transform="matrix(1,0,0,1,71,44)"></path><path d="M 0 0 L 6 0 L 6 5 L 0 5 Z" fill="#000000" transform="matrix(1,0,0,1,76,44)"></path><path d="M 0 0 L 5 0 L 5 5 L 0 5 Z" fill="#FFFFFF" transform="matrix(1,0,0,1,82,44)"></path><path d="M 0 0 L 5 0 L 5 5 L 0 5 Z" fill="#FFFFFF" transform="matrix(1,0,0,1,87,44)"></path><path d="M 0 0 L 6 0 L 6 5 L 0 5 Z" fill="#000000" transform="matrix(1,0,0,1,92,44)"></path><path d="M 0 0 L 5 0 L 5 5 L 0 5 Z" fill="#FFFFFF" transform="matrix(1,0,0,1,98,44)"></path><path d="M 0 0 L 6 0 L 6 5 L 0 5 Z" fill="#FFFFFF" transform="matrix(1,0,0,1,103,44)"></path><path d="M 0 0 L 5 0 L 5 5 L 0 5 Z" fill="#000000" transform="matrix(1,0,0,1,109,44)"></path><path d="M 0 0 L 6 0 L 6 5 L 0 5 Z" fill="#000000" transform="matrix(1,0,0,1,114,44)"></path><path d="M 0 0 L 5 0 L 5 5 L 0 5 Z" fill="#000000" transform="matrix(1,0,0,1,120,44)"></path><path d="M 0 0 L 6 0 L 6 5 L 0 5 Z" fill="#FFFFFF" transform="matrix(1,0,0,1,125,44)"></path><path d="M 0 0 L 5 0 L 5 5 L 0 5 Z" fill="#000000" transform="matrix(1,0,0,1,131,44)"></path><path d="M 0 0 L 5 0 L 5 5 L 0 5 Z" fill="#FFFFFF" transform="matrix(1,0,0,1,0,49)"></path><path d="M 0 0 L 6 0 L 6 5 L 0 5 Z" fill="#000000" transform="matrix(1,0,0,1,5,49)"></path><path d="M 0 0 L 5 0 L 5 5 L 0 5 Z" fill="#000000" transform="matrix(1,0,0,1,11,49)"></path><path d="M 0 0 L 6 0 L 6 5 L 0 5 Z" fill="#FFFFFF" transform="matrix(1,0,0,1,16,49)"></path><path d="M 0 0 L 5 0 L 5 5 L 0 5 Z" fill="#000000" transform="matrix(1,0,0,1,22,49)"></path><path d="M 0 0 L 6 0 L 6 5 L 0 5 Z" fill="#FFFFFF" transform="matrix(1,0,0,1,27,49)"></path><path d="M 0 0 L 5 0 L 5 5 L 0 5 Z" fill="#FFFFFF" transform="matrix(1,0,0,1,33,49)"></path><path d="M 0 0 L 6 0 L 6 5 L 0 5 Z" fill="#FFFFFF" transform="matrix(1,0,0,1,38,49)"></path><path d="M 0 0 L 5 0 L 5 5 L 0 5 Z" fill="#FFFFFF" transform="matrix(1,0,0,1,44,49)"></path><path d="M 0 0 L 5 0 L 5 5 L 0 5 Z" fill="#000000" transform="matrix(1,0,0,1,49,49)"></path><path d="M 0 0 L 6 0 L 6 5 L 0 5 Z" fill="#FFFFFF" transform="matrix(1,0,0,1,54,49)"></path><path d="M 0 0 L 5 0 L 5 5 L 0 5 Z" fill="#000000" transform="matrix(1,0,0,1,60,49)"></path><path d="M 0 0 L 6 0 L 6 5 L 0 5 Z" fill="#FFFFFF" transform="matrix(1,0,0,1,65,49)"></path><path d="M 0 0 L 5 0 L 5 5 L 0 5 Z" fill="#FFFFFF" transform="matrix(1,0,0,1,71,49)"></path><path d="M 0 0 L 6 0 L 6 5 L 0 5 Z" fill="#FFFFFF" transform="matrix(1,0,0,1,76,49)"></path><path d="M 0 0 L 5 0 L 5 5 L 0 5 Z" fill="#FFFFFF" transform="matrix(1,0,0,1,82,49)"></path><path d="M 0 0 L 5 0 L 5 5 L 0 5 Z" fill="#000000" transform="matrix(1,0,0,1,87,49)"></path><path d="M 0 0 L 6 0 L 6 5 L 0 5 Z" fill="#000000" transform="matrix(1,0,0,1,92,49)"></path><path d="M 0 0 L 5 0 L 5 5 L 0 5 Z" fill="#FFFFFF" transform="matrix(1,0,0,1,98,49)"></path><path d="M 0 0 L 6 0 L 6 5 L 0 5 Z" fill="#000000" transform="matrix(1,0,0,1,103,49)"></path><path d="M 0 0 L 5 0 L 5 5 L 0 5 Z" fill="#FFFFFF" transform="matrix(1,0,0,1,109,49)"></path><path d="M 0 0 L 6 0 L 6 5 L 0 5 Z" fill="#FFFFFF" transform="matrix(1,0,0,1,114,49)"></path><path d="M 0 0 L 5 0 L 5 5 L 0 5 Z" fill="#FFFFFF" transform="matrix(1,0,0,1,120,49)"></path><path d="M 0 0 L 6 0 L 6 5 L 0 5 Z" fill="#000000" transform="matrix(1,0,0,1,125,49)"></path><path d="M 0 0 L 5 0 L 5 5 L 0 5 Z" fill="#FFFFFF" transform="matrix(1,0,0,1,131,49)"></path><path d="M 0 0 L 5 0 L 5 6 L 0 6 Z" fill="#FFFFFF" transform="matrix(1,0,0,1,0,54)"></path><path d="M 0 0 L 6 0 L 6 6 L 0 6 Z" fill="#000000" transform="matrix(1,0,0,1,5,54)"></path><path d="M 0 0 L 5 0 L 5 6 L 0 6 Z" fill="#FFFFFF" transform="matrix(1,0,0,1,11,54)"></path><path d="M 0 0 L 6 0 L 6 6 L 0 6 Z" fill="#000000" transform="matrix(1,0,0,1,16,54)"></path><path d="M 0 0 L 5 0 L 5 6 L 0 6 Z" fill="#000000" transform="matrix(1,0,0,1,22,54)"></path><path d="M 0 0 L 6 0 L 6 6 L 0 6 Z" fill="#FFFFFF" transform="matrix(1,0,0,1,27,54)"></path><path d="M 0 0 L 5 0 L 5 6 L 0 6 Z" fill="#000000" transform="matrix(1,0,0,1,33,54)"></path><path d="M 0 0 L 6 0 L 6 6 L 0 6 Z" fill="#000000" transform="matrix(1,0,0,1,38,54)"></path><path d="M 0 0 L 5 0 L 5 6 L 0 6 Z" fill="#FFFFFF" transform="matrix(1,0,0,1,44,54)"></path><path d="M 0 0 L 5 0 L 5 6 L 0 6 Z" fill="#FFFFFF" transform="matrix(1,0,0,1,49,54)"></path><path d="M 0 0 L 6 0 L 6 6 L 0 6 Z" fill="#FFFFFF" transform="matrix(1,0,0,1,54,54)"></path><path d="M 0 0 L 5 0 L 5 6 L 0 6 Z" fill="#000000" transform="matrix(1,0,0,1,60,54)"></path><path d="M 0 0 L 6 0 L 6 6 L 0 6 Z" fill="#FFFFFF" transform="matrix(1,0,0,1,65,54)"></path><path d="M 0 0 L 5 0 L 5 6 L 0 6 Z" fill="#000000" transform="matrix(1,0,0,1,71,54)"></path><path d="M 0 0 L 6 0 L 6 6 L 0 6 Z" fill="#000000" transform="matrix(1,0,0,1,76,54)"></path><path d="M 0 0 L 5 0 L 5 6 L 0 6 Z" fill="#FFFFFF" transform="matrix(1,0,0,1,82,54)"></path><path d="M 0 0 L 5 0 L 5 6 L 0 6 Z" fill="#FFFFFF" transform="matrix(1,0,0,1,87,54)"></path><path d="M 0 0 L 6 0 L 6 6 L 0 6 Z" fill="#000000" transform="matrix(1,0,0,1,92,54)"></path><path d="M 0 0 L 5 0 L 5 6 L 0 6 Z" fill="#FFFFFF" transform="matrix(1,0,0,1,98,54)"></path><path d="M 0 0 L 6 0 L 6 6 L 0 6 Z" fill="#000000" transform="matrix(1,0,0,1,103,54)"></path><path d="M 0 0 L 5 0 L 5 6 L 0 6 Z" fill="#000000" transform="matrix(1,0,0,1,109,54)"></path><path d="M 0 0 L 6 0 L 6 6 L 0 6 Z" fill="#FFFFFF" transform="matrix(1,0,0,1,114,54)"></path><path d="M 0 0 L 5 0 L 5 6 L 0 6 Z" fill="#FFFFFF" transform="matrix(1,0,0,1,120,54)"></path><path d="M 0 0 L 6 0 L 6 6 L 0 6 Z" fill="#FFFFFF" transform="matrix(1,0,0,1,125,54)"></path><path d="M 0 0 L 5 0 L 5 6 L 0 6 Z" fill="#FFFFFF" transform="matrix(1,0,0,1,131,54)"></path><path d="M 0 0 L 5 0 L 5 5 L 0 5 Z" fill="#000000" transform="matrix(1,0,0,1,0,60)"></path><path d="M 0 0 L 6 0 L 6 5 L 0 5 Z" fill="#FFFFFF" transform="matrix(1,0,0,1,5,60)"></path><path d="M 0 0 L 5 0 L 5 5 L 0 5 Z" fill="#FFFFFF" transform="matrix(1,0,0,1,11,60)"></path><path d="M 0 0 L 6 0 L 6 5 L 0 5 Z" fill="#FFFFFF" transform="matrix(1,0,0,1,16,60)"></path><path d="M 0 0 L 5 0 L 5 5 L 0 5 Z" fill="#FFFFFF" transform="matrix(1,0,0,1,22,60)"></path><path d="M 0 0 L 6 0 L 6 5 L 0 5 Z" fill="#000000" transform="matrix(1,0,0,1,27,60)"></path><path d="M 0 0 L 5 0 L 5 5 L 0 5 Z" fill="#FFFFFF" transform="matrix(1,0,0,1,33,60)"></path><path d="M 0 0 L 6 0 L 6 5 L 0 5 Z" fill="#000000" transform="matrix(1,0,0,1,38,60)"></path><path d="M 0 0 L 5 0 L 5 5 L 0 5 Z" fill="#000000" transform="matrix(1,0,0,1,44,60)"></path><path d="M 0 0 L 5 0 L 5 5 L 0 5 Z" fill="#FFFFFF" transform="matrix(1,0,0,1,49,60)"></path><path d="M 0 0 L 6 0 L 6 5 L 0 5 Z" fill="#FFFFFF" transform="matrix(1,0,0,1,54,60)"></path><path d="M 0 0 L 5 0 L 5 5 L 0 5 Z" fill="#FFFFFF" transform="matrix(1,0,0,1,60,60)"></path><path d="M 0 0 L 6 0 L 6 5 L 0 5 Z" fill="#FFFFFF" transform="matrix(1,0,0,1,65,60)"></path><path d="M 0 0 L 5 0 L 5 5 L 0 5 Z" fill="#000000" transform="matrix(1,0,0,1,71,60)"></path><path d="M 0 0 L 6 0 L 6 5 L 0 5 Z" fill="#000000" transform="matrix(1,0,0,1,76,60)"></path><path d="M 0 0 L 5 0 L 5 5 L 0 5 Z" fill="#000000" transform="matrix(1,0,0,1,82,60)"></path><path d="M 0 0 L 5 0 L 5 5 L 0 5 Z" fill="#000000" transform="matrix(1,0,0,1,87,60)"></path><path d="M 0 0 L 6 0 L 6 5 L 0 5 Z" fill="#FFFFFF" transform="matrix(1,0,0,1,92,60)"></path><path d="M 0 0 L 5 0 L 5 5 L 0 5 Z" fill="#FFFFFF" transform="matrix(1,0,0,1,98,60)"></path><path d="M 0 0 L 6 0 L 6 5 L 0 5 Z" fill="#000000" transform="matrix(1,0,0,1,103,60)"></path><path d="M 0 0 L 5 0 L 5 5 L 0 5 Z" fill="#FFFFFF" transform="matrix(1,0,0,1,109,60)"></path><path d="M 0 0 L 6 0 L 6 5 L 0 5 Z" fill="#000000" transform="matrix(1,0,0,1,114,60)"></path><path d="M 0 0 L 5 0 L 5 5 L 0 5 Z" fill="#000000" transform="matrix(1,0,0,1,120,60)"></path><path d="M 0 0 L 6 0 L 6 5 L 0 5 Z" fill="#FFFFFF" transform="matrix(1,0,0,1,125,60)"></path><path d="M 0 0 L 5 0 L 5 5 L 0 5 Z" fill="#FFFFFF" transform="matrix(1,0,0,1,131,60)"></path><path d="M 0 0 L 5 0 L 5 6 L 0 6 Z" fill="#FFFFFF" transform="matrix(1,0,0,1,0,65)"></path><path d="M 0 0 L 6 0 L 6 6 L 0 6 Z" fill="#FFFFFF" transform="matrix(1,0,0,1,5,65)"></path><path d="M 0 0 L 5 0 L 5 6 L 0 6 Z" fill="#000000" transform="matrix(1,0,0,1,11,65)"></path><path d="M 0 0 L 6 0 L 6 6 L 0 6 Z" fill="#FFFFFF" transform="matrix(1,0,0,1,16,65)"></path><path d="M 0 0 L 5 0 L 5 6 L 0 6 Z" fill="#000000" transform="matrix(1,0,0,1,22,65)"></path><path d="M 0 0 L 6 0 L 6 6 L 0 6 Z" fill="#FFFFFF" transform="matrix(1,0,0,1,27,65)"></path><path d="M 0 0 L 5 0 L 5 6 L 0 6 Z" fill="#000000" transform="matrix(1,0,0,1,33,65)"></path><path d="M 0 0 L 6 0 L 6 6 L 0 6 Z" fill="#000000" transform="matrix(1,0,0,1,38,65)"></path><path d="M 0 0 L 5 0 L 5 6 L 0 6 Z" fill="#FFFFFF" transform="matrix(1,0,0,1,44,65)"></path><path d="M 0 0 L 5 0 L 5 6 L 0 6 Z" fill="#000000" transform="matrix(1,0,0,1,49,65)"></path><path d="M 0 0 L 6 0 L 6 6 L 0 6 Z" fill="#FFFFFF" transform="matrix(1,0,0,1,54,65)"></path><path d="M 0 0 L 5 0 L 5 6 L 0 6 Z" fill="#000000" transform="matrix(1,0,0,1,60,65)"></path><path d="M 0 0 L 6 0 L 6 6 L 0 6 Z" fill="#000000" transform="matrix(1,0,0,1,65,65)"></path><path d="M 0 0 L 5 0 L 5 6 L 0 6 Z" fill="#000000" transform="matrix(1,0,0,1,71,65)"></path><path d="M 0 0 L 6 0 L 6 6 L 0 6 Z" fill="#000000" transform="matrix(1,0,0,1,76,65)"></path><path d="M 0 0 L 5 0 L 5 6 L 0 6 Z" fill="#FFFFFF" transform="matrix(1,0,0,1,82,65)"></path><path d="M 0 0 L 5 0 L 5 6 L 0 6 Z" fill="#FFFFFF" transform="matrix(1,0,0,1,87,65)"></path><path d="M 0 0 L 6 0 L 6 6 L 0 6 Z" fill="#000000" transform="matrix(1,0,0,1,92,65)"></path><path d="M 0 0 L 5 0 L 5 6 L 0 6 Z" fill="#000000" transform="matrix(1,0,0,1,98,65)"></path><path d="M 0 0 L 6 0 L 6 6 L 0 6 Z" fill="#FFFFFF" transform="matrix(1,0,0,1,103,65)"></path><path d="M 0 0 L 5 0 L 5 6 L 0 6 Z" fill="#000000" transform="matrix(1,0,0,1,109,65)"></path><path d="M 0 0 L 6 0 L 6 6 L 0 6 Z" fill="#FFFFFF" transform="matrix(1,0,0,1,114,65)"></path><path d="M 0 0 L 5 0 L 5 6 L 0 6 Z" fill="#000000" transform="matrix(1,0,0,1,120,65)"></path><path d="M 0 0 L 6 0 L 6 6 L 0 6 Z" fill="#000000" transform="matrix(1,0,0,1,125,65)"></path><path d="M 0 0 L 5 0 L 5 6 L 0 6 Z" fill="#000000" transform="matrix(1,0,0,1,131,65)"></path><path d="M 0 0 L 5 0 L 5 5 L 0 5 Z" fill="#FFFFFF" transform="matrix(1,0,0,1,0,71)"></path><path d="M 0 0 L 6 0 L 6 5 L 0 5 Z" fill="#FFFFFF" transform="matrix(1,0,0,1,5,71)"></path><path d="M 0 0 L 5 0 L 5 5 L 0 5 Z" fill="#FFFFFF" transform="matrix(1,0,0,1,11,71)"></path><path d="M 0 0 L 6 0 L 6 5 L 0 5 Z" fill="#000000" transform="matrix(1,0,0,1,16,71)"></path><path d="M 0 0 L 5 0 L 5 5 L 0 5 Z" fill="#FFFFFF" transform="matrix(1,0,0,1,22,71)"></path><path d="M 0 0 L 6 0 L 6 5 L 0 5 Z" fill="#FFFFFF" transform="matrix(1,0,0,1,27,71)"></path><path d="M 0 0 L 5 0 L 5 5 L 0 5 Z" fill="#FFFFFF" transform="matrix(1,0,0,1,33,71)"></path><path d="M 0 0 L 6 0 L 6 5 L 0 5 Z" fill="#FFFFFF" transform="matrix(1,0,0,1,38,71)"></path><path d="M 0 0 L 5 0 L 5 5 L 0 5 Z" fill="#000000" transform="matrix(1,0,0,1,44,71)"></path><path d="M 0 0 L 5 0 L 5 5 L 0 5 Z" fill="#000000" transform="matrix(1,0,0,1,49,71)"></path><path d="M 0 0 L 6 0 L 6 5 L 0 5 Z" fill="#000000" transform="matrix(1,0,0,1,54,71)"></path><path d="M 0 0 L 5 0 L 5 5 L 0 5 Z" fill="#FFFFFF" transform="matrix(1,0,0,1,60,71)"></path><path d="M 0 0 L 6 0 L 6 5 L 0 5 Z" fill="#000000" transform="matrix(1,0,0,1,65,71)"></path><path d="M 0 0 L 5 0 L 5 5 L 0 5 Z" fill="#000000" transform="matrix(1,0,0,1,71,71)"></path><path d="M 0 0 L 6 0 L 6 5 L 0 5 Z" fill="#000000" transform="matrix(1,0,0,1,76,71)"></path><path d="M 0 0 L 5 0 L 5 5 L 0 5 Z" fill="#000000" transform="matrix(1,0,0,1,82,71)"></path><path d="M 0 0 L 5 0 L 5 5 L 0 5 Z" fill="#000000" transform="matrix(1,0,0,1,87,71)"></path><path d="M 0 0 L 6 0 L 6 5 L 0 5 Z" fill="#FFFFFF" transform="matrix(1,0,0,1,92,71)"></path><path d="M 0 0 L 5 0 L 5 5 L 0 5 Z" fill="#000000" transform="matrix(1,0,0,1,98,71)"></path><path d="M 0 0 L 6 0 L 6 5 L 0 5 Z" fill="#000000" transform="matrix(1,0,0,1,103,71)"></path><path d="M 0 0 L 5 0 L 5 5 L 0 5 Z" fill="#000000" transform="matrix(1,0,0,1,109,71)"></path><path d="M 0 0 L 6 0 L 6 5 L 0 5 Z" fill="#FFFFFF" transform="matrix(1,0,0,1,114,71)"></path><path d="M 0 0 L 5 0 L 5 5 L 0 5 Z" fill="#FFFFFF" transform="matrix(1,0,0,1,120,71)"></path><path d="M 0 0 L 6 0 L 6 5 L 0 5 Z" fill="#FFFFFF" transform="matrix(1,0,0,1,125,71)"></path><path d="M 0 0 L 5 0 L 5 5 L 0 5 Z" fill="#000000" transform="matrix(1,0,0,1,131,71)"></path><path d="M 0 0 L 5 0 L 5 6 L 0 6 Z" fill="#FFFFFF" transform="matrix(1,0,0,1,0,76)"></path><path d="M 0 0 L 6 0 L 6 6 L 0 6 Z" fill="#000000" transform="matrix(1,0,0,1,5,76)"></path><path d="M 0 0 L 5 0 L 5 6 L 0 6 Z" fill="#000000" transform="matrix(1,0,0,1,11,76)"></path><path d="M 0 0 L 6 0 L 6 6 L 0 6 Z" fill="#FFFFFF" transform="matrix(1,0,0,1,16,76)"></path><path d="M 0 0 L 5 0 L 5 6 L 0 6 Z" fill="#FFFFFF" transform="matrix(1,0,0,1,22,76)"></path><path d="M 0 0 L 6 0 L 6 6 L 0 6 Z" fill="#000000" transform="matrix(1,0,0,1,27,76)"></path><path d="M 0 0 L 5 0 L 5 6 L 0 6 Z" fill="#000000" transform="matrix(1,0,0,1,33,76)"></path><path d="M 0 0 L 6 0 L 6 6 L 0 6 Z" fill="#FFFFFF" transform="matrix(1,0,0,1,38,76)"></path><path d="M 0 0 L 5 0 L 5 6 L 0 6 Z" fill="#FFFFFF" transform="matrix(1,0,0,1,44,76)"></path><path d="M 0 0 L 5 0 L 5 6 L 0 6 Z" fill="#000000" transform="matrix(1,0,0,1,49,76)"></path><path d="M 0 0 L 6 0 L 6 6 L 0 6 Z" fill="#000000" transform="matrix(1,0,0,1,54,76)"></path><path d="M 0 0 L 5 0 L 5 6 L 0 6 Z" fill="#FFFFFF" transform="matrix(1,0,0,1,60,76)"></path><path d="M 0 0 L 6 0 L 6 6 L 0 6 Z" fill="#FFFFFF" transform="matrix(1,0,0,1,65,76)"></path><path d="M 0 0 L 5 0 L 5 6 L 0 6 Z" fill="#FFFFFF" transform="matrix(1,0,0,1,71,76)"></path><path d="M 0 0 L 6 0 L 6 6 L 0 6 Z" fill="#000000" transform="matrix(1,0,0,1,76,76)"></path><path d="M 0 0 L 5 0 L 5 6 L 0 6 Z" fill="#FFFFFF" transform="matrix(1,0,0,1,82,76)"></path><path d="M 0 0 L 5 0 L 5 6 L 0 6 Z" fill="#000000" transform="matrix(1,0,0,1,87,76)"></path><path d="M 0 0 L 6 0 L 6 6 L 0 6 Z" fill="#FFFFFF" transform="matrix(1,0,0,1,92,76)"></path><path d="M 0 0 L 5 0 L 5 6 L 0 6 Z" fill="#FFFFFF" transform="matrix(1,0,0,1,98,76)"></path><path d="M 0 0 L 6 0 L 6 6 L 0 6 Z" fill="#FFFFFF" transform="matrix(1,0,0,1,103,76)"></path><path d="M 0 0 L 5 0 L 5 6 L 0 6 Z" fill="#000000" transform="matrix(1,0,0,1,109,76)"></path><path d="M 0 0 L 6 0 L 6 6 L 0 6 Z" fill="#FFFFFF" transform="matrix(1,0,0,1,114,76)"></path><path d="M 0 0 L 5 0 L 5 6 L 0 6 Z" fill="#000000" transform="matrix(1,0,0,1,120,76)"></path><path d="M 0 0 L 6 0 L 6 6 L 0 6 Z" fill="#000000" transform="matrix(1,0,0,1,125,76)"></path><path d="M 0 0 L 5 0 L 5 6 L 0 6 Z" fill="#FFFFFF" transform="matrix(1,0,0,1,131,76)"></path><path d="M 0 0 L 5 0 L 5 5 L 0 5 Z" fill="#000000" transform="matrix(1,0,0,1,0,82)"></path><path d="M 0 0 L 6 0 L 6 5 L 0 5 Z" fill="#FFFFFF" transform="matrix(1,0,0,1,5,82)"></path><path d="M 0 0 L 5 0 L 5 5 L 0 5 Z" fill="#000000" transform="matrix(1,0,0,1,11,82)"></path><path d="M 0 0 L 6 0 L 6 5 L 0 5 Z" fill="#FFFFFF" transform="matrix(1,0,0,1,16,82)"></path><path d="M 0 0 L 5 0 L 5 5 L 0 5 Z" fill="#FFFFFF" transform="matrix(1,0,0,1,22,82)"></path><path d="M 0 0 L 6 0 L 6 5 L 0 5 Z" fill="#000000" transform="matrix(1,0,0,1,27,82)"></path><path d="M 0 0 L 5 0 L 5 5 L 0 5 Z" fill="#FFFFFF" transform="matrix(1,0,0,1,33,82)"></path><path d="M 0 0 L 6 0 L 6 5 L 0 5 Z" fill="#FFFFFF" transform="matrix(1,0,0,1,38,82)"></path><path d="M 0 0 L 5 0 L 5 5 L 0 5 Z" fill="#FFFFFF" transform="matrix(1,0,0,1,44,82)"></path><path d="M 0 0 L 5 0 L 5 5 L 0 5 Z" fill="#FFFFFF" transform="matrix(1,0,0,1,49,82)"></path><path d="M 0 0 L 6 0 L 6 5 L 0 5 Z" fill="#FFFFFF" transform="matrix(1,0,0,1,54,82)"></path><path d="M 0 0 L 5 0 L 5 5 L 0 5 Z" fill="#FFFFFF" transform="matrix(1,0,0,1,60,82)"></path><path d="M 0 0 L 6 0 L 6 5 L 0 5 Z" fill="#000000" transform="matrix(1,0,0,1,65,82)"></path><path d="M 0 0 L 5 0 L 5 5 L 0 5 Z" fill="#FFFFFF" transform="matrix(1,0,0,1,71,82)"></path><path d="M 0 0 L 6 0 L 6 5 L 0 5 Z" fill="#000000" transform="matrix(1,0,0,1,76,82)"></path><path d="M 0 0 L 5 0 L 5 5 L 0 5 Z" fill="#000000" transform="matrix(1,0,0,1,82,82)"></path><path d="M 0 0 L 5 0 L 5 5 L 0 5 Z" fill="#000000" transform="matrix(1,0,0,1,87,82)"></path><path d="M 0 0 L 6 0 L 6 5 L 0 5 Z" fill="#FFFFFF" transform="matrix(1,0,0,1,92,82)"></path><path d="M 0 0 L 5 0 L 5 5 L 0 5 Z" fill="#000000" transform="matrix(1,0,0,1,98,82)"></path><path d="M 0 0 L 6 0 L 6 5 L 0 5 Z" fill="#000000" transform="matrix(1,0,0,1,103,82)"></path><path d="M 0 0 L 5 0 L 5 5 L 0 5 Z" fill="#000000" transform="matrix(1,0,0,1,109,82)"></path><path d="M 0 0 L 6 0 L 6 5 L 0 5 Z" fill="#FFFFFF" transform="matrix(1,0,0,1,114,82)"></path><path d="M 0 0 L 5 0 L 5 5 L 0 5 Z" fill="#FFFFFF" transform="matrix(1,0,0,1,120,82)"></path><path d="M 0 0 L 6 0 L 6 5 L 0 5 Z" fill="#FFFFFF" transform="matrix(1,0,0,1,125,82)"></path><path d="M 0 0 L 5 0 L 5 5 L 0 5 Z" fill="#000000" transform="matrix(1,0,0,1,131,82)"></path><path d="M 0 0 L 5 0 L 5 5 L 0 5 Z" fill="#FFFFFF" transform="matrix(1,0,0,1,0,87)"></path><path d="M 0 0 L 6 0 L 6 5 L 0 5 Z" fill="#FFFFFF" transform="matrix(1,0,0,1,5,87)"></path><path d="M 0 0 L 5 0 L 5 5 L 0 5 Z" fill="#FFFFFF" transform="matrix(1,0,0,1,11,87)"></path><path d="M 0 0 L 6 0 L 6 5 L 0 5 Z" fill="#FFFFFF" transform="matrix(1,0,0,1,16,87)"></path><path d="M 0 0 L 5 0 L 5 5 L 0 5 Z" fill="#000000" transform="matrix(1,0,0,1,22,87)"></path><path d="M 0 0 L 6 0 L 6 5 L 0 5 Z" fill="#000000" transform="matrix(1,0,0,1,27,87)"></path><path d="M 0 0 L 5 0 L 5 5 L 0 5 Z" fill="#000000" transform="matrix(1,0,0,1,33,87)"></path><path d="M 0 0 L 6 0 L 6 5 L 0 5 Z" fill="#000000" transform="matrix(1,0,0,1,38,87)"></path><path d="M 0 0 L 5 0 L 5 5 L 0 5 Z" fill="#FFFFFF" transform="matrix(1,0,0,1,44,87)"></path><path d="M 0 0 L 5 0 L 5 5 L 0 5 Z" fill="#000000" transform="matrix(1,0,0,1,49,87)"></path><path d="M 0 0 L 6 0 L 6 5 L 0 5 Z" fill="#000000" transform="matrix(1,0,0,1,54,87)"></path><path d="M 0 0 L 5 0 L 5 5 L 0 5 Z" fill="#FFFFFF" transform="matrix(1,0,0,1,60,87)"></path><path d="M 0 0 L 6 0 L 6 5 L 0 5 Z" fill="#000000" transform="matrix(1,0,0,1,65,87)"></path><path d="M 0 0 L 5 0 L 5 5 L 0 5 Z" fill="#000000" transform="matrix(1,0,0,1,71,87)"></path><path d="M 0 0 L 6 0 L 6 5 L 0 5 Z" fill="#FFFFFF" transform="matrix(1,0,0,1,76,87)"></path><path d="M 0 0 L 5 0 L 5 5 L 0 5 Z" fill="#FFFFFF" transform="matrix(1,0,0,1,82,87)"></path><path d="M 0 0 L 5 0 L 5 5 L 0 5 Z" fill="#000000" transform="matrix(1,0,0,1,87,87)"></path><path d="M 0 0 L 6 0 L 6 5 L 0 5 Z" fill="#000000" transform="matrix(1,0,0,1,92,87)"></path><path d="M 0 0 L 5 0 L 5 5 L 0 5 Z" fill="#000000" transform="matrix(1,0,0,1,98,87)"></path><path d="M 0 0 L 6 0 L 6 5 L 0 5 Z" fill="#000000" transform="matrix(1,0,0,1,103,87)"></path><path d="M 0 0 L 5 0 L 5 5 L 0 5 Z" fill="#000000" transform="matrix(1,0,0,1,109,87)"></path><path d="M 0 0 L 6 0 L 6 5 L 0 5 Z" fill="#000000" transform="matrix(1,0,0,1,114,87)"></path><path d="M 0 0 L 5 0 L 5 5 L 0 5 Z" fill="#000000" transform="matrix(1,0,0,1,120,87)"></path><path d="M 0 0 L 6 0 L 6 5 L 0 5 Z" fill="#000000" transform="matrix(1,0,0,1,125,87)"></path><path d="M 0 0 L 5 0 L 5 5 L 0 5 Z" fill="#000000" transform="matrix(1,0,0,1,131,87)"></path><path d="M 0 0 L 5 0 L 5 6 L 0 6 Z" fill="#FFFFFF" transform="matrix(1,0,0,1,0,92)"></path><path d="M 0 0 L 6 0 L 6 6 L 0 6 Z" fill="#FFFFFF" transform="matrix(1,0,0,1,5,92)"></path><path d="M 0 0 L 5 0 L 5 6 L 0 6 Z" fill="#FFFFFF" transform="matrix(1,0,0,1,11,92)"></path><path d="M 0 0 L 6 0 L 6 6 L 0 6 Z" fill="#FFFFFF" transform="matrix(1,0,0,1,16,92)"></path><path d="M 0 0 L 5 0 L 5 6 L 0 6 Z" fill="#FFFFFF" transform="matrix(1,0,0,1,22,92)"></path><path d="M 0 0 L 6 0 L 6 6 L 0 6 Z" fill="#FFFFFF" transform="matrix(1,0,0,1,27,92)"></path><path d="M 0 0 L 5 0 L 5 6 L 0 6 Z" fill="#FFFFFF" transform="matrix(1,0,0,1,33,92)"></path><path d="M 0 0 L 6 0 L 6 6 L 0 6 Z" fill="#FFFFFF" transform="matrix(1,0,0,1,38,92)"></path><path d="M 0 0 L 5 0 L 5 6 L 0 6 Z" fill="#000000" transform="matrix(1,0,0,1,44,92)"></path><path d="M 0 0 L 5 0 L 5 6 L 0 6 Z" fill="#000000" transform="matrix(1,0,0,1,49,92)"></path><path d="M 0 0 L 6 0 L 6 6 L 0 6 Z" fill="#000000" transform="matrix(1,0,0,1,54,92)"></path><path d="M 0 0 L 5 0 L 5 6 L 0 6 Z" fill="#000000" transform="matrix(1,0,0,1,60,92)"></path><path d="M 0 0 L 6 0 L 6 6 L 0 6 Z" fill="#FFFFFF" transform="matrix(1,0,0,1,65,92)"></path><path d="M 0 0 L 5 0 L 5 6 L 0 6 Z" fill="#FFFFFF" transform="matrix(1,0,0,1,71,92)"></path><path d="M 0 0 L 6 0 L 6 6 L 0 6 Z" fill="#FFFFFF" transform="matrix(1,0,0,1,76,92)"></path><path d="M 0 0 L 5 0 L 5 6 L 0 6 Z" fill="#FFFFFF" transform="matrix(1,0,0,1,82,92)"></path><path d="M 0 0 L 5 0 L 5 6 L 0 6 Z" fill="#000000" transform="matrix(1,0,0,1,87,92)"></path><path d="M 0 0 L 6 0 L 6 6 L 0 6 Z" fill="#FFFFFF" transform="matrix(1,0,0,1,92,92)"></path><path d="M 0 0 L 5 0 L 5 6 L 0 6 Z" fill="#FFFFFF" transform="matrix(1,0,0,1,98,92)"></path><path d="M 0 0 L 6 0 L 6 6 L 0 6 Z" fill="#FFFFFF" transform="matrix(1,0,0,1,103,92)"></path><path d="M 0 0 L 5 0 L 5 6 L 0 6 Z" fill="#000000" transform="matrix(1,0,0,1,109,92)"></path><path d="M 0 0 L 6 0 L 6 6 L 0 6 Z" fill="#FFFFFF" transform="matrix(1,0,0,1,114,92)"></path><path d="M 0 0 L 5 0 L 5 6 L 0 6 Z" fill="#000000" transform="matrix(1,0,0,1,120,92)"></path><path d="M 0 0 L 6 0 L 6 6 L 0 6 Z" fill="#FFFFFF" transform="matrix(1,0,0,1,125,92)"></path><path d="M 0 0 L 5 0 L 5 6 L 0 6 Z" fill="#000000" transform="matrix(1,0,0,1,131,92)"></path><path d="M 0 0 L 5 0 L 5 5 L 0 5 Z" fill="#000000" transform="matrix(1,0,0,1,0,98)"></path><path d="M 0 0 L 6 0 L 6 5 L 0 5 Z" fill="#000000" transform="matrix(1,0,0,1,5,98)"></path><path d="M 0 0 L 5 0 L 5 5 L 0 5 Z" fill="#000000" transform="matrix(1,0,0,1,11,98)"></path><path d="M 0 0 L 6 0 L 6 5 L 0 5 Z" fill="#000000" transform="matrix(1,0,0,1,16,98)"></path><path d="M 0 0 L 5 0 L 5 5 L 0 5 Z" fill="#000000" transform="matrix(1,0,0,1,22,98)"></path><path d="M 0 0 L 6 0 L 6 5 L 0 5 Z" fill="#000000" transform="matrix(1,0,0,1,27,98)"></path><path d="M 0 0 L 5 0 L 5 5 L 0 5 Z" fill="#000000" transform="matrix(1,0,0,1,33,98)"></path><path d="M 0 0 L 6 0 L 6 5 L 0 5 Z" fill="#FFFFFF" transform="matrix(1,0,0,1,38,98)"></path><path d="M 0 0 L 5 0 L 5 5 L 0 5 Z" fill="#FFFFFF" transform="matrix(1,0,0,1,44,98)"></path><path d="M 0 0 L 5 0 L 5 5 L 0 5 Z" fill="#000000" transform="matrix(1,0,0,1,49,98)"></path><path d="M 0 0 L 6 0 L 6 5 L 0 5 Z" fill="#FFFFFF" transform="matrix(1,0,0,1,54,98)"></path><path d="M 0 0 L 5 0 L 5 5 L 0 5 Z" fill="#FFFFFF" transform="matrix(1,0,0,1,60,98)"></path><path d="M 0 0 L 6 0 L 6 5 L 0 5 Z" fill="#000000" transform="matrix(1,0,0,1,65,98)"></path><path d="M 0 0 L 5 0 L 5 5 L 0 5 Z" fill="#FFFFFF" transform="matrix(1,0,0,1,71,98)"></path><path d="M 0 0 L 6 0 L 6 5 L 0 5 Z" fill="#000000" transform="matrix(1,0,0,1,76,98)"></path><path d="M 0 0 L 5 0 L 5 5 L 0 5 Z" fill="#FFFFFF" transform="matrix(1,0,0,1,82,98)"></path><path d="M 0 0 L 5 0 L 5 5 L 0 5 Z" fill="#000000" transform="matrix(1,0,0,1,87,98)"></path><path d="M 0 0 L 6 0 L 6 5 L 0 5 Z" fill="#FFFFFF" transform="matrix(1,0,0,1,92,98)"></path><path d="M 0 0 L 5 0 L 5 5 L 0 5 Z" fill="#000000" transform="matrix(1,0,0,1,98,98)"></path><path d="M 0 0 L 6 0 L 6 5 L 0 5 Z" fill="#FFFFFF" transform="matrix(1,0,0,1,103,98)"></path><path d="M 0 0 L 5 0 L 5 5 L 0 5 Z" fill="#000000" transform="matrix(1,0,0,1,109,98)"></path><path d="M 0 0 L 6 0 L 6 5 L 0 5 Z" fill="#FFFFFF" transform="matrix(1,0,0,1,114,98)"></path><path d="M 0 0 L 5 0 L 5 5 L 0 5 Z" fill="#000000" transform="matrix(1,0,0,1,120,98)"></path><path d="M 0 0 L 6 0 L 6 5 L 0 5 Z" fill="#000000" transform="matrix(1,0,0,1,125,98)"></path><path d="M 0 0 L 5 0 L 5 5 L 0 5 Z" fill="#000000" transform="matrix(1,0,0,1,131,98)"></path><path d="M 0 0 L 5 0 L 5 6 L 0 6 Z" fill="#000000" transform="matrix(1,0,0,1,0,103)"></path><path d="M 0 0 L 6 0 L 6 6 L 0 6 Z" fill="#FFFFFF" transform="matrix(1,0,0,1,5,103)"></path><path d="M 0 0 L 5 0 L 5 6 L 0 6 Z" fill="#FFFFFF" transform="matrix(1,0,0,1,11,103)"></path><path d="M 0 0 L 6 0 L 6 6 L 0 6 Z" fill="#FFFFFF" transform="matrix(1,0,0,1,16,103)"></path><path d="M 0 0 L 5 0 L 5 6 L 0 6 Z" fill="#FFFFFF" transform="matrix(1,0,0,1,22,103)"></path><path d="M 0 0 L 6 0 L 6 6 L 0 6 Z" fill="#FFFFFF" transform="matrix(1,0,0,1,27,103)"></path><path d="M 0 0 L 5 0 L 5 6 L 0 6 Z" fill="#000000" transform="matrix(1,0,0,1,33,103)"></path><path d="M 0 0 L 6 0 L 6 6 L 0 6 Z" fill="#FFFFFF" transform="matrix(1,0,0,1,38,103)"></path><path d="M 0 0 L 5 0 L 5 6 L 0 6 Z" fill="#FFFFFF" transform="matrix(1,0,0,1,44,103)"></path><path d="M 0 0 L 5 0 L 5 6 L 0 6 Z" fill="#000000" transform="matrix(1,0,0,1,49,103)"></path><path d="M 0 0 L 6 0 L 6 6 L 0 6 Z" fill="#FFFFFF" transform="matrix(1,0,0,1,54,103)"></path><path d="M 0 0 L 5 0 L 5 6 L 0 6 Z" fill="#FFFFFF" transform="matrix(1,0,0,1,60,103)"></path><path d="M 0 0 L 6 0 L 6 6 L 0 6 Z" fill="#000000" transform="matrix(1,0,0,1,65,103)"></path><path d="M 0 0 L 5 0 L 5 6 L 0 6 Z" fill="#FFFFFF" transform="matrix(1,0,0,1,71,103)"></path><path d="M 0 0 L 6 0 L 6 6 L 0 6 Z" fill="#FFFFFF" transform="matrix(1,0,0,1,76,103)"></path><path d="M 0 0 L 5 0 L 5 6 L 0 6 Z" fill="#000000" transform="matrix(1,0,0,1,82,103)"></path><path d="M 0 0 L 5 0 L 5 6 L 0 6 Z" fill="#000000" transform="matrix(1,0,0,1,87,103)"></path><path d="M 0 0 L 6 0 L 6 6 L 0 6 Z" fill="#FFFFFF" transform="matrix(1,0,0,1,92,103)"></path><path d="M 0 0 L 5 0 L 5 6 L 0 6 Z" fill="#FFFFFF" transform="matrix(1,0,0,1,98,103)"></path><path d="M 0 0 L 6 0 L 6 6 L 0 6 Z" fill="#FFFFFF" transform="matrix(1,0,0,1,103,103)"></path><path d="M 0 0 L 5 0 L 5 6 L 0 6 Z" fill="#000000" transform="matrix(1,0,0,1,109,103)"></path><path d="M 0 0 L 6 0 L 6 6 L 0 6 Z" fill="#FFFFFF" transform="matrix(1,0,0,1,114,103)"></path><path d="M 0 0 L 5 0 L 5 6 L 0 6 Z" fill="#FFFFFF" transform="matrix(1,0,0,1,120,103)"></path><path d="M 0 0 L 6 0 L 6 6 L 0 6 Z" fill="#000000" transform="matrix(1,0,0,1,125,103)"></path><path d="M 0 0 L 5 0 L 5 6 L 0 6 Z" fill="#000000" transform="matrix(1,0,0,1,131,103)"></path><path d="M 0 0 L 5 0 L 5 5 L 0 5 Z" fill="#000000" transform="matrix(1,0,0,1,0,109)"></path><path d="M 0 0 L 6 0 L 6 5 L 0 5 Z" fill="#FFFFFF" transform="matrix(1,0,0,1,5,109)"></path><path d="M 0 0 L 5 0 L 5 5 L 0 5 Z" fill="#000000" transform="matrix(1,0,0,1,11,109)"></path><path d="M 0 0 L 6 0 L 6 5 L 0 5 Z" fill="#000000" transform="matrix(1,0,0,1,16,109)"></path><path d="M 0 0 L 5 0 L 5 5 L 0 5 Z" fill="#000000" transform="matrix(1,0,0,1,22,109)"></path><path d="M 0 0 L 6 0 L 6 5 L 0 5 Z" fill="#FFFFFF" transform="matrix(1,0,0,1,27,109)"></path><path d="M 0 0 L 5 0 L 5 5 L 0 5 Z" fill="#000000" transform="matrix(1,0,0,1,33,109)"></path><path d="M 0 0 L 6 0 L 6 5 L 0 5 Z" fill="#FFFFFF" transform="matrix(1,0,0,1,38,109)"></path><path d="M 0 0 L 5 0 L 5 5 L 0 5 Z" fill="#FFFFFF" transform="matrix(1,0,0,1,44,109)"></path><path d="M 0 0 L 5 0 L 5 5 L 0 5 Z" fill="#FFFFFF" transform="matrix(1,0,0,1,49,109)"></path><path d="M 0 0 L 6 0 L 6 5 L 0 5 Z" fill="#FFFFFF" transform="matrix(1,0,0,1,54,109)"></path><path d="M 0 0 L 5 0 L 5 5 L 0 5 Z" fill="#000000" transform="matrix(1,0,0,1,60,109)"></path><path d="M 0 0 L 6 0 L 6 5 L 0 5 Z" fill="#FFFFFF" transform="matrix(1,0,0,1,65,109)"></path><path d="M 0 0 L 5 0 L 5 5 L 0 5 Z" fill="#FFFFFF" transform="matrix(1,0,0,1,71,109)"></path><path d="M 0 0 L 6 0 L 6 5 L 0 5 Z" fill="#FFFFFF" transform="matrix(1,0,0,1,76,109)"></path><path d="M 0 0 L 5 0 L 5 5 L 0 5 Z" fill="#FFFFFF" transform="matrix(1,0,0,1,82,109)"></path><path d="M 0 0 L 5 0 L 5 5 L 0 5 Z" fill="#000000" transform="matrix(1,0,0,1,87,109)"></path><path d="M 0 0 L 6 0 L 6 5 L 0 5 Z" fill="#000000" transform="matrix(1,0,0,1,92,109)"></path><path d="M 0 0 L 5 0 L 5 5 L 0 5 Z" fill="#000000" transform="matrix(1,0,0,1,98,109)"></path><path d="M 0 0 L 6 0 L 6 5 L 0 5 Z" fill="#000000" transform="matrix(1,0,0,1,103,109)"></path><path d="M 0 0 L 5 0 L 5 5 L 0 5 Z" fill="#000000" transform="matrix(1,0,0,1,109,109)"></path><path d="M 0 0 L 6 0 L 6 5 L 0 5 Z" fill="#000000" transform="matrix(1,0,0,1,114,109)"></path><path d="M 0 0 L 5 0 L 5 5 L 0 5 Z" fill="#FFFFFF" transform="matrix(1,0,0,1,120,109)"></path><path d="M 0 0 L 6 0 L 6 5 L 0 5 Z" fill="#000000" transform="matrix(1,0,0,1,125,109)"></path><path d="M 0 0 L 5 0 L 5 5 L 0 5 Z" fill="#000000" transform="matrix(1,0,0,1,131,109)"></path><path d="M 0 0 L 5 0 L 5 6 L 0 6 Z" fill="#000000" transform="matrix(1,0,0,1,0,114)"></path><path d="M 0 0 L 6 0 L 6 6 L 0 6 Z" fill="#FFFFFF" transform="matrix(1,0,0,1,5,114)"></path><path d="M 0 0 L 5 0 L 5 6 L 0 6 Z" fill="#000000" transform="matrix(1,0,0,1,11,114)"></path><path d="M 0 0 L 6 0 L 6 6 L 0 6 Z" fill="#000000" transform="matrix(1,0,0,1,16,114)"></path><path d="M 0 0 L 5 0 L 5 6 L 0 6 Z" fill="#000000" transform="matrix(1,0,0,1,22,114)"></path><path d="M 0 0 L 6 0 L 6 6 L 0 6 Z" fill="#FFFFFF" transform="matrix(1,0,0,1,27,114)"></path><path d="M 0 0 L 5 0 L 5 6 L 0 6 Z" fill="#000000" transform="matrix(1,0,0,1,33,114)"></path><path d="M 0 0 L 6 0 L 6 6 L 0 6 Z" fill="#FFFFFF" transform="matrix(1,0,0,1,38,114)"></path><path d="M 0 0 L 5 0 L 5 6 L 0 6 Z" fill="#000000" transform="matrix(1,0,0,1,44,114)"></path><path d="M 0 0 L 5 0 L 5 6 L 0 6 Z" fill="#FFFFFF" transform="matrix(1,0,0,1,49,114)"></path><path d="M 0 0 L 6 0 L 6 6 L 0 6 Z" fill="#000000" transform="matrix(1,0,0,1,54,114)"></path><path d="M 0 0 L 5 0 L 5 6 L 0 6 Z" fill="#000000" transform="matrix(1,0,0,1,60,114)"></path><path d="M 0 0 L 6 0 L 6 6 L 0 6 Z" fill="#FFFFFF" transform="matrix(1,0,0,1,65,114)"></path><path d="M 0 0 L 5 0 L 5 6 L 0 6 Z" fill="#000000" transform="matrix(1,0,0,1,71,114)"></path><path d="M 0 0 L 6 0 L 6 6 L 0 6 Z" fill="#FFFFFF" transform="matrix(1,0,0,1,76,114)"></path><path d="M 0 0 L 5 0 L 5 6 L 0 6 Z" fill="#FFFFFF" transform="matrix(1,0,0,1,82,114)"></path><path d="M 0 0 L 5 0 L 5 6 L 0 6 Z" fill="#FFFFFF" transform="matrix(1,0,0,1,87,114)"></path><path d="M 0 0 L 6 0 L 6 6 L 0 6 Z" fill="#FFFFFF" transform="matrix(1,0,0,1,92,114)"></path><path d="M 0 0 L 5 0 L 5 6 L 0 6 Z" fill="#000000" transform="matrix(1,0,0,1,98,114)"></path><path d="M 0 0 L 6 0 L 6 6 L 0 6 Z" fill="#FFFFFF" transform="matrix(1,0,0,1,103,114)"></path><path d="M 0 0 L 5 0 L 5 6 L 0 6 Z" fill="#000000" transform="matrix(1,0,0,1,109,114)"></path><path d="M 0 0 L 6 0 L 6 6 L 0 6 Z" fill="#000000" transform="matrix(1,0,0,1,114,114)"></path><path d="M 0 0 L 5 0 L 5 6 L 0 6 Z" fill="#000000" transform="matrix(1,0,0,1,120,114)"></path><path d="M 0 0 L 6 0 L 6 6 L 0 6 Z" fill="#000000" transform="matrix(1,0,0,1,125,114)"></path><path d="M 0 0 L 5 0 L 5 6 L 0 6 Z" fill="#000000" transform="matrix(1,0,0,1,131,114)"></path><path d="M 0 0 L 5 0 L 5 5 L 0 5 Z" fill="#000000" transform="matrix(1,0,0,1,0,120)"></path><path d="M 0 0 L 6 0 L 6 5 L 0 5 Z" fill="#FFFFFF" transform="matrix(1,0,0,1,5,120)"></path><path d="M 0 0 L 5 0 L 5 5 L 0 5 Z" fill="#000000" transform="matrix(1,0,0,1,11,120)"></path><path d="M 0 0 L 6 0 L 6 5 L 0 5 Z" fill="#000000" transform="matrix(1,0,0,1,16,120)"></path><path d="M 0 0 L 5 0 L 5 5 L 0 5 Z" fill="#000000" transform="matrix(1,0,0,1,22,120)"></path><path d="M 0 0 L 6 0 L 6 5 L 0 5 Z" fill="#FFFFFF" transform="matrix(1,0,0,1,27,120)"></path><path d="M 0 0 L 5 0 L 5 5 L 0 5 Z" fill="#000000" transform="matrix(1,0,0,1,33,120)"></path><path d="M 0 0 L 6 0 L 6 5 L 0 5 Z" fill="#FFFFFF" transform="matrix(1,0,0,1,38,120)"></path><path d="M 0 0 L 5 0 L 5 5 L 0 5 Z" fill="#000000" transform="matrix(1,0,0,1,44,120)"></path><path d="M 0 0 L 5 0 L 5 5 L 0 5 Z" fill="#FFFFFF" transform="matrix(1,0,0,1,49,120)"></path><path d="M 0 0 L 6 0 L 6 5 L 0 5 Z" fill="#000000" transform="matrix(1,0,0,1,54,120)"></path><path d="M 0 0 L 5 0 L 5 5 L 0 5 Z" fill="#000000" transform="matrix(1,0,0,1,60,120)"></path><path d="M 0 0 L 6 0 L 6 5 L 0 5 Z" fill="#FFFFFF" transform="matrix(1,0,0,1,65,120)"></path><path d="M 0 0 L 5 0 L 5 5 L 0 5 Z" fill="#000000" transform="matrix(1,0,0,1,71,120)"></path><path d="M 0 0 L 6 0 L 6 5 L 0 5 Z" fill="#FFFFFF" transform="matrix(1,0,0,1,76,120)"></path><path d="M 0 0 L 5 0 L 5 5 L 0 5 Z" fill="#FFFFFF" transform="matrix(1,0,0,1,82,120)"></path><path d="M 0 0 L 5 0 L 5 5 L 0 5 Z" fill="#FFFFFF" transform="matrix(1,0,0,1,87,120)"></path><path d="M 0 0 L 6 0 L 6 5 L 0 5 Z" fill="#000000" transform="matrix(1,0,0,1,92,120)"></path><path d="M 0 0 L 5 0 L 5 5 L 0 5 Z" fill="#000000" transform="matrix(1,0,0,1,98,120)"></path><path d="M 0 0 L 6 0 L 6 5 L 0 5 Z" fill="#FFFFFF" transform="matrix(1,0,0,1,103,120)"></path><path d="M 0 0 L 5 0 L 5 5 L 0 5 Z" fill="#000000" transform="matrix(1,0,0,1,109,120)"></path><path d="M 0 0 L 6 0 L 6 5 L 0 5 Z" fill="#FFFFFF" transform="matrix(1,0,0,1,114,120)"></path><path d="M 0 0 L 5 0 L 5 5 L 0 5 Z" fill="#000000" transform="matrix(1,0,0,1,120,120)"></path><path d="M 0 0 L 6 0 L 6 5 L 0 5 Z" fill="#000000" transform="matrix(1,0,0,1,125,120)"></path><path d="M 0 0 L 5 0 L 5 5 L 0 5 Z" fill="#FFFFFF" transform="matrix(1,0,0,1,131,120)"></path><path d="M 0 0 L 5 0 L 5 6 L 0 6 Z" fill="#000000" transform="matrix(1,0,0,1,0,125)"></path><path d="M 0 0 L 6 0 L 6 6 L 0 6 Z" fill="#FFFFFF" transform="matrix(1,0,0,1,5,125)"></path><path d="M 0 0 L 5 0 L 5 6 L 0 6 Z" fill="#FFFFFF" transform="matrix(1,0,0,1,11,125)"></path><path d="M 0 0 L 6 0 L 6 6 L 0 6 Z" fill="#FFFFFF" transform="matrix(1,0,0,1,16,125)"></path><path d="M 0 0 L 5 0 L 5 6 L 0 6 Z" fill="#FFFFFF" transform="matrix(1,0,0,1,22,125)"></path><path d="M 0 0 L 6 0 L 6 6 L 0 6 Z" fill="#FFFFFF" transform="matrix(1,0,0,1,27,125)"></path><path d="M 0 0 L 5 0 L 5 6 L 0 6 Z" fill="#000000" transform="matrix(1,0,0,1,33,125)"></path><path d="M 0 0 L 6 0 L 6 6 L 0 6 Z" fill="#FFFFFF" transform="matrix(1,0,0,1,38,125)"></path><path d="M 0 0 L 5 0 L 5 6 L 0 6 Z" fill="#000000" transform="matrix(1,0,0,1,44,125)"></path><path d="M 0 0 L 5 0 L 5 6 L 0 6 Z" fill="#000000" transform="matrix(1,0,0,1,49,125)"></path><path d="M 0 0 L 6 0 L 6 6 L 0 6 Z" fill="#000000" transform="matrix(1,0,0,1,54,125)"></path><path d="M 0 0 L 5 0 L 5 6 L 0 6 Z" fill="#000000" transform="matrix(1,0,0,1,60,125)"></path><path d="M 0 0 L 6 0 L 6 6 L 0 6 Z" fill="#000000" transform="matrix(1,0,0,1,65,125)"></path><path d="M 0 0 L 5 0 L 5 6 L 0 6 Z" fill="#000000" transform="matrix(1,0,0,1,71,125)"></path><path d="M 0 0 L 6 0 L 6 6 L 0 6 Z" fill="#000000" transform="matrix(1,0,0,1,76,125)"></path><path d="M 0 0 L 5 0 L 5 6 L 0 6 Z" fill="#FFFFFF" transform="matrix(1,0,0,1,82,125)"></path><path d="M 0 0 L 5 0 L 5 6 L 0 6 Z" fill="#FFFFFF" transform="matrix(1,0,0,1,87,125)"></path><path d="M 0 0 L 6 0 L 6 6 L 0 6 Z" fill="#000000" transform="matrix(1,0,0,1,92,125)"></path><path d="M 0 0 L 5 0 L 5 6 L 0 6 Z" fill="#000000" transform="matrix(1,0,0,1,98,125)"></path><path d="M 0 0 L 6 0 L 6 6 L 0 6 Z" fill="#FFFFFF" transform="matrix(1,0,0,1,103,125)"></path><path d="M 0 0 L 5 0 L 5 6 L 0 6 Z" fill="#000000" transform="matrix(1,0,0,1,109,125)"></path><path d="M 0 0 L 6 0 L 6 6 L 0 6 Z" fill="#FFFFFF" transform="matrix(1,0,0,1,114,125)"></path><path d="M 0 0 L 5 0 L 5 6 L 0 6 Z" fill="#000000" transform="matrix(1,0,0,1,120,125)"></path><path d="M 0 0 L 6 0 L 6 6 L 0 6 Z" fill="#FFFFFF" transform="matrix(1,0,0,1,125,125)"></path><path d="M 0 0 L 5 0 L 5 6 L 0 6 Z" fill="#FFFFFF" transform="matrix(1,0,0,1,131,125)"></path><path d="M 0 0 L 5 0 L 5 5 L 0 5 Z" fill="#000000" transform="matrix(1,0,0,1,0,131)"></path><path d="M 0 0 L 6 0 L 6 5 L 0 5 Z" fill="#000000" transform="matrix(1,0,0,1,5,131)"></path><path d="M 0 0 L 5 0 L 5 5 L 0 5 Z" fill="#000000" transform="matrix(1,0,0,1,11,131)"></path><path d="M 0 0 L 6 0 L 6 5 L 0 5 Z" fill="#000000" transform="matrix(1,0,0,1,16,131)"></path><path d="M 0 0 L 5 0 L 5 5 L 0 5 Z" fill="#000000" transform="matrix(1,0,0,1,22,131)"></path><path d="M 0 0 L 6 0 L 6 5 L 0 5 Z" fill="#000000" transform="matrix(1,0,0,1,27,131)"></path><path d="M 0 0 L 5 0 L 5 5 L 0 5 Z" fill="#000000" transform="matrix(1,0,0,1,33,131)"></path><path d="M 0 0 L 6 0 L 6 5 L 0 5 Z" fill="#FFFFFF" transform="matrix(1,0,0,1,38,131)"></path><path d="M 0 0 L 5 0 L 5 5 L 0 5 Z" fill="#000000" transform="matrix(1,0,0,1,44,131)"></path><path d="M 0 0 L 5 0 L 5 5 L 0 5 Z" fill="#000000" transform="matrix(1,0,0,1,49,131)"></path><path d="M 0 0 L 6 0 L 6 5 L 0 5 Z" fill="#000000" transform="matrix(1,0,0,1,54,131)"></path><path d="M 0 0 L 5 0 L 5 5 L 0 5 Z" fill="#FFFFFF" transform="matrix(1,0,0,1,60,131)"></path><path d="M 0 0 L 6 0 L 6 5 L 0 5 Z" fill="#000000" transform="matrix(1,0,0,1,65,131)"></path><path d="M 0 0 L 5 0 L 5 5 L 0 5 Z" fill="#000000" transform="matrix(1,0,0,1,71,131)"></path><path d="M 0 0 L 6 0 L 6 5 L 0 5 Z" fill="#000000" transform="matrix(1,0,0,1,76,131)"></path><path d="M 0 0 L 5 0 L 5 5 L 0 5 Z" fill="#FFFFFF" transform="matrix(1,0,0,1,82,131)"></path><path d="M 0 0 L 5 0 L 5 5 L 0 5 Z" fill="#FFFFFF" transform="matrix(1,0,0,1,87,131)"></path><path d="M 0 0 L 6 0 L 6 5 L 0 5 Z" fill="#FFFFFF" transform="matrix(1,0,0,1,92,131)"></path><path d="M 0 0 L 5 0 L 5 5 L 0 5 Z" fill="#FFFFFF" transform="matrix(1,0,0,1,98,131)"></path><path d="M 0 0 L 6 0 L 6 5 L 0 5 Z" fill="#000000" transform="matrix(1,0,0,1,103,131)"></path><path d="M 0 0 L 5 0 L 5 5 L 0 5 Z" fill="#000000" transform="matrix(1,0,0,1,109,131)"></path><path d="M 0 0 L 6 0 L 6 5 L 0 5 Z" fill="#000000" transform="matrix(1,0,0,1,114,131)"></path><path d="M 0 0 L 5 0 L 5 5 L 0 5 Z" fill="#000000" transform="matrix(1,0,0,1,120,131)"></path><path d="M 0 0 L 6 0 L 6 5 L 0 5 Z" fill="#000000" transform="matrix(1,0,0,1,125,131)"></path><path d="M 0 0 L 5 0 L 5 5 L 0 5 Z" fill="#000000" transform="matrix(1,0,0,1,131,131)"></path></svg>