<svg xmlns:xlink="http://www.w3.org/1999/xlink" xmlns="http://www.w3.org/2000/svg" width="40" height="40" viewBox="0 0 40 40" fill="none" class="hidden Loading_loadingIcon__cuWVt"><path d="M10.1941 30.1663L10.1946 30.1657C10.2489 30.1065 10.3031 30.0912 10.3396 30.0909L27.839 30.0909L27.8403 30.0909C27.8695 30.0909 27.9062 30.0998 27.946 30.1288C27.9871 30.1587 28.0315 30.2106 28.0607 30.2875C28.0901 30.3647 28.099 30.454 28.0832 30.541C28.0687 30.6205 28.0363 30.685 27.9984 30.7309L20.3766 38.2749L20.3653 38.2749L20.0717 38.5721C19.7901 38.8571 19.4378 39 19.0895 39C18.7411 39 18.3888 38.8571 18.1072 38.5721L18.1073 38.5721L18.0992 38.5641L10.1837 30.7302C10.1598 30.7015 10.1377 30.6649 10.1209 30.6208C10.1017 30.5702 10.0909 30.5134 10.0909 30.4542C10.0909 30.3951 10.1017 30.3382 10.1209 30.2876C10.1401 30.2371 10.1663 30.1966 10.1941 30.1663Z" fill="#00A868" stroke="#00A868" stroke-width="2px"></path><path d="M1.19609 19L1.19645 19L8.69483 19C8.78582 18.9987 8.87298 18.9644 8.94003 18.9039C9.00764 18.8428 9.05006 18.7594 9.05974 18.6697L9.06061 18.6617L9.06162 18.6536C9.39285 15.9907 10.6876 13.5407 12.7017 11.7645C14.7157 9.98835 17.3103 9.00831 19.9972 9.00831C22.6841 9.00831 25.2787 9.98835 27.2928 11.7645C29.3069 13.5407 30.6016 15.9907 30.9328 18.6536L30.9338 18.6614L30.9347 18.6691C30.9444 18.759 30.9869 18.8425 31.0546 18.9036C31.1218 18.9642 31.209 18.9986 31.3 19L38.8027 19C38.8299 18.9999 38.8566 18.9943 38.8814 18.9836C38.9063 18.9728 38.9286 18.9572 38.9469 18.9377C38.9653 18.9182 38.9794 18.8952 38.9884 18.8703C38.9973 18.8456 39.0012 18.8195 38.9997 18.7934C38.3723 8.86426 30.1083 0.999999 20.0001 0.999999C9.89113 1 1.62352 8.86604 1.00037 18.7943L1.19609 19ZM1.19609 19C1.16905 19 1.14234 18.9945 1.11762 18.9838C1.09291 18.9732 1.07078 18.9576 1.05255 18.9383C1.03432 18.9189 1.02036 18.8961 1.01142 18.8714C1.00251 18.8467 0.998763 18.8206 1.00036 18.7945L1.19609 19Z" fill="#00A868" stroke="#00A868" stroke-width="2px"></path></svg>