<svg xmlns:xlink="http://www.w3.org/1999/xlink" width="24" height="24" viewBox="0 0 24 24" fill="none" xmlns="http://www.w3.org/2000/svg" class="mr-12 fill-current"><path d="M7.5 20C8.32843 20 9 19.3284 9 18.5C9 17.6716 8.32843 17 7.5 17C6.67157 17 6 17.6716 6 18.5C6 19.3284 6.67157 20 7.5 20Z" fill="#20252A"></path><path fill-rule="evenodd" clip-rule="evenodd" d="M3 4C2.45228 4 2 4.45228 2 5V21C2 21.5477 2.45228 22 3 22H12C12.5477 22 13 21.5477 13 21V16H15V21C15 22.6523 13.6523 24 12 24H3C1.34772 24 0 22.6523 0 21V5C0 3.34772 1.34772 2 3 2H8V4H3Z" fill="#20252A"></path><path fill-rule="evenodd" clip-rule="evenodd" d="M6 1C6 0.447715 6.44772 0 7 0H23C23.5523 0 24 0.447715 24 1V13C24 13.5523 23.5523 14 23 14H7C6.44772 14 6 13.5523 6 13V1ZM8 2V12H22V2H8Z" fill="#20252A"></path><path fill-rule="evenodd" clip-rule="evenodd" d="M6 4H24V6H6V4Z" fill="#20252A"></path><path fill-rule="evenodd" clip-rule="evenodd" d="M10 8H14V10H10V8Z" fill="#20252A"></path></svg>