<svg xmlns:xlink="http://www.w3.org/1999/xlink" width="48" height="88" fill="none" xmlns="http://www.w3.org/2000/svg"><path fill="#FFFFFF" d="M0 0h48v88H0z"></path><path d="M42.082 78.838c0 2.849-2.52 5.162-5.63 5.162H9.588c-3.107 0-5.63-2.314-5.63-5.162L3 14.815a.74.74 0 0 1 .768-.712h38.508a.738.738 0 0 1 .767.712l-.96 64.023Z" stroke="#006640" stroke-miterlimit="10" fill="none"></path><path d="M13.233 62.506h-4.93a.895.895 0 0 0-.894.896v1.378c0 .495.4.896.894.896h4.93a.895.895 0 0 0 .894-.896v-1.378c0-.495-.4-.896-.894-.896ZM13.233 67.157h-4.93a.895.895 0 0 0-.894.896v1.377c0 .495.4.896.894.896h4.93a.895.895 0 0 0 .894-.896v-1.377c0-.495-.4-.896-.894-.896ZM13.233 71.877h-4.93a.895.895 0 0 0-.894.896v1.378c0 .495.4.896.894.896h4.93a.895.895 0 0 0 .894-.896v-1.378c0-.494-.4-.896-.894-.896ZM8.153 76.468h4.91a1.06 1.06 0 0 1 1.064 1.06v1.146a1.064 1.064 0 0 1-1.064 1.05h-2.867A1.764 1.764 0 0 1 9 79.122a6.048 6.048 0 0 1-1.265-1.892c-.154-.358.017-.762.417-.762ZM21.473 62.506H16.4a.895.895 0 0 0-.894.896v1.378c0 .495.4.896.894.896h5.073a.895.895 0 0 0 .895-.896v-1.378c0-.495-.4-.896-.895-.896ZM21.473 67.157H16.4a.895.895 0 0 0-.894.896v1.377c0 .495.4.896.894.896h5.073a.895.895 0 0 0 .895-.896v-1.377c0-.495-.4-.896-.895-.896ZM21.473 71.877H16.4a.895.895 0 0 0-.894.896v1.378c0 .495.4.896.894.896h5.073a.895.895 0 0 0 .895-.896v-1.378c0-.494-.4-.896-.895-.896ZM21.473 76.565H16.4a.895.895 0 0 0-.894.896v1.377c0 .495.4.896.894.896h5.073a.895.895 0 0 0 .895-.896v-1.377c0-.495-.4-.896-.895-.896ZM29.617 62.506h-5.073a.895.895 0 0 0-.895.896v1.378c0 .495.4.896.895.896h5.073a.895.895 0 0 0 .894-.896v-1.378c0-.495-.4-.896-.894-.896ZM29.617 67.157h-5.073a.895.895 0 0 0-.895.896v1.377c0 .495.4.896.895.896h5.073a.895.895 0 0 0 .894-.896v-1.377c0-.495-.4-.896-.894-.896ZM37.924 62.506H32.85a.895.895 0 0 0-.895.896v1.378c0 .495.4.896.895.896h5.073a.895.895 0 0 0 .894-.896v-1.378c0-.495-.4-.896-.894-.896ZM37.924 67.157H32.85a.895.895 0 0 0-.895.896v1.377c0 .495.4.896.895.896h5.073a.895.895 0 0 0 .894-.896v-1.377c0-.495-.4-.896-.894-.896ZM35.26 79.724h-2.28a1.053 1.053 0 0 1-1.024-1.087v-5.683a1.059 1.059 0 0 1 1.025-1.087h4.81a1.052 1.052 0 0 1 .955.68c.05.13.073.268.069.407v2.136c0 .532.07 2.274-1.072 3.48v.02a3.236 3.236 0 0 1-2.483 1.134ZM29.617 71.877h-5.073a.895.895 0 0 0-.895.896v1.378c0 .495.4.896.895.896h5.073a.895.895 0 0 0 .894-.896v-1.378c0-.494-.4-.896-.894-.896ZM29.617 76.565h-5.073a.895.895 0 0 0-.895.896v1.377c0 .495.4.896.895.896h5.073a.895.895 0 0 0 .894-.896v-1.377c0-.495-.4-.896-.894-.896Z" stroke="#006640" stroke-miterlimit="10" fill="none"></path><path d="M24.59 11.188h.728a.053.053 0 0 0 .057-.05V9.132c0-.572.28-.873.764-.873s.758.301.758.873v2.006a.053.053 0 0 0 .018.037.054.054 0 0 0 .038.013h.728a.054.054 0 0 0 .039-.013.056.056 0 0 0 .018-.037V9.132c0-.863-.481-1.618-1.599-1.618-1.118 0-1.612.755-1.612 1.618v2.006a.054.054 0 0 0 .04.05.053.053 0 0 0 .023 0ZM19.58 11.238c.174.013.348-.004.515-.05a.06.06 0 0 0 .04-.054v-.615c0-.037 0-.056-.06-.056s-.137.02-.22.02c-.314 0-.451-.117-.451-.392V8.393h.667a.06.06 0 0 0 .057-.057v-.668a.06.06 0 0 0-.057-.057h-.694v-.562c0-.06-.026-.087-.07-.087h-.688c-.056 0-.083.027-.083.087v3.136c0 .752.424 1.053 1.045 1.053ZM16.657 11.278c.821 0 1.405-.505 1.405-1.163 0-.74-.487-.953-1.155-1.097l-.333-.07c-.25-.057-.388-.174-.388-.375 0-.254.254-.39.608-.39.305.012.604.089.878.223a.077.077 0 0 0 .066-.046l.134-.495c.027-.064.02-.08-.027-.107a2.193 2.193 0 0 0-1.054-.248c-.832 0-1.405.478-1.405 1.117s.463.943 1.13 1.087l.335.07c.27.057.42.164.42.39 0 .228-.18.442-.614.442a3.09 3.09 0 0 1-1.095-.247c-.04 0-.056.023-.073.087l-.084.414c-.026.087 0 .144.054.168.38.156.787.238 1.198.24ZM22.214 10.57c-.534 0-1.025-.405-1.025-1.164a1.043 1.043 0 0 1 1.025-1.153c.537 0 1.001.394 1.001 1.153s-.464 1.163-1.001 1.163Zm0 .735a1.811 1.811 0 0 0 1.846-1.899 1.856 1.856 0 0 0-1.122-1.782 1.846 1.846 0 0 0-2.456 1.05 1.856 1.856 0 0 0-.117.732 1.825 1.825 0 0 0 1.125 1.762c.23.095.476.141.724.137ZM31.7 9.366c0-1.127-.645-1.852-1.67-1.852a1.797 1.797 0 0 0-1.687 1.165c-.086.227-.125.47-.115.714a1.794 1.794 0 0 0 1.77 1.912 1.713 1.713 0 0 0 1.488-.669c.05-.077.05-.117.05-.117s0-.037-.06-.077l-.334-.28c-.077-.067-.1-.087-.127-.087-.027 0-.04 0-.06.04a1.102 1.102 0 0 1-.938.464.96.96 0 0 1-.954-.929h2.336c.2-.01.3-.06.3-.284Zm-1.706-1.143a.806.806 0 0 1 .874.792h-1.772a.91.91 0 0 1 .898-.793Z" fill="#006640"></path><path d="m3.287 14.267 1.839-9.745c.043-.295.6-.522 1.252-.522h33.288c.667 0 1.195.227 1.252.522l1.835 9.745M37.643 19.89H8.747c-.62 0-1.121.503-1.121 1.124v37.143c0 .62.502 1.123 1.121 1.123h28.896c.62 0 1.122-.503 1.122-1.123V21.014c0-.62-.502-1.124-1.122-1.124ZM7.626 53.84h31.139M43.29 15.253h.334c.818 0 .841 1.12.841 1.12l.334 4.484-.307 55.407a.251.251 0 0 1-.31.24.251.251 0 0 1-.127-.076l-1.89-2.157" stroke="#006640" stroke-miterlimit="10" fill="none"></path></svg>