<svg xmlns:xlink="http://www.w3.org/1999/xlink" width="97" height="61" fill="none" xmlns="http://www.w3.org/2000/svg"><path fill="#FFFFFF" d="M0 .5h97v60H0z"></path><path d="M41.044 39.354h12.408c.3 0 .586-.12.798-.332a1.137 1.137 0 0 0-.798-1.937H41.044c-.3 0-.586.12-.798.333a1.138 1.138 0 0 0 0 1.604c.212.212.499.332.798.332ZM41.044 45.402h12.408c.3 0 .586-.12.798-.332a1.137 1.137 0 0 0-.798-1.936H41.044c-.3 0-.586.12-.798.332a1.138 1.138 0 0 0 0 1.604c.212.213.499.332.798.332Z" fill="#006640"></path><path d="M15.664 55.988c8.099 0 14.664-6.601 14.664-14.744S23.763 26.5 15.664 26.5 1 33.101 1 41.244s6.565 14.744 14.664 14.744Z" fill="#006640" stroke="#006640" stroke-width="2px" stroke-linecap="round" stroke-linejoin="round"></path><path d="M15.664 32.345v17.798M19.687 35.573h-6.016a2.814 2.814 0 0 0-1.9.88 2.843 2.843 0 0 0 0 3.904 2.813 2.813 0 0 0 1.9.88h4.03a2.814 2.814 0 0 1 1.9.878 2.844 2.844 0 0 1 0 3.905 2.814 2.814 0 0 1-1.9.88H10.86" stroke="#FFFFFF" stroke-width="2px" stroke-linecap="round" stroke-linejoin="round" fill="none"></path><path d="M78.832 55.988c8.099 0 14.664-6.601 14.664-14.744S86.931 26.5 78.832 26.5s-14.664 6.601-14.664 14.744 6.565 14.744 14.664 14.744Z" fill="#006640" stroke="#006640" stroke-width="2px" stroke-linecap="round" stroke-linejoin="round"></path><path d="M78.832 32.345v17.798M82.855 35.573H76.84a2.814 2.814 0 0 0-1.9.88 2.844 2.844 0 0 0 0 3.904 2.814 2.814 0 0 0 1.9.88h4.03a2.813 2.813 0 0 1 1.9.878 2.844 2.844 0 0 1 0 3.905 2.813 2.813 0 0 1-1.9.88h-6.842" stroke="#FFFFFF" stroke-width="2px" stroke-linecap="round" stroke-linejoin="round" fill="none"></path></svg>