<svg xmlns:xlink="http://www.w3.org/1999/xlink" width="48" height="88" fill="none" xmlns="http://www.w3.org/2000/svg"><path d="M37.805 85.356c-4.5-1.513-9.317-2.774-14.039-2.774-4.721 0-9.789 1.26-14.29 2.774-.193.065-1.274-.026-2.14-.896a3.044 3.044 0 0 1-.892-2.15V3.67C6.447 1.997 7.81.628 9.477.628h28.328c1.667 0 3.03 1.37 3.03 3.044v78.64c0 1.675-1.45 3.577-3.03 3.044Z" stroke="#006640" stroke-miterlimit="10" fill="none"></path><path d="M17.888 53.078h-6.064a.483.483 0 0 0-.482.484v3.319c0 .267.215.484.482.484h6.064a.483.483 0 0 0 .482-.484v-3.319a.483.483 0 0 0-.482-.484ZM26.673 53.078H20.61a.483.483 0 0 0-.482.484v3.319c0 .267.216.484.482.484h6.064a.483.483 0 0 0 .482-.484v-3.319a.483.483 0 0 0-.482-.484ZM35.458 53.078h-6.064a.483.483 0 0 0-.482.484v3.319c0 .267.216.484.482.484h6.064a.483.483 0 0 0 .482-.484v-3.319a.483.483 0 0 0-.482-.484ZM17.888 58.689h-6.064a.483.483 0 0 0-.482.484v3.319c0 .267.215.484.482.484h6.064a.483.483 0 0 0 .482-.484v-3.319a.483.483 0 0 0-.482-.484ZM26.673 58.689H20.61a.483.483 0 0 0-.482.484v3.319c0 .267.216.484.482.484h6.064a.483.483 0 0 0 .482-.484v-3.319a.483.483 0 0 0-.482-.484ZM35.458 58.689h-6.064a.483.483 0 0 0-.482.484v3.319c0 .267.216.484.482.484h6.064a.483.483 0 0 0 .482-.484v-3.319a.483.483 0 0 0-.482-.484ZM17.888 64.3h-6.064a.483.483 0 0 0-.482.484v3.318c0 .268.215.484.482.484h6.064a.483.483 0 0 0 .482-.484v-3.318a.483.483 0 0 0-.482-.484ZM26.673 64.3H20.61a.483.483 0 0 0-.482.484v3.318c0 .268.216.484.482.484h6.064a.483.483 0 0 0 .482-.484v-3.318a.483.483 0 0 0-.482-.484ZM35.458 64.3h-6.064a.483.483 0 0 0-.482.484v3.318c0 .268.216.484.482.484h6.064a.483.483 0 0 0 .482-.484v-3.318a.483.483 0 0 0-.482-.484ZM17.888 69.91h-6.064a.483.483 0 0 0-.482.484v3.319c0 .267.215.484.482.484h6.064a.483.483 0 0 0 .482-.484v-3.319a.483.483 0 0 0-.482-.484ZM26.673 69.91H20.61a.483.483 0 0 0-.482.484v3.319c0 .267.216.484.482.484h6.064a.483.483 0 0 0 .482-.484v-3.319a.483.483 0 0 0-.482-.484ZM35.458 69.91h-6.064a.483.483 0 0 0-.482.484v3.319c0 .267.216.484.482.484h6.064a.483.483 0 0 0 .482-.484v-3.319a.483.483 0 0 0-.482-.484ZM17.888 75.521h-6.064a.483.483 0 0 0-.482.484v3.319c0 .267.215.484.482.484h6.064a.483.483 0 0 0 .482-.484v-3.319a.483.483 0 0 0-.482-.484ZM26.673 75.521H20.61a.483.483 0 0 0-.482.484v3.319c0 .267.216.484.482.484h6.064a.483.483 0 0 0 .482-.484v-3.319a.483.483 0 0 0-.482-.484ZM35.458 75.521h-6.064a.483.483 0 0 0-.482.484v3.319c0 .267.216.484.482.484h6.064a.483.483 0 0 0 .482-.484v-3.319a.483.483 0 0 0-.482-.484ZM35.975 84.78c-3.127 1.6-7.525 2.593-12.392 2.593-4.867 0-9.362-1.017-12.497-2.645M6.447 48.958c0-1.062.866-1.932 1.923-1.932h30.542c1.057 0 1.923.87 1.923 1.932M16.279 38.051h-4.957v1.983h4.957v-1.983ZM22.97 38.051h-4.957v1.983h4.958v-1.983ZM29.665 38.051h-4.957v1.983h4.957v-1.983ZM36.36 38.051h-4.958v1.983h4.957v-1.983Z" stroke="#006640" stroke-miterlimit="10" fill="none"></path><path d="M39.58 34.922v8.072a.502.502 0 0 1-.5.502H8.2a.502.502 0 0 1-.5-.502v-8.072" stroke="#006640" stroke-miterlimit="10" fill="none"></path><path d="M39.58 35.678V6.944a.769.769 0 0 0-.766-.77H8.468a.769.769 0 0 0-.766.77v28.482M7.702 35.217H39.58" stroke="#006640" stroke-miterlimit="10" fill="none"></path><path d="M35.815 11.218H11.467v18.408h24.348V11.218Z" stroke="#006640" stroke-miterlimit="10" fill="none"></path><path d="M43.302 20.8h-.28a.488.488 0 0 0-.488.49v57.272c0 .27.218.49.487.49h.281a.488.488 0 0 0 .487-.49V21.29c0-.27-.218-.49-.487-.49Z" stroke="#006640" stroke-width="0.8px" stroke-miterlimit="10" fill="none"></path><path d="M6.21 20c-.334 0-2 1.004-2 1.302v57.65c0 .298 1.666 1.048 2 1.048" stroke="#006640" stroke-miterlimit="10" fill="none"></path><path d="M43.701 21.01s-2.17-1.975-2.924-2.227M43.701 78.8s-2.17 1.974-2.924 2.226" stroke="#006640" stroke-width="0.8px" stroke-miterlimit="10" fill="none"></path></svg>