<svg xmlns:xlink="http://www.w3.org/1999/xlink" width="24" height="24" viewBox="0 0 24 24" fill="none" xmlns="http://www.w3.org/2000/svg" class="fill-current"><path fill-rule="evenodd" clip-rule="evenodd" d="M3 3C3 1.34315 4.34315 0 6 0H18C19.6569 0 21 1.34315 21 3V17C21 18.6569 19.6569 20 18 20H6C4.34315 20 3 18.6569 3 17V3ZM6 2C5.44772 2 5 2.44772 5 3V17C5 17.5523 5.44772 18 6 18H18C18.5523 18 19 17.5523 19 17V3C19 2.44772 18.5523 2 18 2H6Z" fill="#20252A"></path><path fill-rule="evenodd" clip-rule="evenodd" d="M6 4C6 3.44772 6.44772 3 7 3H17C17.5523 3 18 3.44772 18 4V7C18 7.55228 17.5523 8 17 8H7C6.44772 8 6 7.55228 6 7V4ZM8 5V6H16V5H8Z" fill="#20252A"></path><path fill-rule="evenodd" clip-rule="evenodd" d="M6.5 10C6.5 9.44772 6.94772 9 7.5 9H8.5C9.05228 9 9.5 9.44772 9.5 10C9.5 10.5523 9.05228 11 8.5 11H7.5C6.94772 11 6.5 10.5523 6.5 10Z" fill="#20252A"></path><path fill-rule="evenodd" clip-rule="evenodd" d="M10.5 10C10.5 9.44772 10.9477 9 11.5 9H12.5C13.0523 9 13.5 9.44772 13.5 10C13.5 10.5523 13.0523 11 12.5 11H11.5C10.9477 11 10.5 10.5523 10.5 10Z" fill="#20252A"></path><path fill-rule="evenodd" clip-rule="evenodd" d="M6.5 13C6.5 12.4477 6.94772 12 7.5 12H8.5C9.05228 12 9.5 12.4477 9.5 13C9.5 13.5523 9.05228 14 8.5 14H7.5C6.94772 14 6.5 13.5523 6.5 13Z" fill="#20252A"></path><path fill-rule="evenodd" clip-rule="evenodd" d="M6.5 16C6.5 15.4477 6.94772 15 7.5 15H8.5C9.05228 15 9.5 15.4477 9.5 16C9.5 16.5523 9.05228 17 8.5 17H7.5C6.94772 17 6.5 16.5523 6.5 16Z" fill="#20252A"></path><path fill-rule="evenodd" clip-rule="evenodd" d="M10.5 13C10.5 12.4477 10.9477 12 11.5 12H12.5C13.0523 12 13.5 12.4477 13.5 13C13.5 13.5523 13.0523 14 12.5 14H11.5C10.9477 14 10.5 13.5523 10.5 13Z" fill="#20252A"></path><path fill-rule="evenodd" clip-rule="evenodd" d="M10.5 16C10.5 15.4477 10.9477 15 11.5 15H12.5C13.0523 15 13.5 15.4477 13.5 16C13.5 16.5523 13.0523 17 12.5 17H11.5C10.9477 17 10.5 16.5523 10.5 16Z" fill="#20252A"></path><path fill-rule="evenodd" clip-rule="evenodd" d="M14.5 10C14.5 9.44772 14.9477 9 15.5 9H16.5C17.0523 9 17.5 9.44772 17.5 10C17.5 10.5523 17.0523 11 16.5 11H15.5C14.9477 11 14.5 10.5523 14.5 10Z" fill="#20252A"></path><path fill-rule="evenodd" clip-rule="evenodd" d="M14.5 13C14.5 12.4477 14.9477 12 15.5 12H16.5C17.0523 12 17.5 12.4477 17.5 13C17.5 13.5523 17.0523 14 16.5 14H15.5C14.9477 14 14.5 13.5523 14.5 13Z" fill="#20252A"></path><path fill-rule="evenodd" clip-rule="evenodd" d="M14.5 16C14.5 15.4477 14.9477 15 15.5 15H16.5C17.0523 15 17.5 15.4477 17.5 16C17.5 16.5523 17.0523 17 16.5 17H15.5C14.9477 17 14.5 16.5523 14.5 16Z" fill="#20252A"></path><path fill-rule="evenodd" clip-rule="evenodd" d="M6 18H18V22C18 23.1046 17.1046 24 16 24H8C6.89543 24 6 23.1046 6 22V18ZM8 20V22H16V20H8Z" fill="#20252A"></path></svg>