<svg xmlns:xlink="http://www.w3.org/1999/xlink" width="24" height="24" viewBox="0 0 24 24" fill="none" xmlns="http://www.w3.org/2000/svg" class="mr-8"><path fill-rule="evenodd" clip-rule="evenodd" d="M21.8593 15.6959L21.861 15.6976C22.0503 15.8887 22.2493 16.0965 22.4129 16.3042C22.5659 16.4986 22.8289 16.8637 22.9442 17.3725C23.0782 17.9639 22.9497 18.4473 22.849 18.723C22.8079 18.8358 22.7625 18.9367 22.7422 18.9818L22.7298 19.0092C22.7106 19.0519 22.7017 19.0716 22.6914 19.0962L22.689 19.1021C22.4769 19.605 22.2189 20.0872 21.9183 20.5427L21.9139 20.5495C21.3373 21.4156 20.701 22.1166 19.6729 22.5955C19.1173 22.8543 18.3257 23.1003 17.1894 22.9586C16.1461 22.8286 14.9216 22.3855 13.3982 21.5323L13.3972 21.5318C11.0031 20.1892 9.2999 19.0037 7.1335 16.8435C4.98463 14.7008 3.89651 13.2599 2.41727 10.5728C0.910481 7.83566 0.688322 5.75399 1.35965 4.31955C1.84188 3.28914 2.55073 2.65589 3.40965 2.08528L3.41819 2.07961C3.87382 1.78027 4.35593 1.5233 4.85844 1.31189L4.86661 1.30845C4.89148 1.29812 4.91154 1.28915 4.95465 1.26985C4.96139 1.26682 4.96871 1.26355 4.97669 1.25998C4.97825 1.25928 4.97989 1.25854 4.98162 1.25777C5.02679 1.23754 5.12746 1.19246 5.23978 1.15166C5.51439 1.05192 5.99628 0.924124 6.58598 1.05709C7.09429 1.17169 7.45941 1.43361 7.65443 1.58677C7.86198 1.74976 8.06954 1.94795 8.26047 2.1365C8.76486 2.6331 9.29244 3.36215 9.70302 3.98646C10.1264 4.63029 10.5382 5.33609 10.785 5.86563L10.7903 5.87698C10.9024 6.11797 11.032 6.39657 11.128 6.65533C11.2286 6.92669 11.3495 7.32013 11.3503 7.78957C11.3519 8.7597 10.8271 9.47135 10.5714 9.81802C10.562 9.83071 10.553 9.84291 10.5444 9.85461C10.4824 9.93903 10.4227 10.0175 10.3742 10.0813L10.3733 10.0825C10.4383 10.2113 10.533 10.3835 10.6672 10.5955C10.971 11.0755 11.3918 11.6233 11.8909 12.1209C12.3897 12.618 12.9262 13.0253 13.3921 13.3155C13.6018 13.4461 13.7725 13.5377 13.9001 13.6002C13.901 13.5995 13.902 13.5987 13.903 13.5979L13.9133 13.5901C13.9731 13.5444 14.0463 13.4884 14.1235 13.431C14.1413 13.4178 14.1611 13.4029 14.1821 13.3871C14.512 13.1384 15.2454 12.5858 16.2166 12.5868C16.7195 12.5873 17.1328 12.7299 17.4026 12.84C17.647 12.9398 17.9134 13.0741 18.1405 13.1885C18.1541 13.1954 18.1675 13.2022 18.1808 13.2088C18.6608 13.4509 19.3421 13.8434 19.9919 14.2637C20.6102 14.6638 21.3538 15.1866 21.8593 15.6959ZM4.51636 3.75117C4.86994 3.51887 5.24406 3.31944 5.63403 3.15538C5.68595 3.1338 5.73225 3.11304 5.77447 3.09411C6.12176 2.93836 6.19361 2.90614 6.85641 3.56079C7.55133 4.24442 8.59112 5.89291 8.97233 6.71066C9.46128 7.76206 9.50455 7.89186 8.93252 8.67067C8.87848 8.74424 8.82504 8.81443 8.77332 8.88236C8.4366 9.32461 8.1729 9.67095 8.29255 10.2283C8.43059 10.8712 9.25142 12.3138 10.479 13.5374C11.7066 14.761 13.1085 15.5368 13.7537 15.6744C14.3216 15.7955 14.6735 15.5264 15.1256 15.1808C15.1872 15.1337 15.2506 15.0853 15.3166 15.0362C16.1431 14.4222 16.2296 14.4655 17.2811 14.9951C18.0885 15.4022 19.7527 16.4125 20.4398 17.1048C21.0959 17.7673 21.0636 17.839 20.9074 18.1853C20.8885 18.2273 20.8677 18.2733 20.8461 18.3249C20.6818 18.7146 20.4819 19.0882 20.249 19.4412C19.7882 20.1335 19.4044 20.5142 18.8284 20.7825C18.2525 21.0508 17.1777 21.3567 14.3755 19.7874C12.1103 18.517 10.5608 17.4366 8.54568 15.4273C6.53059 13.418 5.55701 12.129 4.16933 9.60827C2.78165 7.08752 2.90237 5.74147 3.17108 5.16731C3.43979 4.59315 3.82403 4.2111 4.51636 3.75117Z" fill="none"></path></svg>