<svg xmlns:xlink="http://www.w3.org/1999/xlink" width="24" height="24" fill="none" xmlns="http://www.w3.org/2000/svg"><path d="M18.218 7.278a1.44 1.44 0 1 0 0-2.88 1.44 1.44 0 0 0 0 2.88ZM12 18c-3.309 0-6-2.691-6-6s2.691-6 6-6 6 2.691 6 6-2.691 6-6 6Zm0-9c-1.655 0-3 1.345-3 3s1.345 3 3 3 3-1.345 3-3-1.345-3-3-3Z" fill="#FFFFFF"></path><path d="M18 24H6c-3.084 0-6-2.916-6-6V6c0-3.084 2.916-6 6-6h12c3.084 0 6 2.916 6 6v12c0 3.084-2.916 6-6 6ZM6 3C4.598 3 3 4.598 3 6v12c0 1.43 1.57 3 3 3h12c1.402 0 3-1.598 3-3V6c0-1.402-1.598-3-3-3H6Z" fill="#FFFFFF"></path></svg>