<svg xmlns:xlink="http://www.w3.org/1999/xlink" width="24" height="24" viewBox="0 0 24 24" fill="none" xmlns="http://www.w3.org/2000/svg" class="fill-current"><path fill-rule="evenodd" clip-rule="evenodd" d="M10.2929 1.29289C10.6834 0.902369 11.3166 0.902369 11.7071 1.29289L18.7071 8.29289C18.8946 8.48043 19 8.73478 19 9V11C19 11.5523 18.5523 12 18 12C17.4477 12 17 11.5523 17 11V9.41421L11 3.41421L5 9.41421V22H12C12.5523 22 13 22.4477 13 23C13 23.5523 12.5523 24 12 24H4C3.44772 24 3 23.5523 3 23V9C3 8.73478 3.10536 8.48043 3.29289 8.29289L10.2929 1.29289Z" fill="#20252A"></path><path fill-rule="evenodd" clip-rule="evenodd" d="M11 9C10.4477 9 10 9.44771 10 10C10 10.5523 10.4477 11 11 11C11.5523 11 12 10.5523 12 10C12 9.44771 11.5523 9 11 9ZM8 10C8 8.34315 9.34315 7 11 7C12.6569 7 14 8.34315 14 10C14 11.6569 12.6569 13 11 13C9.34315 13 8 11.6569 8 10Z" fill="#20252A"></path><path fill-rule="evenodd" clip-rule="evenodd" d="M18 14.5637C19.2197 13.7218 20.9396 13.8092 22.0637 14.9195C23.3116 16.1527 23.3124 18.1579 22.0635 19.3907L18 23.4058L13.9365 19.3907C12.688 18.1579 12.6883 16.1528 13.9361 14.9197C15.0593 13.8104 16.7796 13.7213 18 14.5637ZM20.6581 16.3423C20.1282 15.8192 19.2419 15.9087 18.83 16.5217L18.0002 17.7567L17.1701 16.5219C16.7576 15.9083 15.8713 15.8197 15.3419 16.3423M20.6581 16.3423C21.114 16.7931 21.1135 17.5182 20.6585 17.9673L18 20.5942L15.3419 17.9677C14.8868 17.5185 14.886 16.7931 15.3419 16.3423" fill="#20252A"></path></svg>