<svg xmlns:xlink="http://www.w3.org/1999/xlink" width="64" height="58" fill="none" xmlns="http://www.w3.org/2000/svg"><path d="M18.089 39.78h27.706M20.007 37.48h23.87M35.459 23.198V37.25M28.477 23.198V37.25M41.706 23.198V37.25M22.23 23.198V37.25M31.942 15.272l-13.349 7.81h26.698l-13.349-7.81Z" stroke="#006640" stroke-linecap="round" stroke-linejoin="round" fill="none"></path><path d="M35.188 4.97h24.85c.6 0 1.176.236 1.6.656.425.42.663.989.663 1.583v36.88a2.227 2.227 0 0 1-.664 1.58 2.274 2.274 0 0 1-1.598.654H3.958a2.27 2.27 0 0 1-1.597-.654 2.222 2.222 0 0 1-.662-1.58V7.209c0-.593.238-1.162.661-1.582.424-.42.998-.656 1.598-.657h24.85M18.69 55.265h26.053M31.717 46.324v8.94" stroke="#006640" stroke-linecap="round" stroke-linejoin="round" fill="none"></path><path d="M31.519 11.255c3.029 0 5.484-2.408 5.484-5.378S34.548.5 31.52.5c-3.03 0-5.485 2.408-5.485 5.377 0 2.97 2.456 5.378 5.485 5.378Z" fill="#006640"></path><path d="M31.518 2.617v6.491M33.024 3.81h-2.258c-.21 0-.414.06-.588.175-.173.113-.309.275-.389.465a1.015 1.015 0 0 0 .232 1.128c.2.191.466.299.745.3h1.505c.28 0 .548.108.745.302a1.023 1.023 0 0 1 0 1.461 1.065 1.065 0 0 1-.745.303h-2.58" stroke="#FFFFFF" stroke-width="0.7px" stroke-linecap="round" stroke-linejoin="round" fill="none"></path></svg>