<svg xmlns:xlink="http://www.w3.org/1999/xlink" width="24" height="24" fill="none" xmlns="http://www.w3.org/2000/svg"><path d="M24 4.5c-.9.45-1.8.6-2.85.75 1.05-.6 1.8-1.5 2.1-2.7-.9.6-1.95.9-3.15 1.2-.9-.9-2.25-1.5-3.6-1.5-2.55 0-4.8 2.25-4.8 4.95 0 .45 0 .75.15 1.05-4.05-.15-7.8-2.1-10.2-5.1-.45.75-.6 1.5-.6 2.55 0 1.65.9 3.15 2.25 4.05-.75 0-1.5-.3-2.25-.6 0 2.4 1.65 4.35 3.9 4.8-.45.15-.9.15-1.35.15-.3 0-.6 0-.9-.15.6 1.95 2.4 3.45 4.65 3.45-1.65 1.35-3.75 2.1-6.15 2.1H0c2.25 1.35 4.8 2.25 7.5 2.25 9 0 13.95-7.5 13.95-13.95v-.6C22.5 6.45 23.4 5.55 24 4.5Z" fill="#FFFFFF"></path></svg>